<svg width="22" height="23" viewBox="0 0 22 23" fill="none" xmlns="http://www.w3.org/2000/svg">
<g clip-path="url(#clip0_4531_7223)">
<path d="M11.7252 0.316821C5.06836 -0.115922 -0.42543 5.35921 0.0284464 11.9915C0.378309 17.1844 4.49156 21.493 9.68277 22.0951C12.7559 22.4525 15.6021 21.54 17.7863 19.8279C18.174 19.2728 18.6752 18.8025 19.252 18.445C21.162 16.2813 22.2305 13.365 21.928 10.1946C21.4457 4.89825 17.0488 0.655489 11.7252 0.316821Z" fill="url(#paint0_linear_4531_7223)"/>
<path d="M9.62587 15.3026L6.19343 11.8877C5.73956 11.4362 5.73956 10.7118 6.19343 10.2696C6.64731 9.81808 7.3754 9.81808 7.81982 10.2696L10.4391 12.8755L15.5735 7.76726C16.0274 7.3157 16.7555 7.3157 17.1999 7.76726C17.6538 8.21881 17.6538 8.94319 17.1999 9.38534L11.2523 15.3026C10.7984 15.7542 10.0703 15.7542 9.62587 15.3026Z" fill="white"/>
</g>
<defs>
<linearGradient id="paint0_linear_4531_7223" x1="7.91175e-05" y1="11.2295" x2="21.9847" y2="11.2295" gradientUnits="userSpaceOnUse">
<stop stop-color="#81CACF"/>
<stop offset="0.99" stop-color="#0AB0D7"/>
</linearGradient>
<clipPath id="clip0_4531_7223">
<rect width="21.9846" height="21.8723" fill="white" transform="translate(0 0.28833)"/>
</clipPath>
</defs>
</svg>
