<svg width="22" height="23" viewBox="0 0 22 23" fill="none" xmlns="http://www.w3.org/2000/svg">
<g clip-path="url(#clip0_4481_410)">
<path d="M11.0009 0.288345C10.6009 0.288345 10.2756 0.613588 10.2756 1.01362V3.75819C10.2756 4.15822 10.6009 4.48346 11.0009 4.48346C11.4009 4.48346 11.7262 4.15822 11.7262 3.75819V1.01362C11.7262 0.613588 11.4009 0.288345 11.0009 0.288345Z" fill="#637E9A"/>
<path opacity="0.8" d="M6.60739 5.12872C6.73609 5.35309 6.97785 5.49049 7.237 5.49049C7.36397 5.49049 7.4892 5.45745 7.59877 5.39309C7.94488 5.19308 8.06315 4.74783 7.86488 4.40171L6.4926 2.02587C6.3952 1.8589 6.23866 1.73889 6.05256 1.68845C5.86472 1.63801 5.66992 1.6641 5.50121 1.7615C5.33424 1.8589 5.21423 2.01544 5.16379 2.20154C5.11336 2.38938 5.13944 2.58418 5.23684 2.75115L6.60913 5.12699L6.60739 5.12872Z" fill="#637E9A"/>
<path opacity="0.6" d="M1.73925 6.77929L4.11509 8.15158C4.22466 8.21419 4.34989 8.24897 4.47686 8.24897C4.73601 8.24897 4.97777 8.10983 5.10647 7.88721C5.30649 7.54109 5.18648 7.09584 4.84036 6.89582L2.46452 5.52354C2.29582 5.42614 2.10102 5.40005 1.91492 5.45049C1.72707 5.50093 1.57054 5.62094 1.47488 5.78791C1.37748 5.95488 1.35139 6.15142 1.40183 6.33926C1.45227 6.5271 1.57228 6.68363 1.73925 6.77929Z" fill="#6F8EAA"/>
<path opacity="0.4" d="M4.19511 11.2892C4.19511 10.8892 3.86987 10.5639 3.46984 10.5639H0.725275C0.325243 10.5639 0 10.8892 0 11.2892C0 11.6892 0.325243 12.0145 0.725275 12.0145H3.46984C3.86987 12.0145 4.19511 11.6892 4.19511 11.2892Z" fill="#6F8EAA"/>
<path opacity="0.3" d="M5.10647 14.6912C4.90646 14.3451 4.4612 14.2268 4.11509 14.4269L1.73925 15.7991C1.57228 15.8965 1.45227 16.0531 1.40183 16.2392C1.35139 16.427 1.37748 16.6218 1.47488 16.7888C1.57228 16.9558 1.72881 17.0775 1.91492 17.1262C1.97753 17.1436 2.04014 17.1505 2.10276 17.1505C2.22798 17.1505 2.35321 17.1175 2.46452 17.0532L4.84036 15.6809C5.18648 15.4809 5.30649 15.0356 5.10647 14.6895V14.6912Z" fill="#6F8EAA"/>
<path opacity="0.3" d="M7.59705 17.1819C7.25094 16.9818 6.80742 17.1001 6.60567 17.448L5.23339 19.8238C5.13599 19.9908 5.11164 20.1873 5.16034 20.3734C5.21077 20.5613 5.33078 20.7178 5.49775 20.8135C5.60733 20.8778 5.73255 20.9109 5.85952 20.9109C6.11867 20.9109 6.35869 20.7717 6.48914 20.5491L7.86142 18.1715C7.95882 18.0045 7.98491 17.808 7.93447 17.6219C7.88403 17.4341 7.76402 17.2775 7.59705 17.1819Z" fill="#A0A0A0"/>
<path opacity="0.3" d="M11.0009 18.095C10.6009 18.095 10.2756 18.4202 10.2756 18.8202V21.5648C10.2756 21.9648 10.6009 22.2901 11.0009 22.2901C11.4009 22.2901 11.7262 21.9648 11.7262 21.5648V18.8202C11.7262 18.4202 11.4009 18.095 11.0009 18.095Z" fill="#A0A0A0"/>
<path opacity="0.2" d="M15.3942 17.448C15.2968 17.281 15.1403 17.161 14.9542 17.1105C14.7663 17.0601 14.5715 17.0862 14.4028 17.1836C14.2359 17.281 14.1158 17.4375 14.0654 17.6236C14.015 17.8115 14.0411 18.0063 14.1385 18.175L15.5107 20.5526C15.6394 20.7752 15.8812 20.9143 16.1404 20.9143C16.2673 20.9143 16.3925 20.8813 16.5021 20.8169C16.6691 20.7195 16.7891 20.563 16.8395 20.3769C16.89 20.189 16.8639 19.9942 16.7665 19.8255L15.3942 17.4497V17.448Z" fill="#A0A0A0"/>
<path opacity="0.2" d="M20.2608 15.7974L17.885 14.4251C17.5389 14.2251 17.0953 14.3434 16.8936 14.6912C16.7962 14.8582 16.7701 15.0547 16.8205 15.2426C16.871 15.4304 16.991 15.5852 17.158 15.6826L19.5338 17.0549C19.6434 17.1192 19.7686 17.1523 19.8938 17.1523C20.153 17.1523 20.3947 17.0131 20.5234 16.7905C20.6208 16.6236 20.6452 16.427 20.5965 16.2409C20.546 16.0531 20.426 15.8965 20.2591 15.8009L20.2608 15.7974Z" fill="#A0A0A0"/>
<path opacity="0.2" d="M21.2748 10.5639H18.5302C18.1302 10.5639 17.8049 10.8892 17.8049 11.2892C17.8049 11.6892 18.1302 12.0145 18.5302 12.0145H21.2748C21.6748 12.0145 22 11.6892 22 11.2892C22 10.8892 21.6748 10.5639 21.2748 10.5639Z" fill="#A0A0A0"/>
<path opacity="0.2" d="M16.8936 7.88547C16.991 8.05244 17.1475 8.17245 17.3336 8.22289C17.3962 8.23854 17.4588 8.24724 17.5232 8.24724C17.6484 8.24724 17.7736 8.21419 17.8849 8.14984L20.2608 6.77756C20.4277 6.68016 20.5478 6.52363 20.5982 6.33752C20.6486 6.14968 20.6225 5.95489 20.5251 5.78792C20.4277 5.62095 20.2712 5.50094 20.0851 5.4505C19.8973 5.4018 19.7025 5.42615 19.5355 5.52355L17.1597 6.89583C16.9927 6.99323 16.8727 7.14976 16.8222 7.33586C16.7718 7.5237 16.7979 7.7185 16.8953 7.88721L16.8936 7.88547Z" fill="#A0A0A0"/>
<path opacity="0.2" d="M14.4028 5.39484C14.5141 5.4592 14.6376 5.49224 14.7646 5.49224C14.8272 5.49224 14.8916 5.48354 14.9542 5.46789C15.142 5.41745 15.2968 5.29744 15.3942 5.13047L16.7665 2.75463C16.8639 2.58766 16.89 2.39113 16.8395 2.20329C16.7891 2.01544 16.6691 1.86065 16.5021 1.76325C16.156 1.56323 15.7108 1.68151 15.5107 2.02936L14.1385 4.4052C14.0411 4.57217 14.015 4.76871 14.0654 4.95655C14.1158 5.14439 14.2359 5.29918 14.4028 5.39658V5.39484Z" fill="#A0A0A0"/>
</g>
<defs>
<clipPath id="clip0_4481_410">
<rect width="22" height="22" fill="white" transform="translate(0 0.288345)"/>
</clipPath>
</defs>
</svg>
