<svg width="26" height="23" viewBox="0 0 26 23" fill="none" xmlns="http://www.w3.org/2000/svg">
<g clip-path="url(#clip0_4531_7956)">
<path d="M12.75 22.3712C12.62 22.3712 12.49 22.3312 12.39 22.2412C11.56 21.5312 10.52 20.7712 9.41 19.9712C5.21 16.9212 0 13.1412 0 7.48124C0 5.12124 0.95 2.98124 2.6 1.61124C4.49 0.0512415 7.34 -0.438759 9.51 0.421241C10.85 0.951241 12 1.99124 12.74 3.33124C13.48 2.00124 14.64 0.951241 15.97 0.421241C18.15 -0.438759 20.99 0.0512415 22.88 1.61124C24.53 2.98124 25.48 5.12124 25.48 7.48124C25.48 13.1312 20.27 16.9212 16.08 19.9612C14.97 20.7612 13.92 21.5212 13.1 22.2312C13 22.3212 12.87 22.3612 12.74 22.3612L12.75 22.3712ZM7.18 1.10124C5.81 1.10124 4.38 1.58124 3.3 2.46124C1.9 3.62124 1.1 5.45124 1.1 7.48124C1.1 12.5712 6.06 16.1712 10.05 19.0612C11.03 19.7712 11.95 20.4412 12.74 21.0912C13.53 20.4412 14.46 19.7712 15.43 19.0612C19.42 16.1712 24.38 12.5712 24.38 7.48124C24.38 5.44124 23.58 3.61124 22.18 2.46124C20.59 1.14124 18.2 0.731241 16.38 1.45124C15.13 1.94124 14.08 2.99124 13.48 4.32124C13.4 4.49124 13.33 4.68124 13.26 4.87124C13.18 5.09124 12.97 5.24124 12.74 5.24124C12.51 5.24124 12.3 5.09124 12.22 4.87124C12.15 4.68124 12.08 4.50124 12 4.32124C11.4 2.99124 10.35 1.94124 9.1 1.45124C8.5 1.21124 7.85 1.10124 7.18 1.10124Z" fill="white"/>
</g>
<defs>
<clipPath id="clip0_4531_7956">
<rect width="25.5" height="22.37" fill="white" transform="translate(0 0.00125122)"/>
</clipPath>
</defs>
</svg>
