<svg width="50" height="38" viewBox="0 0 50 32" fill="none" xmlns="http://www.w3.org/2000/svg">
<rect x="3" y="3" width="44" height="26" rx="13" fill="url(#paint0_linear_5550_3)"/>
<rect x="3" y="3" width="44" height="26" rx="13" fill="url(#paint1_linear_5550_3)"/>
<rect x="0.125" y="0.125" width="49.75" height="31.75" rx="15.875" stroke="white" stroke-width="0.25"/>
<path d="M14.7323 21.21C14.0023 21.21 13.2723 21.12 12.5423 20.94C11.8223 20.76 11.1923 20.505 10.6523 20.175L11.7323 17.94C12.1523 18.22 12.6173 18.435 13.1273 18.585C13.6473 18.735 14.1523 18.81 14.6423 18.81C15.1523 18.81 15.5573 18.715 15.8573 18.525C16.1573 18.335 16.3073 18.065 16.3073 17.715C16.3073 17.405 16.1823 17.16 15.9323 16.98C15.6823 16.79 15.2723 16.695 14.7023 16.695L13.4573 16.695L13.4573 14.82L16.2773 11.775L16.5623 12.795L11.1923 12.795V10.5L18.7823 10.5V12.36L15.9623 15.405L14.5073 14.58H15.3173C16.6273 14.58 17.6173 14.875 18.2873 15.465C18.9673 16.045 19.3073 16.795 19.3073 17.715C19.3073 18.315 19.1423 18.88 18.8123 19.41C18.4923 19.94 17.9973 20.375 17.3273 20.715C16.6573 21.045 15.7923 21.21 14.7323 21.21ZM25.4204 21.21C24.4404 21.21 23.5854 21.015 22.8554 20.625C22.1354 20.235 21.5704 19.655 21.1604 18.885C20.7604 18.115 20.5604 17.165 20.5604 16.035C20.5604 14.815 20.7954 13.78 21.2654 12.93C21.7454 12.07 22.4004 11.415 23.2304 10.965C24.0704 10.515 25.0404 10.29 26.1404 10.29C26.7304 10.29 27.2954 10.36 27.8354 10.5C28.3854 10.63 28.8504 10.815 29.2304 11.055L28.1504 13.185C27.8504 12.975 27.5354 12.835 27.2054 12.765C26.8854 12.685 26.5554 12.645 26.2154 12.645C25.4054 12.645 24.7554 12.89 24.2654 13.38C23.7854 13.87 23.5454 14.585 23.5454 15.525C23.5454 15.695 23.5454 15.875 23.5454 16.065C23.5554 16.245 23.5754 16.43 23.6054 16.62L22.8554 16.005C23.0554 15.635 23.2954 15.325 23.5754 15.075C23.8654 14.825 24.2054 14.635 24.5954 14.505C24.9954 14.375 25.4404 14.31 25.9304 14.31C26.5904 14.31 27.1904 14.45 27.7304 14.73C28.2804 15 28.7204 15.385 29.0504 15.885C29.3804 16.375 29.5454 16.955 29.5454 17.625C29.5454 18.355 29.3604 18.99 28.9904 19.53C28.6204 20.06 28.1254 20.475 27.5054 20.775C26.8854 21.065 26.1904 21.21 25.4204 21.21ZM25.2404 19.095C25.5204 19.095 25.7654 19.04 25.9754 18.93C26.1954 18.82 26.3654 18.665 26.4854 18.465C26.6054 18.265 26.6654 18.03 26.6654 17.76C26.6654 17.36 26.5304 17.04 26.2604 16.8C26.0004 16.56 25.6554 16.44 25.2254 16.44C24.9354 16.44 24.6804 16.495 24.4604 16.605C24.2504 16.715 24.0804 16.87 23.9504 17.07C23.8304 17.27 23.7704 17.505 23.7704 17.775C23.7704 18.035 23.8304 18.265 23.9504 18.465C24.0704 18.655 24.2404 18.81 24.4604 18.93C24.6804 19.04 24.9404 19.095 25.2404 19.095ZM34.2766 21.21C33.5566 21.21 32.8316 21.12 32.1016 20.94C31.3716 20.76 30.7416 20.505 30.2116 20.175L31.2766 17.94C31.7066 18.22 32.1716 18.435 32.6716 18.585C33.1816 18.735 33.6866 18.81 34.1866 18.81C34.6866 18.81 35.0916 18.715 35.4016 18.525C35.7116 18.325 35.8666 18.05 35.8666 17.7C35.8666 17.49 35.8066 17.305 35.6866 17.145C35.5666 16.975 35.3616 16.85 35.0716 16.77C34.7816 16.68 34.3666 16.635 33.8266 16.635H30.9766L31.5016 10.5H38.1916V12.795L32.5516 12.795L34.0666 11.49L33.7216 15.63L32.2066 14.325H34.5316C35.5716 14.325 36.4066 14.475 37.0366 14.775C37.6666 15.065 38.1266 15.46 38.4166 15.96C38.7066 16.45 38.8516 17.005 38.8516 17.625C38.8516 18.245 38.6866 18.83 38.3566 19.38C38.0366 19.92 37.5416 20.36 36.8716 20.7C36.2016 21.04 35.3366 21.21 34.2766 21.21Z" fill="white"/>
<defs>
<linearGradient id="paint0_linear_5550_3" x1="-13" y1="10" x2="25" y2="29" gradientUnits="userSpaceOnUse">
<stop stop-color="#DEA042"/>
<stop offset="1" stop-color="#E6BB57"/>
</linearGradient>
<linearGradient id="paint1_linear_5550_3" x1="3" y1="16" x2="46.9829" y2="16" gradientUnits="userSpaceOnUse">
<stop stop-color="#81CACF"/>
<stop offset="0.99" stop-color="#0AB0D7"/>
</linearGradient>
</defs>
</svg>
