<svg width="104" height="15" viewBox="0 0 104 15" fill="none" xmlns="http://www.w3.org/2000/svg">
<g clip-path="url(#clip0_4531_6532)">
<path d="M7.45726 13.75C10.8893 13.75 13.6716 10.9518 13.6716 7.5C13.6716 4.04822 10.8893 1.25 7.45726 1.25C4.02517 1.25 1.24292 4.04822 1.24292 7.5C1.24292 10.9518 4.02517 13.75 7.45726 13.75Z" stroke="url(#paint0_linear_4531_6532)" stroke-width="2.5"/>
<path d="M7.45722 0C6.47535 0 5.50591 0.19375 4.60483 0.56875C3.69754 0.94375 2.87725 1.5 2.18746 2.19375C1.49767 2.8875 0.94459 3.71875 0.57173 4.625C0.19887 5.5375 0.00622559 6.5125 0.00622559 7.49375C0.00622559 8.475 0.19887 9.45625 0.57173 10.3625C0.94459 11.275 1.49767 12.1 2.18746 12.7937C2.87725 13.4875 3.70376 14.0437 4.60483 14.4187C5.51213 14.7937 6.48156 14.9875 7.45722 14.9875V0Z" fill="url(#paint1_linear_4531_6532)"/>
<path d="M26.9267 12.5H29.2508L24.9692 2.875H22.7817L18.5187 12.5H20.7869L21.6321 10.4375H26.0753L26.9205 12.5H26.9267ZM22.3467 8.74375L23.863 5.05625L25.3793 8.74375H22.3467ZM36.7267 2.875L33.7749 9.75L30.8604 2.875H28.4678L32.5942 12.5H34.7816L38.9266 2.875H36.7267ZM46.5516 12.5H48.8757L44.594 2.875H42.4066L38.1436 12.5H40.4118L41.2569 10.4375H45.7002L46.5453 12.5H46.5516ZM41.9716 8.74375L43.4879 5.05625L45.0042 8.74375H41.9716ZM51.3739 12.5H53.5862V4.6875H56.6499V2.875H48.3102V4.6875H51.3739V12.5ZM64.511 12.5H66.8351L62.5535 2.875H60.366L56.103 12.5H58.3712L59.2164 10.4375H63.6596L64.5048 12.5H64.511ZM59.931 8.74375L61.4473 5.05625L62.9636 8.74375H59.931ZM76.3058 12.5L74.1618 9.40625C75.4047 8.86875 76.1318 7.8125 76.1318 6.36875C76.1318 4.2125 74.5347 2.875 71.9744 2.875H67.8294V12.5H70.0418V9.81875H72.0801L73.9257 12.5H76.3058ZM73.8822 6.36875C73.8822 7.4125 73.1986 8.04375 71.8439 8.04375H70.0418V4.6875H71.8439C73.1986 4.6875 73.8822 5.30625 73.8822 6.3625V6.36875ZM77.8842 12.5H80.0965V2.875H77.8842V12.5ZM86.6216 12.6625C89.3435 12.6625 90.953 11.0938 90.953 8.2625V2.875H88.7655V8.18125C88.7655 10.0125 87.9888 10.7688 86.634 10.7688C85.2793 10.7688 84.5025 10.0125 84.5025 8.18125V2.875H82.2902V8.2625C82.2902 11.0938 83.9059 12.6625 86.6216 12.6625ZM103.929 12.5L103.904 2.875H102.083L98.5531 8.85625L94.9737 2.875H93.1404V12.5H95.216V6.85L98.0187 11.4813H99.0192L101.834 6.725L101.847 12.5H103.922H103.929Z" fill="white"/>
</g>
<defs>
<linearGradient id="paint0_linear_4531_6532" x1="11.161" y1="-1.425" x2="3.6873" y2="16.3758" gradientUnits="userSpaceOnUse">
<stop stop-color="#348BF2"/>
<stop offset="1" stop-color="#D3CCFC"/>
</linearGradient>
<linearGradient id="paint1_linear_4531_6532" x1="9.04809" y1="-2.3125" x2="1.57438" y2="15.4883" gradientUnits="userSpaceOnUse">
<stop stop-color="#3497F2"/>
<stop offset="1" stop-color="#D0CCFC"/>
</linearGradient>
<clipPath id="clip0_4531_6532">
<rect width="103.929" height="15" fill="white"/>
</clipPath>
</defs>
</svg>
