<svg width="42" height="42" viewBox="0 0 42 42" fill="none" xmlns="http://www.w3.org/2000/svg">
<g clip-path="url(#clip0_4619_562)">
<path d="M0 22.3442C0 21.4478 0 20.5522 0 19.6558C0.143657 19.1736 0.119294 18.6696 0.191543 18.1773C0.901428 13.3131 3.00588 9.15794 6.57127 5.77317C9.76785 2.73873 13.5634 0.897228 17.9269 0.244469C18.5301 0.154579 19.135 0.0814898 19.7398 0C20.5799 0 21.42 0 22.2602 0C23.0456 0.108373 23.8337 0.198264 24.615 0.327639C33.1663 1.73985 40.1585 8.63456 41.6707 17.1406C41.79 17.8093 41.8908 18.4814 42 19.1518V22.8474C41.8227 23.6497 41.7614 24.4705 41.601 25.2778C39.9905 33.378 33.4192 39.9712 25.3131 41.59C24.5234 41.748 23.7261 41.8639 22.9322 42H19.1526C19.0888 41.9311 19.0031 41.9345 18.9199 41.9269C16.3164 41.674 13.8331 40.9868 11.5228 39.7603C5.19686 36.4032 1.42313 31.1896 0.241949 24.1168C0.143657 23.5287 0.0798096 22.9348 0 22.3442ZM20.9941 30.7855C21.9317 30.7855 22.8692 30.8023 23.8059 30.7821C26.2103 30.7309 28.6147 30.6788 31.0081 30.4058C33.026 30.1756 34.1442 29.1683 34.5475 27.1899C34.7491 26.2011 34.8331 25.198 34.8978 24.1932C35.0935 21.1571 35.0532 18.1285 34.6004 15.1143C34.2862 13.0207 33.1756 11.9387 31.1005 11.664C28.9053 11.3733 26.695 11.3296 24.4881 11.2767C21.9006 11.2145 19.3122 11.2153 16.7247 11.2985C14.7547 11.3615 12.7838 11.4178 10.8255 11.6732C9.02436 11.9084 7.90535 12.9199 7.52562 14.6925C7.26435 15.9132 7.17446 17.1549 7.11313 18.3982C6.96948 21.3234 6.99636 24.2428 7.47942 27.1411C7.76925 28.8818 8.79333 29.9782 10.4038 30.2982C10.8558 30.3881 11.3153 30.4453 11.7749 30.4856C14.8421 30.7578 17.9185 30.783 20.995 30.7847L20.9941 30.7855Z" fill="white"/>
<path d="M18.2358 25.2307V16.818C20.6696 18.2235 23.058 19.6021 25.5212 21.0235C23.0673 22.4408 20.6738 23.8227 18.2358 25.2307Z" fill="white"/>
</g>
<defs>
<clipPath id="clip0_4619_562">
<rect width="42" height="42" fill="white"/>
</clipPath>
</defs>
</svg>
