<svg width="45" height="40" viewBox="0 0 45 40" fill="none" xmlns="http://www.w3.org/2000/svg">
<g clip-path="url(#clip0_4527_5851)">
<path d="M26.4134 40.0001C25.7426 40.0001 25.0939 39.7691 24.5607 39.3248C23.841 38.725 23.4411 37.8053 23.49 36.8589C23.6944 32.9358 24.894 25.5249 30.652 19.9357C34.2331 16.4568 38.2095 15.0662 40.9108 14.5064C41.7861 14.3242 42.6791 14.5508 43.3678 15.1284C44.0698 15.7148 44.4608 16.5857 44.4341 17.5142C44.3541 20.5266 43.7232 25.0495 41.1685 29.4792C37.0588 36.6101 30.5943 39.0804 27.1065 39.9201C26.8755 39.9734 26.6445 40.0001 26.4179 40.0001H26.4134ZM40.8486 18.1674C38.6627 18.7272 35.7659 19.9223 33.1268 22.4859C28.5994 26.88 27.3865 32.7092 27.0932 36.2458C30.1366 35.3661 34.9439 33.1624 38.0896 27.702C40.0711 24.2631 40.6976 20.7354 40.8486 18.1674Z" fill="white"/>
<path d="M22.0815 14.7195C18.0251 14.7195 14.724 11.4184 14.724 7.36199C14.724 3.30556 18.0207 0 22.0815 0C26.1424 0 29.4435 3.30112 29.4435 7.36199C29.4435 11.4229 26.1424 14.7195 22.0815 14.7195ZM22.0815 3.55437C19.9845 3.55437 18.2784 5.26047 18.2784 7.36199C18.2784 9.46351 19.9845 11.1652 22.0815 11.1652C24.1786 11.1652 25.8892 9.45907 25.8892 7.36199C25.8892 5.26491 24.1831 3.55437 22.0815 3.55437Z" fill="white"/>
<path d="M18.0162 40C17.7896 40 17.5586 39.9733 17.3275 39.92C13.8398 39.0803 7.37531 36.61 3.26557 29.479C0.710866 25.0449 0.0799652 20.5265 -8.15117e-06 17.5141C-0.022223 16.5855 0.364315 15.7192 1.0663 15.1283C1.75496 14.5551 2.648 14.3285 3.52326 14.5062C6.22458 15.0616 10.1966 16.4567 13.7821 19.9311C19.5401 25.5203 20.7397 32.9312 20.9441 36.8543C20.993 37.8007 20.5931 38.7248 19.8734 39.3202C19.3402 39.7645 18.6871 39.9955 18.0207 39.9955L18.0162 40ZM3.58546 18.1672C3.73652 20.7353 4.36298 24.263 6.34454 27.7018C9.49016 33.1622 14.2974 35.366 17.3409 36.2457C17.0476 32.7091 15.8347 26.8799 11.3073 22.4858C8.66821 19.9222 5.7714 18.7271 3.58546 18.1672Z" fill="white"/>
</g>
<defs>
<clipPath id="clip0_4527_5851">
<rect width="44.4341" height="40" fill="white"/>
</clipPath>
</defs>
</svg>
