<svg width="38" height="40" viewBox="0 0 38 40" fill="none" xmlns="http://www.w3.org/2000/svg">
<g clip-path="url(#clip0_4527_5887)">
<path d="M20.7696 39.6791H17.272V32.055C17.272 31.2625 17.5667 30.5027 18.0645 29.9591L20.3373 26.1471L13.5123 20.953C12.6281 20.3897 12.1303 19.3483 12.2024 18.2021C12.2744 17.0755 12.8901 16.1323 13.8267 15.7L20.9399 11.9011L22.5905 14.9861L16.0471 18.4837L22.6822 23.5337C23.4223 24.0118 23.9004 24.8436 23.9856 25.7934C24.0642 26.6973 23.776 27.5618 23.1996 28.1775L20.763 32.2384V39.6922L20.7696 39.6791Z" fill="white"/>
<path d="M29.8346 40H26.5597V32.1533L27.2933 31.6686C31.6358 28.7866 34.2296 23.9594 34.2296 18.7588C34.2296 10.2243 27.2867 3.28148 18.7523 3.28148C10.2178 3.28148 3.27493 10.2178 3.27493 18.7523C3.27493 24.2279 6.07827 29.1862 10.7745 32.0157L11.5671 32.4939V40H8.29212V34.3213C3.07843 30.8236 0 25.0729 0 18.7523C0 8.41002 8.41002 0 18.7523 0C29.0945 0 37.5045 8.41002 37.5045 18.7523C37.5045 24.7585 34.6553 30.3521 29.8346 33.8824V40Z" fill="white"/>
</g>
<defs>
<clipPath id="clip0_4527_5887">
<rect width="37.5045" height="40" fill="white"/>
</clipPath>
</defs>
</svg>
