<svg width="41" height="40" viewBox="0 0 41 40" fill="none" xmlns="http://www.w3.org/2000/svg">
<g clip-path="url(#clip0_4527_5442)">
<path d="M19.0898 20.9521C13.3124 20.9521 8.61377 16.2535 8.61377 10.476C8.61377 4.69861 13.3124 0 19.0898 0C24.8672 0 29.5659 4.69861 29.5659 10.476C29.5659 16.2535 24.8672 20.9521 19.0898 20.9521ZM19.0898 3.14218C15.0469 3.14218 11.756 6.4331 11.756 10.476C11.756 14.519 15.0469 17.8099 19.0898 17.8099C23.1328 17.8099 26.4237 14.519 26.4237 10.476C26.4237 6.4331 23.1328 3.14218 19.0898 3.14218Z" fill="white"/>
<path d="M30.2991 40.0001C24.8694 40.0001 20.4536 35.5843 20.4536 30.1546C20.4536 24.7249 24.8715 20.3091 30.2991 20.3091C35.7267 20.3091 40.1446 24.727 40.1446 30.1546C40.1446 35.5822 35.7267 40.0001 30.2991 40.0001ZM30.2991 23.4513C26.6018 23.4513 23.5957 26.4594 23.5957 30.1546C23.5957 33.8498 26.6039 36.8579 30.2991 36.8579C33.9943 36.8579 37.0024 33.8498 37.0024 30.1546C37.0024 26.4594 33.9943 23.4513 30.2991 23.4513Z" fill="white"/>
<path d="M7.70464 36.7573C3.4564 36.7573 0 33.3009 0 29.0527C0 24.8044 3.4564 21.3459 7.70464 21.3459C11.9529 21.3459 15.4093 24.8023 15.4093 29.0527C15.4093 33.303 11.9529 36.7573 7.70464 36.7573ZM7.70464 24.4881C5.18879 24.4881 3.14218 26.5347 3.14218 29.0527C3.14218 31.5706 5.18879 33.6151 7.70464 33.6151C10.2205 33.6151 12.2671 31.5685 12.2671 29.0527C12.2671 26.5368 10.2205 24.4881 7.70464 24.4881Z" fill="white"/>
<path d="M12.3544 16.9547L9.43384 23.1555L12.2765 24.4944L15.197 18.2936L12.3544 16.9547Z" fill="white"/>
<path d="M25.3199 17.5403L22.6226 19.1521L25.8966 24.6313L28.5939 23.0195L25.3199 17.5403Z" fill="white"/>
<path d="M23.174 27.0388L13.7662 27.4824L13.9143 30.6211L23.322 30.1775L23.174 27.0388Z" fill="white"/>
</g>
<defs>
<clipPath id="clip0_4527_5442">
<rect width="40.1445" height="40" fill="white"/>
</clipPath>
</defs>
</svg>
