<svg width="42" height="40" viewBox="0 0 42 40" fill="none" xmlns="http://www.w3.org/2000/svg">
<path d="M30.9211 39.3873C30.4807 39.3873 30.0315 39.2805 29.6263 39.0491L20.3782 33.959C20.3782 33.959 20.3341 33.9501 20.3165 33.959L10.9274 38.7733C10.0026 39.2449 8.91045 39.1559 8.08252 38.5241C7.25459 37.8923 6.84943 36.86 7.0432 35.8367L8.97211 25.3717L1.52073 17.7721C0.789683 17.0335 0.543066 15.9479 0.877762 14.9601C1.21246 13.9635 2.05801 13.2605 3.08852 13.127L13.5345 11.7477L18.3788 2.23487C18.8456 1.3094 19.7704 0.748779 20.7921 0.748779H20.8362C21.8755 0.766577 22.8003 1.36279 23.2407 2.30607L27.7679 11.9167L38.2139 13.6342C39.2356 13.8033 40.0636 14.5241 40.3718 15.5296C40.6801 16.5352 40.3983 17.6031 39.6496 18.3239L32.0044 25.6387L33.6163 36.2104C33.7748 37.2516 33.352 38.266 32.4977 38.8711C32.0309 39.2093 31.4848 39.3784 30.9387 39.3784L30.9211 39.3873ZM20.3341 31.2894C20.7833 31.2894 21.2237 31.3962 21.6289 31.6186L30.877 36.7087L32.2775 36.4329L30.9739 36.6375L29.3445 26.1281C29.2036 25.2382 29.5118 24.3394 30.1548 23.7165L37.8 16.4017L37.7647 16.286L27.3627 14.6042C26.482 14.4618 25.7245 13.8923 25.3458 13.0736L20.8186 3.46291L19.5238 2.84889L20.7041 3.45401L15.9038 12.9312C15.4987 13.7321 14.7236 14.2838 13.8428 14.3995L3.39679 15.7788L2.41912 16.8378L3.35275 15.8945L10.7865 23.4318C11.4119 24.0725 11.6937 24.9801 11.5352 25.8611L9.60627 36.3261L9.70315 36.3973L19.0922 31.583C19.4798 31.3873 19.9026 31.2894 20.3165 31.2894H20.3341Z" fill="white"/>
<path d="M31.3441 40C30.9037 40 30.4545 39.8932 30.0493 39.6618L20.3608 34.3404L10.4608 39.386C9.53602 39.8576 8.44385 39.7686 7.61592 39.1368C6.78799 38.505 6.38283 37.4727 6.5766 36.4405L8.59359 25.4861L0.789894 17.5306C0.0588484 16.792 -0.187769 15.7063 0.146927 14.7186C0.481622 13.7219 1.32717 13.0189 2.35768 12.8854L13.2969 11.4438L18.3702 1.4861C18.8458 0.551724 19.8235 0 20.8188 0C21.8581 0.0177976 22.7829 0.614016 23.2233 1.55729L27.9619 11.6218L38.9011 13.4194C39.9316 13.5884 40.7508 14.3092 41.059 15.3148C41.3673 16.3204 41.0855 17.3882 40.3368 18.109L32.3305 25.7709L34.0216 36.8409C34.1802 37.8821 33.7574 38.8965 32.903 39.5017C32.4362 39.8398 31.8902 40 31.3441 40ZM21.6379 31.2436L30.4545 36.0934L31.1767 35.9511V35.9244L30.5514 36.0222L28.9924 26.0022C28.8515 25.1123 29.1597 24.2136 29.8027 23.5907L37.0867 16.614L37.1836 15.8398H37.1572L37.0515 16.4983L27.1428 14.8966C26.262 14.7542 25.5045 14.1846 25.1258 13.366L20.81 4.20912H20.6867L16.1154 13.2325C15.7103 14.0334 14.9352 14.5851 14.0544 14.7008L4.10162 16.0178L3.58196 16.5873L3.59957 16.6051L4.06638 16.1335L11.1566 23.3148C11.782 23.9555 12.0638 24.8632 11.9053 25.7442L10.0645 35.7108L10.1614 35.782L19.1101 31.1902C19.9028 30.7809 20.8452 30.7987 21.6291 31.2258L21.6379 31.2436Z" fill="white"/>
</svg>
