<svg width="46" height="40" viewBox="0 0 46 40" fill="none" xmlns="http://www.w3.org/2000/svg">
<g clip-path="url(#clip0_4527_5861)">
<path d="M26.8762 39.8245C26.2827 39.8245 25.7103 39.6173 25.2397 39.2275C24.5935 38.6901 24.2458 37.893 24.288 37.0396C24.4917 33.0747 25.7033 25.5839 31.5119 19.9474C35.1185 16.4496 39.115 15.0448 41.8332 14.4865C42.6058 14.3284 43.396 14.5286 44 15.0343C44.6216 15.5541 44.9658 16.3267 44.9447 17.1484C44.8639 20.1932 44.2283 24.7586 41.6506 29.2327C37.5101 36.418 30.9921 38.9079 27.4767 39.7542C27.273 39.8034 27.0694 39.828 26.8692 39.828L26.8762 39.8245ZM42.1352 17.2924C39.7928 17.8122 36.4741 19.0484 33.4715 21.9597C28.4636 26.8201 27.3257 33.3416 27.108 36.9483C30.2406 36.1476 35.712 33.914 39.2239 27.828C41.4469 23.9685 42.0404 20.0071 42.1387 17.2924H42.1352Z" fill="white"/>
<path d="M26.8762 40.0001C26.2441 40.0001 25.6225 39.7753 25.1273 39.3609C24.4354 38.785 24.0667 37.9351 24.1159 37.0291C24.3231 33.0396 25.5417 25.4961 31.3924 19.8175C35.0272 16.2881 39.0588 14.8728 41.8016 14.3109C42.6268 14.1388 43.4697 14.3565 44.1194 14.8974C44.7831 15.4522 45.1519 16.274 45.1273 17.152C45.0465 20.2178 44.4074 24.8148 41.8086 29.3205C37.633 36.562 31.0658 39.073 27.5259 39.9228C27.3117 39.9755 27.0939 40.0001 26.8762 40.0001ZM42.3564 14.6059C42.1949 14.6059 42.0333 14.6234 41.8718 14.655C39.1747 15.2099 35.2098 16.6006 31.6347 20.0703C25.8683 25.6647 24.6672 33.1063 24.4635 37.0466C24.4214 37.8438 24.7445 38.5883 25.352 39.0905C25.9385 39.5787 26.7006 39.7578 27.4451 39.5787C30.9324 38.7393 37.3977 36.2705 41.5066 29.1414C44.0667 24.6989 44.6988 20.1616 44.7796 17.1379C44.8007 16.3688 44.4776 15.6489 43.8981 15.1608C43.4592 14.7955 42.9183 14.5989 42.3635 14.5989L42.3564 14.6059ZM26.9183 37.1801L26.9324 36.9413C27.1466 33.4189 28.2634 26.7709 33.3485 21.8368C36.4074 18.8658 39.7963 17.6331 42.0966 17.1239L42.3178 17.0747L42.3108 17.303C42.216 19.986 41.6295 24.0071 39.3749 27.9228C35.7998 34.1212 30.1844 36.3513 27.1536 37.1274L26.9183 37.1871V37.1801ZM41.9491 17.5172C39.698 18.0475 36.4951 19.2731 33.5908 22.0896C28.7059 26.8306 27.5434 33.1941 27.2976 36.72C30.3213 35.9053 35.6488 33.6752 39.0693 27.7437C41.2256 24.0001 41.8332 20.1581 41.9526 17.5172H41.9491Z" fill="white"/>
<path d="M26.5637 28.3442C26.0018 23.9262 24.0773 20.4109 22.511 18.1914C20.9588 20.0246 19.0624 23.0132 18.4338 27.1501L15.6559 26.7287C16.4109 21.7594 18.7463 18.2265 20.5725 16.1334C21.0922 15.5399 21.8438 15.2204 22.6304 15.259C23.4417 15.2976 24.1827 15.7015 24.6638 16.3723C26.4408 18.8446 28.6989 22.8657 29.3486 27.9895L26.5602 28.3442H26.5637Z" fill="white"/>
<path d="M26.4127 28.5408L26.3916 28.3652C25.8473 24.0807 24.0035 20.6532 22.5005 18.4793C21.029 20.2634 19.2169 23.1747 18.6093 27.1747L18.5812 27.3468L15.4557 26.8727L15.4838 26.7006C16.2459 21.6927 18.5988 18.1246 20.4425 16.0175C20.9974 15.3819 21.7946 15.0377 22.6409 15.0834C23.5049 15.1255 24.295 15.5575 24.8078 16.2669C26.5988 18.7568 28.8675 22.8059 29.5242 27.9648L29.5452 28.1404L26.4092 28.5408H26.4127ZM22.525 17.9034L22.655 18.0895C24.1826 20.2528 26.1177 23.7471 26.7147 28.1475L29.1519 27.8384C28.4776 22.834 26.2652 18.9043 24.5198 16.4741C24.0703 15.849 23.3784 15.4697 22.6199 15.4346C21.8824 15.4065 21.187 15.6979 20.7024 16.2493C18.9114 18.2967 16.6286 21.7454 15.8525 26.5812L18.2827 26.9499C18.95 22.8235 20.8675 19.8525 22.3705 18.0755L22.518 17.9034H22.525Z" fill="white"/>
<path d="M22.8095 11.8103C19.6031 11.8103 16.9938 9.201 16.9938 5.99468C16.9938 2.78836 19.5996 0.175537 22.8095 0.175537C26.0193 0.175537 28.6251 2.78484 28.6251 5.99116C28.6251 9.19749 26.0158 11.8068 22.8095 11.8068V11.8103ZM22.8095 2.98502C21.1519 2.98502 19.8033 4.33357 19.8033 5.99116C19.8033 7.64876 21.1519 8.99731 22.8095 8.99731C24.4671 8.99731 25.8156 7.64876 25.8156 5.99116C25.8156 4.33357 24.4671 2.98502 22.8095 2.98502Z" fill="white"/>
<path d="M22.8095 11.986C19.5048 11.986 16.8182 9.29587 16.8182 5.99473C16.8182 2.69359 19.5048 0 22.8095 0C26.1141 0 28.8007 2.69008 28.8007 5.99122C28.8007 9.29236 26.1106 11.9824 22.8095 11.9824V11.986ZM22.8095 0.351185C19.698 0.351185 17.1694 2.88323 17.1694 5.99122C17.1694 9.09921 19.7015 11.6313 22.8095 11.6313C25.9174 11.6313 28.4495 9.09921 28.4495 5.99122C28.4495 2.88323 25.9174 0.351185 22.8095 0.351185ZM22.8095 9.17647C21.0535 9.17647 19.6277 7.74715 19.6277 5.99473C19.6277 4.24232 21.057 2.81299 22.8095 2.81299C24.5619 2.81299 25.9912 4.24232 25.9912 5.99473C25.9912 7.74715 24.5619 9.17647 22.8095 9.17647ZM22.8095 3.16067C21.2467 3.16067 19.9789 4.43196 19.9789 5.99122C19.9789 7.55048 21.2502 8.82177 22.8095 8.82177C24.3687 8.82177 25.64 7.55048 25.64 5.99122C25.64 4.43196 24.3687 3.16067 22.8095 3.16067Z" fill="white"/>
<path d="M18.2511 39.8244C18.0509 39.8244 17.8472 39.7998 17.6436 39.7507C14.1282 38.9043 7.6137 36.4144 3.46971 29.2291C0.892014 24.7586 0.256369 20.1896 0.175596 17.1484C0.154525 16.3266 0.498687 15.554 1.1238 15.0342C1.73135 14.525 2.52151 14.3284 3.29061 14.4864C6.00878 15.0448 10.0088 16.4495 13.6119 19.9473C19.4205 25.5838 20.6321 33.0746 20.8358 37.0395C20.878 37.8929 20.5338 38.6901 19.8841 39.2274C19.4135 39.6172 18.8376 39.8244 18.2476 39.8244H18.2511ZM2.9921 17.2924C3.08692 20.007 3.68042 23.9684 5.90694 27.8279C9.41528 33.9175 14.8903 36.1475 18.0228 36.9517C17.8051 33.345 16.6708 26.8235 11.6594 21.9631C8.65672 19.0483 5.33802 17.8156 2.99561 17.2959L2.9921 17.2924Z" fill="white"/>
<path d="M18.2511 39.9999C18.0369 39.9999 17.8191 39.9753 17.6049 39.9226C14.0615 39.0728 7.4943 36.5618 3.31871 29.3203C0.723451 24.8146 0.0807819 20.2176 9.29728e-06 17.1518C-0.0210618 16.2738 0.344171 15.452 1.00791 14.8972C1.65409 14.3563 2.50045 14.1421 3.32573 14.3107C6.06849 14.8761 10.1001 16.2879 13.7349 19.8173C19.5856 25.4959 20.8042 33.0359 21.0114 37.0253C21.0571 37.9349 20.6883 38.7848 20 39.3572C19.5048 39.7681 18.8832 39.9964 18.2511 39.9964V39.9999ZM2.77086 14.6057C2.21599 14.6057 1.67516 14.7988 1.23618 15.1676C0.653214 15.6522 0.333635 16.3757 0.351195 17.1447C0.431967 20.1685 1.0641 24.7058 3.62424 29.1483C7.73311 36.2773 14.1984 38.7497 17.6857 39.5855C18.4267 39.7646 19.1923 39.5855 19.7753 39.0973C20.3793 38.5951 20.7024 37.8506 20.6637 37.0534C20.4601 33.1167 19.2555 25.6715 13.4925 20.0771C9.91748 16.6074 5.9526 15.2167 3.2555 14.6619C3.09395 14.6303 2.92889 14.6127 2.76735 14.6127L2.77086 14.6057ZM18.209 37.1799L17.9737 37.1202C14.9429 36.344 9.32398 34.1175 5.75242 27.9156C3.49781 23.9999 2.91133 19.9823 2.81651 17.2993L2.80949 17.071L3.03074 17.1202C5.33451 17.6329 8.71994 18.8656 11.7823 21.8331C16.8674 26.7672 17.9842 33.4152 18.1984 36.9375L18.2125 37.1764L18.209 37.1799ZM3.17472 17.517C3.29413 20.1579 3.89817 23.9999 6.05795 27.7435C9.4785 33.675 14.8025 35.9051 17.8297 36.7233C17.5839 33.1974 16.4214 26.8339 11.5364 22.0929C8.63214 19.2764 5.42933 18.0508 3.17824 17.5205L3.17472 17.517Z" fill="white"/>
</g>
<defs>
<clipPath id="clip0_4527_5861">
<rect width="45.1273" height="40" fill="white"/>
</clipPath>
</defs>
</svg>
