<svg width="40" height="40" viewBox="0 0 40 40" fill="none" xmlns="http://www.w3.org/2000/svg">
<g clip-path="url(#clip0_4527_5829)">
<path d="M0.397375 20.0296C0.397375 14.9701 0.389506 9.91061 0.397375 4.85111C0.405245 1.9476 1.9319 0.409288 4.81209 0.40142C9.76192 0.385683 14.7157 0.393551 19.6655 0.40142C22.7739 0.40142 24.9852 1.82564 26.1105 4.72128C26.4214 5.52387 26.8384 5.64584 27.5506 5.63403C29.3448 5.60649 31.143 5.59469 32.9372 5.63403C35.3295 5.68518 36.9112 7.25496 36.9703 9.63521C37.0135 11.3742 37.0175 13.1171 36.9663 14.856C36.9427 15.7058 37.0922 16.1543 38.0916 16.0993C39.1894 16.0402 39.5986 16.7524 39.5947 17.7831C39.5829 20.9935 39.5829 24.2039 39.5947 27.4143C39.5986 28.5474 39.1107 29.2044 37.9461 29.1297C37.108 29.0785 36.9506 29.4523 36.9663 30.1801C37.0057 31.9191 37.0017 33.662 36.9703 35.4009C36.927 37.9779 35.361 39.5792 32.7838 39.587C23.372 39.6067 13.9563 39.6106 4.54453 39.587C1.97912 39.5792 0.405245 37.9661 0.393441 35.3734C0.369833 30.2588 0.385571 25.1442 0.385571 20.0296H0.397375ZM18.3395 8.24641C13.7714 8.24641 9.2032 8.28575 4.63503 8.21887C3.41528 8.1992 2.97459 8.44312 2.9864 9.79259C3.05329 18.1097 3.01787 26.4307 3.02181 34.7518C3.02181 36.7386 3.26969 36.9746 5.3118 36.9746C13.6848 36.9786 22.0617 36.9668 30.4348 36.9825C34.5662 36.9904 34.4285 37.2304 34.3498 33.1269C34.3262 31.8443 34.9439 30.1486 34.0625 29.3972C33.3267 28.7677 31.686 29.1926 30.4466 29.1533C30.3364 29.1533 30.2302 29.1533 30.12 29.1454C26.626 28.9447 23.911 26.0806 23.9189 22.6066C23.9268 19.1287 26.6496 16.2724 30.1475 16.0993C31.1233 16.0521 32.1109 16.0284 33.0828 16.0993C34.0468 16.1701 34.456 15.9104 34.3891 14.856C34.2986 13.3925 34.3734 11.921 34.3655 10.4535C34.3537 8.53361 34.0979 8.26608 32.2093 8.26215C27.586 8.25428 22.9628 8.26215 18.3435 8.26215L18.3395 8.24641ZM36.9781 22.6499C36.9781 21.7292 36.927 20.8008 36.9939 19.8841C37.0608 18.9831 36.7775 18.6369 35.8253 18.6762C34.0389 18.747 32.2447 18.6566 30.4584 18.7077C28.1959 18.7746 26.5237 20.4978 26.5473 22.6499C26.5709 24.739 28.1999 26.3993 30.3797 26.5094C31.3004 26.5566 32.225 26.5212 33.1457 26.5212C35.7033 26.5212 36.9821 25.2308 36.9821 22.6499H36.9781ZM23.6671 5.62223C22.7503 3.74951 21.444 3.02166 19.6695 3.02166C14.7786 3.02166 9.89177 3.02166 5.00096 3.02166C4.67438 3.02166 4.33206 2.99412 4.02909 3.08461C3.12805 3.35608 3.01394 4.07999 3.01394 4.89832C3.01787 5.94484 3.79301 5.60649 4.29271 5.60649C10.6472 5.62617 17.0017 5.6183 23.6632 5.6183L23.6671 5.62223Z" fill="white"/>
<path d="M18.6822 40C13.8779 40 9.15632 39.9961 4.55668 39.9843C1.76699 39.9764 0.0239232 38.2138 0.0121192 35.3772C-0.00361957 31.7694 0.000315117 28.1027 0.000315117 24.5539C0.000315117 23.0471 0.000315117 21.5363 0.000315117 20.0295V15.6152C0.000315117 12.0271 0.000315117 8.43907 0.00818448 4.85099C0.0160539 1.73896 1.72371 0.0196715 4.81637 0.00786859C8.90057 0 12.9808 0 17.0611 0H19.6698C22.9671 0.0039343 25.32 1.58552 26.4807 4.57165C26.709 5.15786 26.9254 5.24048 27.551 5.23655C29.0304 5.21294 30.982 5.19327 32.9533 5.23655C35.5738 5.29556 37.3051 7.01485 37.3719 9.62329C37.4192 11.4331 37.4152 13.1996 37.368 14.8677C37.3601 15.1274 37.368 15.4854 37.49 15.6034C37.5765 15.686 37.7812 15.7215 38.0802 15.7057C38.6468 15.6703 39.1032 15.8198 39.4337 16.1346C39.8115 16.4926 40.0003 17.0473 39.9964 17.787C39.9846 21.4734 39.9846 24.5343 39.9964 27.4142C39.9964 28.1578 39.8075 28.7164 39.4219 29.0784C39.0639 29.4167 38.5602 29.5662 37.9267 29.5269C37.6946 29.5112 37.5254 29.5387 37.4624 29.5977C37.3916 29.6646 37.3601 29.8613 37.368 30.1761C37.4034 31.7773 37.4034 33.4887 37.3719 35.4126C37.3247 38.2256 35.5738 39.9764 32.792 39.9843C28.031 39.9961 23.3133 40 18.6743 40H18.6822ZM11.2614 0.786859C9.11304 0.786859 6.96471 0.786859 4.81637 0.794728C2.15259 0.802597 0.799056 2.1678 0.795121 4.85099C0.787252 8.43907 0.787252 12.0271 0.791187 15.6113V20.0256C0.791187 21.5324 0.791187 23.0432 0.791187 24.55C0.791187 28.0948 0.783317 31.7616 0.802991 35.3654C0.814795 37.7535 2.21948 39.1817 4.56455 39.1895C13.6065 39.2131 23.1048 39.2131 32.7998 39.1895C35.137 39.1856 36.5535 37.7653 36.5929 35.3929C36.6244 33.4769 36.6204 31.7734 36.5889 30.1839C36.5811 29.7787 36.6126 29.3223 36.9273 29.0194C37.2382 28.7204 37.6789 28.7086 37.9858 28.7282C38.391 28.7518 38.6979 28.6732 38.8907 28.4922C39.1111 28.2876 39.2173 27.9217 39.2173 27.4063C39.2055 24.5264 39.2055 21.4655 39.2173 17.7752C39.2173 17.4211 39.1622 16.949 38.8986 16.6972C38.7294 16.5359 38.4776 16.465 38.1274 16.4847C37.5805 16.5162 37.2028 16.41 36.9431 16.1582C36.6047 15.8277 36.5732 15.328 36.585 14.8362C36.6322 13.1838 36.6362 11.4331 36.5889 9.63509C36.5339 7.45156 35.1331 6.06669 32.9376 6.01554C30.982 5.97226 29.0383 5.99193 27.5667 6.01554C26.7247 6.03128 26.1345 5.8385 25.7528 4.85099C24.7062 2.15206 22.6602 0.786859 19.6737 0.782925H17.065C15.1331 0.782925 13.1972 0.778991 11.2653 0.778991L11.2614 0.786859ZM31.6942 37.3758C31.5053 37.3758 31.3007 37.3758 31.0883 37.3758H30.439C25.2689 37.364 20.0987 37.364 14.9285 37.368C11.7257 37.368 8.51891 37.368 5.31607 37.368C3.0615 37.368 2.63262 36.9509 2.63262 34.7516C2.63262 32.3517 2.63262 29.9557 2.63262 27.5558C2.63655 21.7331 2.64049 15.7175 2.59327 9.7964C2.5854 9.03708 2.72312 8.56103 3.03396 8.25022C3.40382 7.88433 3.94287 7.81745 4.64324 7.82532C7.96412 7.87253 11.3479 7.86466 14.6137 7.85679C15.8571 7.85679 17.0965 7.85286 18.3399 7.85286H22.3729C25.6505 7.85286 28.9281 7.84892 32.2057 7.85286C34.3147 7.85679 34.7436 8.2935 34.7554 10.4377C34.7554 10.9334 34.7554 11.4291 34.7436 11.9249C34.7318 12.877 34.716 13.8605 34.779 14.8205C34.8026 15.2139 34.7947 15.7805 34.4249 16.1464C34.0589 16.5083 33.5002 16.5162 33.0517 16.4847C32.0404 16.41 31.0253 16.4414 30.1636 16.4847C26.886 16.646 24.3167 19.3292 24.3088 22.5986C24.3009 25.8562 26.8624 28.5551 30.14 28.744C30.199 28.744 30.262 28.7479 30.3249 28.7479H30.4587C30.8207 28.7636 31.2338 28.7322 31.6352 28.7007C32.6425 28.6259 33.6851 28.5473 34.3186 29.0902C35.0938 29.7551 34.96 30.8646 34.8341 31.9386C34.7829 32.3596 34.7357 32.757 34.7436 33.115L34.7514 33.5123C34.7908 35.3693 34.8065 36.3018 34.2714 36.8486C33.8071 37.3207 33.0635 37.3758 31.6942 37.3758ZM20.5905 36.5772C23.876 36.5772 27.1575 36.5772 30.439 36.585H31.0922C32.5402 36.5929 33.4137 36.6008 33.7127 36.2978C34.0196 35.987 33.9999 35.0625 33.9684 33.5281L33.9606 33.1268C33.9527 32.7137 34.0039 32.273 34.055 31.8442C34.1652 30.9354 34.2675 30.0777 33.8111 29.6882C33.4255 29.3577 32.548 29.4207 31.6942 29.4876C31.2732 29.519 30.8364 29.5505 30.4351 29.5387H30.3171C30.2462 29.5387 30.1715 29.5348 30.1006 29.5308C26.406 29.3184 23.5179 26.2732 23.5258 22.5986C23.5337 18.9082 26.4335 15.8788 30.1282 15.6978C31.0135 15.6546 32.0601 15.6231 33.1107 15.6978C33.512 15.7293 33.7678 15.69 33.8701 15.5838C33.9724 15.4815 34.0157 15.2336 33.9921 14.8677C33.9291 13.8802 33.9448 12.8809 33.9566 11.9131C33.9645 11.4213 33.9684 10.9334 33.9684 10.4416C33.9566 8.72627 33.874 8.64365 32.2057 8.63972C28.9281 8.63185 25.6505 8.63578 22.3729 8.63972H18.3399C17.1005 8.63972 15.8571 8.64365 14.6177 8.64758C11.344 8.65545 7.96018 8.66332 4.63144 8.61611C4.04911 8.60824 3.73433 8.66726 3.58875 8.81283C3.44316 8.9584 3.37627 9.27707 3.38021 9.79247C3.42742 15.7136 3.42349 21.737 3.41956 27.5598C3.41956 29.9597 3.41956 32.3557 3.41956 34.7556C3.41956 36.5142 3.49038 36.585 5.31607 36.585C8.51891 36.585 11.7257 36.585 14.9285 36.585C16.8172 36.585 18.7019 36.585 20.5905 36.585V36.5772ZM31.5053 26.9303C31.1237 26.9303 30.7381 26.9263 30.3564 26.9067C27.9838 26.7847 26.1738 24.9592 26.1502 22.6576C26.1227 20.2577 27.972 18.3928 30.4469 18.3181C31.2968 18.2945 32.1585 18.2984 32.9926 18.3063C33.9173 18.3142 34.8734 18.322 35.8099 18.2866C36.1837 18.2709 36.7227 18.2945 37.065 18.6486C37.4034 18.9987 37.4152 19.5102 37.3838 19.9154C37.3365 20.537 37.3483 21.1783 37.3601 21.7999C37.3641 22.0832 37.368 22.3665 37.368 22.6497C37.368 24.6917 37.368 25.7185 36.7739 26.3165C36.1797 26.9185 35.1528 26.9224 33.1382 26.9185C32.8667 26.9185 32.5952 26.9185 32.3237 26.9224C32.0523 26.9224 31.7768 26.9303 31.5014 26.9303H31.5053ZM31.8083 19.0853C31.3637 19.0853 30.9151 19.0853 30.4705 19.101C28.4363 19.16 26.9175 20.6826 26.9411 22.6458C26.9608 24.5264 28.4481 26.0175 30.3997 26.1159C31.0371 26.1473 31.6903 26.1395 32.3198 26.1355C32.6464 26.1355 32.9808 26.1277 33.3035 26.1277C34.9521 26.1277 35.8689 26.1159 36.223 25.7618C36.5889 25.392 36.5889 24.4162 36.5889 22.6497C36.5889 22.3704 36.585 22.0911 36.5811 21.8117C36.5693 21.1705 36.5575 20.5095 36.6047 19.8564C36.6283 19.5102 36.5968 19.2899 36.5063 19.1954C36.4158 19.101 36.1876 19.0577 35.8453 19.0695C34.8931 19.1089 33.9252 19.0971 32.9926 19.0931C32.6031 19.0931 32.2096 19.0853 31.8122 19.0853H31.8083ZM3.64383 6.05488C3.40775 6.05488 3.15987 6.00767 2.95526 5.82669C2.73099 5.62998 2.62081 5.32704 2.62081 4.90213C2.62081 4.31592 2.61295 3.10023 3.91533 2.71073C4.2183 2.62024 4.53701 2.62418 4.8203 2.62811H4.99736C7.7359 2.62811 10.4744 2.62811 13.213 2.62811H19.6659C21.6922 2.62811 23.0772 3.52513 24.0176 5.449L24.2931 6.01554H19.5793C14.3816 6.01554 9.33732 6.01554 4.29306 6.00374C4.21043 6.00374 4.11993 6.01554 4.02943 6.02734C3.91533 6.04308 3.78155 6.05488 3.64383 6.05488ZM4.63537 3.41497C4.45438 3.41497 4.28519 3.42284 4.14354 3.46612C3.58481 3.63529 3.40775 3.98151 3.41169 4.90213C3.41169 5.12246 3.45497 5.22081 3.48251 5.24048C3.54153 5.29163 3.78942 5.26409 3.93893 5.24442C4.06484 5.22868 4.19862 5.21294 4.30092 5.21688C9.34519 5.23262 14.3895 5.23262 19.5872 5.23262H23.0025C22.2234 3.98151 21.1728 3.41497 19.6698 3.41497H13.2169C10.4784 3.41497 7.73984 3.41497 5.00523 3.41497H4.81637C4.75735 3.41497 4.69833 3.41497 4.63931 3.41497H4.63537Z" fill="white"/>
</g>
<defs>
<clipPath id="clip0_4527_5829">
<rect width="40" height="40" fill="white"/>
</clipPath>
</defs>
</svg>
