<svg width="40" height="40" viewBox="0 0 40 40" fill="none" xmlns="http://www.w3.org/2000/svg">
<g clip-path="url(#clip0_4527_5880)">
<path d="M29.9345 39.9996H10.0666C8.36092 39.9996 6.85941 38.8659 6.33088 37.1779L0.192747 17.5093C-0.335781 15.8212 0.236791 13.9832 1.61817 12.9412L17.6942 0.783203C19.0756 -0.258789 20.9295 -0.258789 22.3109 0.783203L38.3829 12.9412C39.7643 13.9832 40.3369 15.8212 39.8084 17.5093L33.6702 37.1779C33.1417 38.8659 31.6442 39.9996 29.9345 39.9996ZM19.3399 3.14227L3.26782 15.3002C2.87143 15.6003 2.70726 16.1255 2.85941 16.609L8.99755 36.2776C9.1497 36.7611 9.57813 37.0862 10.0666 37.0862H29.9345C30.423 37.0862 30.8514 36.7611 31.0036 36.2776L37.1417 16.609C37.2938 16.1255 37.1297 15.6003 36.7333 15.3002L20.6612 3.14227C20.2648 2.84635 19.7363 2.84635 19.3399 3.14227Z" fill="white"/>
<path d="M24.3804 33.0354H15.6237C13.9179 33.0354 12.4164 31.9017 11.8879 30.2095L9.18121 21.5402C8.65268 19.8521 9.22526 18.0141 10.6066 16.9721L17.6937 11.6121C19.0751 10.5701 20.929 10.5701 22.3103 11.6121L29.3974 16.9721C30.7788 18.0182 31.3514 19.8521 30.8229 21.5402L28.1161 30.2095C27.5876 31.8976 26.0901 33.0354 24.3804 33.0354ZM19.3394 13.9753L12.2523 19.3353C11.8559 19.6354 11.6917 20.1606 11.8439 20.644L14.5506 29.3134C14.7027 29.7969 15.1312 30.122 15.6196 30.122H24.3764C24.8649 30.122 25.2933 29.7969 25.4455 29.3134L28.1522 20.644C28.3043 20.1606 28.1402 19.6354 27.7438 19.3353L20.6607 13.9753C20.2643 13.6752 19.7358 13.6752 19.3394 13.9753Z" fill="white"/>
<path d="M21.4014 0.842041H18.5986V11.6704H21.4014V0.842041Z" fill="white"/>
<path d="M1.5152 13.9025L0.405212 16.5815L9.3909 20.6157L10.5009 17.9366L1.5152 13.9025Z" fill="white"/>
<path d="M38.4867 13.9087L29.5004 17.9412L30.6099 20.6204L39.5963 16.5879L38.4867 13.9087Z" fill="white"/>
</g>
<defs>
<clipPath id="clip0_4527_5880">
<rect width="40" height="40" fill="white"/>
</clipPath>
</defs>
</svg>
