<svg width="49" height="38" viewBox="0 0 49 38" fill="none" xmlns="http://www.w3.org/2000/svg">
<g clip-path="url(#clip0_4527_5875)">
<path d="M38.1349 24.1175C37.12 24.1175 36.1085 23.7451 35.2827 23.0076L21.4346 10.6398L30.1804 2.76573C34.5224 -1.14598 41.0938 -0.878449 45.1399 3.36948C47.0803 5.40849 48.2226 8.11993 48.3533 11.0013C48.5254 14.7756 46.8395 18.4307 43.8462 20.777L40.7738 23.1883C39.9859 23.8065 39.057 24.1138 38.1349 24.1138V24.1175ZM26.733 10.6289L37.5088 20.2527C37.8563 20.56 38.3517 20.5781 38.7129 20.2925L41.7853 17.8811C43.86 16.2543 45.0298 13.7453 44.9128 11.1748C44.8233 9.19367 44.0389 7.33181 42.7005 5.92909C39.9206 3.00796 35.3997 2.82358 32.4133 5.51333L26.7296 10.6289H26.733Z" fill="white"/>
<path d="M24.8269 38H23.547L23.0619 37.5734L12.7231 28.4232L14.9388 25.6575L24.1457 33.8063L33.325 25.2815L35.6027 27.9929L24.8269 38Z" fill="white"/>
<path d="M10.2116 24.2188C9.36518 24.2188 8.51537 23.9404 7.78941 23.3801L3.85 20.3288C3.14125 19.6925 2.57012 19.0634 2.11253 18.4055C-1.07685 13.843 -0.608938 7.37891 3.20662 3.3732C7.24925 -0.878343 13.8207 -1.14226 18.1661 2.76945L26.9119 10.6435L12.8573 23.1957C12.0935 23.879 11.1543 24.2224 10.215 24.2224L10.2116 24.2188ZM6.03818 17.5378L9.82965 20.4698C10.0705 20.6578 10.3973 20.6433 10.6279 20.4408L21.6101 10.6326L15.9263 5.51705C12.9399 2.8273 8.41903 3.01168 5.63908 5.93281C3.01395 8.69125 2.69054 13.1344 4.88216 16.2688C5.17461 16.6882 5.55306 17.104 6.03818 17.545V17.5378Z" fill="white"/>
</g>
<defs>
<clipPath id="clip0_4527_5875">
<rect width="48.3636" height="38" fill="white"/>
</clipPath>
</defs>
</svg>
