<svg width="40" height="40" viewBox="0 0 40 40" fill="none" xmlns="http://www.w3.org/2000/svg">
<g opacity="0.6" clip-path="url(#clip0_4622_760)">
<path d="M20.0057 39.0983C30.5503 39.0983 39.0984 30.5502 39.0984 20.0056C39.0984 9.46103 30.5503 0.912933 20.0057 0.912933C9.46106 0.912933 0.912964 9.46103 0.912964 20.0056C0.912964 30.5502 9.46106 39.0983 20.0057 39.0983Z" fill="#0AB0D7"/>
<path d="M25.4268 27.7712C25.4268 28.2333 25.0436 28.6165 24.5815 28.6165H11.8906C10.0422 28.6165 8.54321 27.1288 8.54321 25.3029V14.5055C8.54321 12.6796 10.0422 11.1919 11.8906 11.1919H28.1093C29.9577 11.1919 31.4567 12.6796 31.4567 14.5055V21.9442C31.4567 22.4063 31.0735 22.7895 30.6114 22.7895C30.1493 22.7895 29.7661 22.4063 29.7661 21.9442V14.5055C29.7661 13.6038 29.0222 12.8825 28.1093 12.8825H11.8906C10.9777 12.8825 10.2338 13.6151 10.2338 14.5055V25.3029C10.2338 26.2046 10.9777 26.9259 11.8906 26.9259H24.5815C25.0436 26.9259 25.4268 27.3091 25.4268 27.7712Z" fill="white"/>
<path d="M31.4567 25.3029C31.4567 24.8361 31.0783 24.4576 30.6114 24.4576C30.1446 24.4576 29.7661 24.8361 29.7661 25.3029V30.2395C29.7661 30.7064 30.1446 31.0848 30.6114 31.0848C31.0783 31.0848 31.4567 30.7064 31.4567 30.2395V25.3029Z" fill="white"/>
<path d="M33.0798 26.9259H28.1432C27.6763 26.9259 27.2979 27.3044 27.2979 27.7712C27.2979 28.2381 27.6763 28.6165 28.1432 28.6165H33.0798C33.5466 28.6165 33.9251 28.2381 33.9251 27.7712C33.9251 27.3044 33.5466 26.9259 33.0798 26.9259Z" fill="white"/>
<path d="M20.0056 24.1307C17.7289 24.1307 15.8693 22.2823 15.8693 19.9944C15.8693 17.7064 17.7289 15.858 20.0056 15.858C22.2823 15.858 24.142 17.7064 24.142 19.9944C24.142 22.2823 22.2823 24.1307 20.0056 24.1307ZM20.0056 17.5599C18.6531 17.5599 17.5599 18.6531 17.5599 20.0056C17.5599 21.3581 18.6531 22.4514 20.0056 22.4514C21.3581 22.4514 22.4514 21.3581 22.4514 20.0056C22.4514 18.6531 21.3581 17.5599 20.0056 17.5599Z" fill="white"/>
</g>
<defs>
<clipPath id="clip0_4622_760">
<rect width="40" height="40" fill="white"/>
</clipPath>
</defs>
</svg>
