<svg width="14" height="16" viewBox="0 0 14 16" fill="none" xmlns="http://www.w3.org/2000/svg">
<path d="M1.41852 7.33859L8.07651 0.680595C8.23186 0.525241 8.23186 0.273717 8.07651 0.118364C7.99513 0.0369887 7.89896 -2.48992e-07 7.79539 -2.5352e-07C7.69182 -2.58047e-07 7.58826 0.0369887 7.51428 0.118364L0.116509 7.51613C-0.0388444 7.67149 -0.0388445 7.92301 0.116509 8.07836L7.40331 15.3652C7.55866 15.5205 7.81019 15.5205 7.96554 15.3652C8.12089 15.2098 8.12089 14.9583 7.96554 14.8029L1.30755 8.14494L13.1958 8.14494C13.4177 8.14494 13.5952 7.9674 13.5952 7.74547C13.5952 7.52353 13.4177 7.34599 13.1958 7.34599L1.41852 7.34598L1.41852 7.33859Z" fill="#637E9A"/>
</svg>
