<svg width="15" height="20" viewBox="0 0 15 20" fill="none" xmlns="http://www.w3.org/2000/svg">
<g clip-path="url(#clip0_4545_4113)">
<path d="M9.38004 1.34002L9.13004 1.01002C8.11004 -0.32998 6.19004 -0.32998 5.21004 0.94002L4.91004 1.33002C4.58004 1.76002 4.29004 2.20002 4.04004 2.67002H10.25C10 2.21002 9.71004 1.76002 9.38004 1.34002Z" fill="#B4CAD6"/>
<path d="M11.8498 10.8H11.3998V7.36005C11.3998 5.95005 11.0998 4.57005 10.5298 3.30005H3.72977C3.14977 4.56005 2.84977 5.94005 2.83977 7.35005V10.79H2.38977C1.07977 10.79 0.00976562 11.85 0.00976562 13.17V14.79V18.3V19.24C1.29977 19.24 2.33977 18.2 2.33977 16.91V15.92C2.33977 15.92 2.36977 15.92 2.38977 15.92H2.83977H5.85977H5.95977V18.08C5.95977 18.72 6.47977 19.25 7.11977 19.25C7.75977 19.25 8.28977 18.73 8.28977 18.09V15.93H11.4098H11.8598C11.8798 15.93 11.8898 15.93 11.9098 15.93V16.92C11.9098 18.21 12.9498 19.25 14.2298 19.25V18.31V14.8V13.18C14.2298 11.87 13.1698 10.8 11.8598 10.8H11.8498ZM7.12977 9.30005C5.80977 9.30005 4.73977 8.22005 4.73977 6.90005C4.73977 5.58005 5.81977 4.51005 7.13977 4.51005C8.45977 4.51005 9.52977 5.59005 9.52977 6.91005C9.52977 8.23005 8.44977 9.30005 7.12977 9.30005Z" fill="#B4CAD6"/>
</g>
<defs>
<clipPath id="clip0_4545_4113">
<rect width="14.23" height="19.26" fill="white"/>
</clipPath>
</defs>
</svg>
