<svg width="23" height="20" viewBox="0 0 23 20" fill="none" xmlns="http://www.w3.org/2000/svg">
<g clip-path="url(#clip0_4545_4105)">
<path d="M1.59952 19.58C1.65952 19.08 1.71952 18.62 1.77952 18.15C1.81952 17.81 1.86952 17.47 1.90952 17.14C1.92952 17.03 1.89952 16.94 1.80952 16.86C1.24952 16.31 0.68952 15.75 0.13952 15.19C0.0595195 15.11 -0.0404805 15.04 0.00951952 14.9C0.0595195 14.76 0.17952 14.75 0.29952 14.73C1.08952 14.61 1.87952 14.49 2.67952 14.38C2.77952 14.37 2.81952 14.3 2.85952 14.22C3.20952 13.52 3.56952 12.81 3.91952 12.11C3.96952 12.01 4.01952 11.92 4.14952 11.92C4.27952 11.92 4.33952 12.02 4.38952 12.12C4.73952 12.82 5.09952 13.52 5.44952 14.23C5.49952 14.32 5.55952 14.37 5.65952 14.38C6.45952 14.47 7.24952 14.56 8.04952 14.65C8.16952 14.66 8.26952 14.69 8.31952 14.81C8.36952 14.92 8.28952 15 8.22952 15.08C7.90952 15.42 7.58952 15.76 7.26952 16.09C7.03952 16.34 6.79952 16.58 6.55952 16.83C6.47952 16.91 6.46952 17 6.47952 17.11C6.58952 17.9 6.68952 18.7 6.79952 19.49C6.80952 19.6 6.79952 19.68 6.70952 19.75C6.61952 19.81 6.53952 19.78 6.44952 19.74C5.76952 19.37 5.09952 19 4.41952 18.62C4.26952 18.54 4.15952 18.52 3.99952 18.62C3.32952 19.01 2.64952 19.39 1.96952 19.77C1.87952 19.82 1.78952 19.85 1.69952 19.79C1.61952 19.74 1.58952 19.67 1.59952 19.61V19.58Z" fill="#B4CAD6"/>
<path d="M7.51987 10.95C7.60987 10.24 7.68987 9.57 7.77987 8.91C7.83987 8.43 7.89987 7.95 7.96987 7.46C7.98987 7.3 7.94987 7.17 7.82987 7.06C7.02987 6.27 6.23987 5.47 5.43987 4.68C5.32987 4.57 5.17987 4.46 5.25987 4.26C5.32987 4.06 5.50987 4.05 5.67987 4.02C6.80987 3.85 7.93987 3.68 9.06987 3.52C9.20987 3.5 9.26987 3.4 9.32987 3.29C9.82987 2.29 10.3399 1.28 10.8399 0.28C10.9099 0.14 10.9799 0 11.1599 0C11.3499 0 11.4299 0.14 11.4999 0.29C11.9999 1.29 12.5099 2.3 13.0099 3.3C13.0799 3.43 13.1699 3.5 13.3099 3.51C14.4499 3.64 15.5799 3.77 16.7199 3.89C16.8899 3.91 17.0299 3.95 17.0999 4.11C17.1699 4.27 17.0599 4.39 16.9699 4.49C16.5199 4.97 16.0599 5.46 15.5999 5.94C15.2699 6.29 14.9299 6.65 14.5899 6.99C14.4699 7.11 14.4599 7.23 14.4799 7.38C14.6299 8.51 14.7799 9.65 14.9299 10.78C14.9499 10.93 14.9299 11.05 14.7999 11.15C14.6799 11.24 14.5499 11.2 14.4299 11.13C13.4699 10.6 12.4999 10.07 11.5399 9.52C11.3299 9.4 11.1699 9.38 10.9499 9.52C9.98987 10.08 9.01987 10.61 8.04987 11.16C7.91987 11.23 7.79987 11.27 7.65987 11.19C7.54987 11.12 7.50987 11.02 7.50987 10.94L7.51987 10.95Z" fill="#B4CAD6"/>
<path d="M15.6298 19.58C15.6898 19.08 15.7498 18.62 15.8098 18.15C15.8498 17.81 15.8998 17.47 15.9398 17.14C15.9598 17.03 15.9298 16.94 15.8398 16.86C15.2798 16.31 14.7198 15.75 14.1698 15.19C14.0898 15.11 13.9898 15.04 14.0398 14.9C14.0898 14.76 14.2098 14.75 14.3298 14.73C15.1198 14.61 15.9098 14.49 16.7098 14.38C16.8098 14.37 16.8498 14.3 16.8898 14.22C17.2398 13.52 17.5998 12.81 17.9498 12.11C17.9998 12.01 18.0498 11.92 18.1798 11.92C18.3098 11.92 18.3698 12.02 18.4198 12.12C18.7698 12.82 19.1298 13.52 19.4798 14.23C19.5298 14.32 19.5898 14.37 19.6898 14.38C20.4898 14.47 21.2798 14.56 22.0798 14.65C22.1998 14.66 22.2998 14.69 22.3498 14.81C22.3998 14.92 22.3198 15 22.2598 15.08C21.9398 15.42 21.6198 15.76 21.2998 16.09C21.0698 16.34 20.8298 16.58 20.5898 16.83C20.5098 16.91 20.4998 17 20.5098 17.11C20.6198 17.9 20.7198 18.7 20.8298 19.49C20.8398 19.6 20.8298 19.68 20.7398 19.75C20.6498 19.81 20.5698 19.78 20.4798 19.74C19.7998 19.37 19.1298 19 18.4498 18.62C18.2998 18.54 18.1898 18.52 18.0298 18.62C17.3598 19.01 16.6798 19.39 15.9998 19.77C15.9098 19.82 15.8198 19.85 15.7298 19.79C15.6498 19.74 15.6198 19.67 15.6298 19.61V19.58Z" fill="#B4CAD6"/>
</g>
<defs>
<clipPath id="clip0_4545_4105">
<rect width="22.35" height="19.78" fill="white"/>
</clipPath>
</defs>
</svg>
