<svg width="32" height="23" viewBox="0 0 32 23" fill="none" xmlns="http://www.w3.org/2000/svg">
<path d="M10.75 10.3213L16.94 4.13126C16.94 4.13126 17.02 4.03126 17.04 3.97126L19.88 1.13126L22.72 3.97126C22.74 4.03126 22.78 4.08126 22.82 4.13126L30.51 11.8213L27.91 14.4213L23.5 10.0113C23.5 10.0113 23.46 9.94126 23.43 9.91126L20.15 6.63126C19.96 6.44126 19.66 6.44126 19.47 6.63126L11.78 14.3213L9.59 12.1313L8.31 10.8513L4.1 6.64126C3.91 6.45126 3.61 6.45126 3.42 6.64126L0.14 9.90126C0.05 9.99126 0 10.1113 0 10.2413C0 10.3713 0.05 10.4913 0.14 10.5813L8.04 18.4813C8.06 18.5413 8.1 18.5913 8.14 18.6413L11.42 21.9213C11.52 22.0213 11.65 22.0713 11.79 22.0613C11.79 22.0613 11.81 22.0613 11.82 22.0613C11.94 22.0613 12.07 22.0113 12.16 21.9213L15.44 18.6413C15.44 18.6413 15.52 18.5413 15.54 18.4813L21.83 12.1913L21.19 11.4713L14.72 17.9413C14.72 17.9413 14.64 18.0413 14.62 18.1013L11.78 20.9313L8.94 18.1013C8.92 18.0413 8.88 17.9913 8.84 17.9413L1.16 10.2413L3.76 7.64126L8.17 12.0513C8.17 12.0513 8.21 12.1213 8.24 12.1513L11.52 15.4313C11.61 15.5213 11.74 15.5713 11.86 15.5713C11.98 15.5713 12.11 15.5213 12.2 15.4313L19.89 7.74126L22.07 9.92126L23.64 11.4913L27.58 15.4313C27.76 15.6113 28.08 15.6113 28.26 15.4313L31.54 12.1513C31.73 11.9613 31.73 11.6613 31.54 11.4713L23.64 3.57126C23.62 3.51126 23.58 3.46126 23.54 3.41126L20.25 0.141256C20.15 0.0412559 20.02 -0.00874415 19.88 0.00125585C19.74 0.00125585 19.61 0.0412559 19.51 0.141256L16.23 3.42126C16.23 3.42126 16.15 3.52126 16.13 3.58126L10.09 9.62126L10.75 10.3213Z" fill="white"/>
</svg>
