<svg width="26" height="25" viewBox="0 0 26 25" fill="none" xmlns="http://www.w3.org/2000/svg">
<g clip-path="url(#clip0_4531_7959)">
<path d="M13.1108 24.7735C11.189 24.7097 9.36883 24.573 7.6318 23.9899C6.98503 23.7713 6.37522 23.5071 5.84857 23.0971C4.88766 22.35 4.85994 21.4116 5.80237 20.6463C6.66165 19.9447 7.75191 19.6532 8.84217 19.3799C8.92533 19.3617 9.01773 19.3434 9.10088 19.3252C9.61213 19.2159 9.70145 18.9729 9.36883 18.5964C8.86065 18.0315 8.35248 17.4666 7.85355 16.8835C7.77963 16.8015 7.54864 16.7104 7.74267 16.5738C7.8905 16.4644 8.08453 16.4918 8.22313 16.6375C8.62966 17.0931 9.04544 17.5395 9.45198 17.995C10.533 19.1977 11.6233 20.4003 12.6951 21.6211C12.9353 21.8945 13.0646 21.9127 13.3141 21.6211C14.7277 20.0267 16.1506 18.4415 17.5828 16.8471C17.7029 16.7104 17.8045 16.5555 18.0078 16.51C18.1094 16.4827 18.2295 16.4827 18.3034 16.5555C18.4143 16.6558 18.285 16.7286 18.2295 16.7924C17.6659 17.4393 17.0931 18.077 16.5295 18.7239C16.1322 19.1703 16.1414 19.1612 16.7974 19.2888C17.8784 19.5074 18.9225 19.799 19.8464 20.3638C20.1513 20.5552 20.4285 20.7738 20.6318 21.0563C21.0106 21.5756 20.9829 22.2133 20.5579 22.7144C20.022 23.3431 19.2643 23.6802 18.4698 23.9535C17.167 24.3908 15.8088 24.6095 14.4228 24.6824C13.9609 24.7097 13.4989 24.737 13.1293 24.7552L13.1108 24.7735ZM13.157 24.2724C13.6929 24.2906 14.4136 24.2724 15.125 24.1904C16.5941 24.0264 18.0355 23.7713 19.329 23.088C20.7519 22.3318 20.7519 21.3934 19.3475 20.6189C18.3681 20.0814 17.2779 19.8354 16.1599 19.635C15.8919 19.5894 15.6887 19.6623 15.5131 19.8719C14.8017 20.7009 14.0625 21.5118 13.3418 22.3318C13.1108 22.6051 12.926 22.6233 12.6858 22.3318C12.2146 21.7851 11.7341 21.2476 11.2537 20.7101C10.5145 19.8779 9.56286 19.6228 8.39868 19.9447C7.6318 20.1543 6.87416 20.4185 6.24587 20.8832C5.40507 21.5027 5.40507 22.1769 6.24587 22.8055C6.70785 23.1517 7.24374 23.3795 7.80735 23.5617C9.4797 24.0993 11.2075 24.2997 13.157 24.2724Z" fill="white" stroke="white" stroke-width="0.5" stroke-miterlimit="10"/>
<path d="M17.9247 14.1594C18.0355 13.5672 18.1464 12.8748 18.285 12.2006C18.3404 11.9364 18.3035 11.7359 18.0725 11.5355C17.5643 11.0982 17.0931 10.6335 16.5942 10.1871C16.3724 9.98666 16.2615 9.75889 16.3632 9.47646C16.4648 9.20313 16.705 9.11203 16.9822 9.07558C17.6752 8.98448 18.3682 8.88426 19.0611 8.80226C19.3013 8.77493 19.4492 8.68382 19.5508 8.46516C19.8465 7.86385 20.1699 7.27165 20.4748 6.67945C20.6041 6.42434 20.7704 6.22391 21.103 6.22391C21.4357 6.22391 21.602 6.41523 21.7313 6.67034C22.0362 7.26254 22.3504 7.85474 22.6553 8.45605C22.7569 8.6656 22.9048 8.76582 23.145 8.79315C23.8195 8.86604 24.5032 8.97536 25.1777 9.05736C25.4918 9.09381 25.7598 9.19402 25.8614 9.50379C25.963 9.79534 25.7967 10.014 25.5842 10.2053C25.0945 10.6518 24.6141 11.1164 24.1151 11.5628C23.9211 11.7359 23.8657 11.8908 23.9211 12.1459C24.0597 12.7837 24.1521 13.4214 24.2722 14.0592C24.3276 14.3416 24.3092 14.5876 24.0597 14.7789C23.801 14.9703 23.5423 14.9156 23.2743 14.7789C22.6738 14.4692 22.064 14.1867 21.4634 13.8679C21.2232 13.7403 21.0199 13.7312 20.7704 13.8679C20.1421 14.1958 19.5139 14.5147 18.8763 14.8154C18.3589 15.0614 17.9154 14.788 17.9339 14.1685L17.9247 14.1594ZM17.398 9.78623C17.8785 10.26 18.3035 10.7246 18.7839 11.1346C19.1073 11.4171 19.2089 11.6995 19.1166 12.1095C18.978 12.7108 18.8948 13.3212 18.7655 14.0045C19.4122 13.6856 19.9943 13.4214 20.5487 13.1117C20.9275 12.9021 21.2509 12.893 21.6297 13.1117C22.1841 13.4214 22.7662 13.6765 23.4129 14.0045C23.3113 13.4123 23.2836 12.9021 23.1357 12.4375C22.9325 11.7997 23.0988 11.3533 23.6347 10.9433C24.0505 10.6153 24.3923 10.2053 24.7896 9.80445C24.1983 9.72245 23.6439 9.5949 23.0895 9.57668C22.4243 9.55846 22.0917 9.2578 21.8607 8.71115C21.6574 8.21917 21.371 7.75452 21.0938 7.21698C20.7335 7.9094 20.4101 8.49249 20.1237 9.09381C19.9943 9.36713 19.791 9.48557 19.4861 9.52201C18.8024 9.60401 18.1187 9.70423 17.4072 9.80445L17.398 9.78623Z" fill="white" stroke="white" stroke-width="0.25" stroke-miterlimit="10"/>
<path d="M9.67375 9.65868C9.68299 9.88645 9.55364 10.0413 9.38733 10.1962C8.90687 10.6335 8.4449 11.0982 7.94596 11.5173C7.70573 11.7268 7.65954 11.9364 7.72421 12.2188C7.85357 12.811 7.9552 13.4032 8.05684 14.0045C8.11227 14.3052 8.13999 14.5967 7.81661 14.7972C7.52094 14.9794 7.26224 14.8701 6.98505 14.7334C6.42144 14.4418 5.84859 14.1867 5.29422 13.8861C5.02627 13.7403 4.80452 13.7221 4.5181 13.877C3.92677 14.205 3.30772 14.4874 2.70715 14.7881C2.45769 14.9156 2.20822 14.9612 1.95875 14.7881C1.70005 14.6058 1.66309 14.3598 1.71853 14.0774C1.83864 13.4397 1.94027 12.8019 2.07887 12.1641C2.1343 11.8999 2.07887 11.7268 1.86636 11.5446C1.35819 11.1073 0.88697 10.6426 0.397276 10.1871C0.184767 9.98667 0.0369344 9.77712 0.147809 9.48558C0.258683 9.20314 0.50815 9.10292 0.803814 9.06648C1.49678 8.97537 2.18974 8.87515 2.88271 8.79316C3.11369 8.76582 3.24305 8.67472 3.33544 8.47428C3.64035 7.86386 3.96373 7.26254 4.27787 6.65212C4.39799 6.41524 4.5643 6.23303 4.8692 6.22391C5.20182 6.2148 5.37738 6.40613 5.50673 6.66123C5.81163 7.25343 6.13502 7.84563 6.43068 8.44695C6.54155 8.67472 6.69863 8.77493 6.95733 8.80227C7.6503 8.88426 8.34326 8.98448 9.03622 9.07559C9.39656 9.13026 9.64603 9.29425 9.66451 9.66779L9.67375 9.65868ZM2.5778 13.9863C3.16913 13.6948 3.70502 13.4761 4.17624 13.1846C4.68441 12.8748 5.11867 12.8748 5.62684 13.1846C6.1073 13.4761 6.64319 13.6948 7.22528 13.9863C7.1144 13.3759 7.06821 12.8566 6.92037 12.3646C6.72634 11.7359 6.92037 11.3077 7.43779 10.9069C7.85357 10.5789 8.20467 10.1689 8.61121 9.76801C7.89976 9.66779 7.23452 9.55846 6.57851 9.49469C6.20893 9.45824 5.99642 9.30336 5.83935 8.99359C5.55293 8.4105 5.24802 7.83652 4.90616 7.18966C4.57354 7.82741 4.25015 8.39228 3.97297 8.98448C3.8159 9.32158 3.58491 9.46736 3.19685 9.5038C2.5316 9.56757 1.8756 9.68601 1.22883 9.77712C1.74625 10.2873 2.21746 10.7793 2.71639 11.244C2.91966 11.4353 3.01206 11.6266 2.94738 11.909C2.80879 12.565 2.71639 13.2301 2.58704 13.9863H2.5778Z" fill="white" stroke="white" stroke-width="0.25" stroke-miterlimit="10"/>
<path d="M10.2097 7.08033C10.3021 6.56102 10.4037 5.98704 10.5238 5.42217C10.5793 5.14884 10.5516 4.9393 10.3021 4.73886C9.8586 4.37443 9.4613 3.96444 9.03628 3.58179C8.85149 3.4178 8.7591 3.22647 8.83301 2.98959C8.91617 2.73449 9.13792 2.64338 9.39662 2.61605C9.98795 2.54316 10.5885 2.45205 11.1798 2.37917C11.4016 2.35183 11.5494 2.27895 11.6418 2.0694C11.8821 1.56831 12.1592 1.07632 12.4179 0.57523C12.5381 0.329238 12.6767 0.110579 13.0093 0.11969C13.3419 0.11969 13.462 0.356571 13.5914 0.593451C13.8408 1.08543 14.1088 1.55919 14.349 2.05118C14.4414 2.25161 14.5708 2.35183 14.8017 2.37005C15.3931 2.43383 15.9936 2.53405 16.585 2.60694C16.8437 2.64338 17.0654 2.71626 17.1578 2.97137C17.2502 3.21736 17.1393 3.4178 16.9453 3.5909C16.5111 3.98266 16.0953 4.39265 15.6518 4.78441C15.467 4.9393 15.4115 5.10329 15.4577 5.33106C15.5594 5.85038 15.6518 6.3788 15.7534 6.89812C15.8088 7.17144 15.8458 7.44476 15.5686 7.63609C15.3007 7.81831 15.0512 7.70898 14.8017 7.58143C14.312 7.32632 13.8039 7.09855 13.3234 6.83434C13.1017 6.7159 12.9169 6.70679 12.6859 6.83434C12.1408 7.12589 11.5864 7.39921 11.0228 7.66342C10.57 7.87297 10.1912 7.61787 10.2097 7.08944V7.08033ZM9.74772 3.24469C10.182 3.6729 10.5608 4.08288 10.9858 4.44731C11.2722 4.69331 11.3277 4.94841 11.2538 5.2764C11.1429 5.80482 11.0597 6.33325 10.9489 6.94367C11.3831 6.73412 11.7712 6.58835 12.0946 6.36969C12.7044 5.95059 13.268 5.95059 13.8778 6.36969C14.2104 6.58835 14.6077 6.73412 15.042 6.95278C14.9219 6.31503 14.8295 5.76838 14.7186 5.23084C14.6631 4.9393 14.7186 4.72064 14.9588 4.50198C15.3931 4.11933 15.7996 3.69112 16.2339 3.26291C15.6518 3.18091 15.0974 3.07159 14.5338 3.02603C14.1457 2.9987 13.924 2.8347 13.7669 2.49761C13.5452 2.00562 13.268 1.53186 12.9816 0.985215C12.6767 1.55919 12.4087 2.05118 12.1685 2.55227C12.0299 2.84382 11.8266 2.98048 11.4848 3.01692C10.9027 3.07159 10.3298 3.1718 9.72924 3.2538L9.74772 3.24469Z" fill="white" stroke="white" stroke-width="0.25" stroke-miterlimit="10"/>
</g>
<defs>
<clipPath id="clip0_4531_7959">
<rect width="26" height="25" fill="white" transform="translate(0 0.00125122)"/>
</clipPath>
</defs>
</svg>
