<svg width="26" height="25" viewBox="0 0 26 25" fill="none" xmlns="http://www.w3.org/2000/svg">
<g clip-path="url(#clip0_4531_7954)">
<path d="M17.16 7.79124L24.26 8.70124C24.89 8.78124 25.15 9.55124 24.71 10.0012L19.67 15.0812C19.49 15.2612 19.41 15.5112 19.46 15.7612L20.78 22.7912C20.9 23.4112 20.25 23.9012 19.68 23.6212L13.29 20.4012C13.06 20.2912 12.8 20.2912 12.58 20.4112L6.30004 23.8412C5.74004 24.1412 5.08004 23.6812 5.17004 23.0512L6.26004 15.9812C6.30004 15.7312 6.21004 15.4812 6.03004 15.3112L0.840042 10.3912C0.380042 9.95124 0.620042 9.18124 1.24004 9.08124L8.30004 7.94124C8.55004 7.90124 8.76004 7.74124 8.87004 7.51124L11.93 1.04124C12.2 0.471239 13.01 0.451239 13.3 1.02124L16.57 7.38124C16.69 7.60124 16.9 7.76124 17.15 7.79124H17.16Z" stroke="white" stroke-width="1.2" stroke-miterlimit="10"/>
</g>
<defs>
<clipPath id="clip0_4531_7954">
<rect width="25.53" height="24.53" fill="white" transform="translate(0 0.00125122)"/>
</clipPath>
</defs>
</svg>
