<svg width="30" height="25" viewBox="0 0 30 25" fill="none" xmlns="http://www.w3.org/2000/svg">
<g clip-path="url(#clip0_4531_7951)">
<path d="M5.96838 12.7036C5.96838 12.6245 5.99586 12.5431 6.05309 12.4826L14.5398 3.38496C14.6543 3.2617 14.8443 3.25705 14.9656 3.37798C15.0847 3.49891 15.087 3.69659 14.9725 3.81984L6.69412 12.6919L18.1387 24.2175L29.2468 12.3105L17.8022 0.784957L16.3805 2.30821C16.266 2.43147 16.076 2.43612 15.9546 2.31519C15.8356 2.19426 15.8333 1.99659 15.9478 1.87333L17.5778 0.126818C17.6923 0.00356199 17.8823 -0.00108918 18.0036 0.119841L29.8809 12.0803C30 12.2012 30.0023 12.3989 29.8878 12.5222L18.3631 24.878C18.3081 24.9384 18.2326 24.971 18.1525 24.9733C18.0723 24.9757 17.9968 24.9431 17.9395 24.885L6.05996 12.9222C6.00043 12.8617 5.97067 12.7826 5.96838 12.7036Z" fill="white" stroke="white" stroke-width="0.25" stroke-miterlimit="10"/>
<path d="M24.0315 12.2989C24.0315 12.378 24.0041 12.4594 23.9468 12.5199L15.4601 21.6175C15.3456 21.7408 15.1556 21.7455 15.0343 21.6245C14.9152 21.5036 14.9129 21.3059 15.0274 21.1827L23.3035 12.3106L11.8612 0.784983L0.753148 12.692L12.1977 24.2175L13.6195 22.6943C13.7339 22.571 13.9239 22.5664 14.0453 22.6873C14.1643 22.8082 14.1666 23.0059 14.0521 23.1292L12.4221 24.8757C12.3076 24.9989 12.1176 25.0036 11.9963 24.8827L0.118991 12.9222C-5.71106e-05 12.8013 -0.00234649 12.6036 0.112122 12.4803L11.6391 0.124518C11.6941 0.0640531 11.7696 0.0314949 11.8498 0.0291694C11.9299 0.0268438 12.0054 0.0594019 12.0627 0.117541L23.94 12.078C23.9995 12.1385 24.0293 12.2175 24.0315 12.2966V12.2989Z" fill="white" stroke="white" stroke-width="0.25" stroke-miterlimit="10"/>
</g>
<defs>
<clipPath id="clip0_4531_7951">
<rect width="30" height="25" fill="white" transform="translate(0 0.00125122)"/>
</clipPath>
</defs>
</svg>
