<svg width="16" height="18" viewBox="0 0 16 18" fill="none" xmlns="http://www.w3.org/2000/svg">
<g clip-path="url(#clip0_4366_4662)">
<path d="M8.44001 5.99001C8.85001 5.26001 9.96002 5.56001 9.94001 6.39001C9.93001 7.02001 10.62 7.42001 11.16 7.09001C11.88 6.66001 12.69 7.47001 12.26 8.19001C11.94 8.73001 12.33 9.42001 12.96 9.41001C13.8 9.40001 14.09 10.51 13.36 10.91C12.81 11.22 12.81 12.01 13.36 12.31C14.09 12.72 13.79 13.83 12.96 13.81C12.33 13.8 11.93 14.49 12.26 15.03C12.69 15.75 11.88 16.56 11.16 16.13C10.62 15.81 9.93001 16.2 9.94001 16.83C9.95002 17.67 8.84001 17.96 8.44001 17.23C8.13001 16.68 7.34002 16.68 7.04002 17.23C6.63002 17.96 5.52002 17.66 5.54002 16.83C5.55002 16.2 4.86002 15.8 4.32002 16.13C3.60002 16.56 2.79002 15.75 3.22002 15.03C3.54002 14.49 3.15002 13.8 2.52002 13.81C1.68002 13.82 1.39002 12.71 2.12002 12.31C2.67002 12 2.67002 11.21 2.12002 10.91C1.39002 10.5 1.69002 9.39001 2.52002 9.41001C3.15002 9.42001 3.55002 8.73001 3.22002 8.19001C2.79002 7.47001 3.60002 6.66001 4.32002 7.09001C4.86002 7.41001 5.55002 7.02001 5.54002 6.39001C5.53002 5.55001 6.64002 5.26001 7.04002 5.99001C7.35002 6.54001 8.14001 6.54001 8.44001 5.99001Z" fill="#B4CAD6"/>
<path d="M15.11 1.85L12.42 5.57L10 4.62L11.35 0L15.11 1.85Z" fill="#B4CAD6"/>
<path d="M0 1.85L2.7 5.57L5.12 4.62L3.76 0L0 1.85Z" fill="#B4CAD6"/>
</g>
<defs>
<clipPath id="clip0_4366_4662">
<rect width="15.11" height="17.66" fill="white"/>
</clipPath>
</defs>
</svg>
