<svg width="23" height="20" viewBox="0 0 23 20" fill="none" xmlns="http://www.w3.org/2000/svg">
<g clip-path="url(#clip0_4366_4678)">
<path d="M1.60001 19.58C1.66001 19.08 1.72001 18.62 1.78001 18.15C1.82001 17.81 1.87001 17.47 1.91001 17.14C1.93001 17.03 1.90001 16.94 1.81001 16.86C1.25001 16.31 0.690008 15.75 0.140008 15.19C0.0600078 15.11 -0.0399922 15.04 0.0100078 14.9C0.0600078 14.76 0.180008 14.75 0.300008 14.73C1.09001 14.61 1.88001 14.49 2.68001 14.38C2.78001 14.37 2.82001 14.3 2.86001 14.22C3.21001 13.52 3.57001 12.81 3.92001 12.11C3.97001 12.01 4.02001 11.92 4.15001 11.92C4.28001 11.92 4.34001 12.02 4.39001 12.12C4.74001 12.82 5.10001 13.52 5.45001 14.23C5.50001 14.32 5.56001 14.37 5.66001 14.38C6.46001 14.47 7.25001 14.56 8.05001 14.65C8.17001 14.66 8.27001 14.69 8.32001 14.81C8.37001 14.92 8.29001 15 8.23001 15.08C7.91001 15.42 7.59001 15.76 7.27001 16.09C7.04001 16.34 6.80001 16.58 6.56001 16.83C6.48001 16.91 6.47001 17 6.48001 17.11C6.59001 17.9 6.69001 18.7 6.80001 19.49C6.81001 19.6 6.80001 19.68 6.71001 19.75C6.62001 19.81 6.54001 19.78 6.45001 19.74C5.77001 19.37 5.10001 19 4.42001 18.62C4.27001 18.54 4.16001 18.52 4.00001 18.62C3.33001 19.01 2.65001 19.39 1.97001 19.77C1.88001 19.82 1.79001 19.85 1.70001 19.79C1.62001 19.74 1.59001 19.67 1.60001 19.61V19.58Z" fill="#B4CAD6"/>
<path d="M7.51999 10.95C7.60999 10.24 7.68999 9.57 7.77999 8.91C7.83999 8.43 7.89999 7.95 7.96999 7.46C7.98999 7.3 7.94999 7.17 7.82999 7.06C7.02999 6.27 6.23999 5.47 5.43999 4.68C5.32999 4.57 5.17999 4.46 5.25999 4.26C5.32999 4.06 5.50999 4.05 5.67999 4.02C6.80999 3.85 7.93999 3.68 9.06999 3.52C9.20999 3.5 9.26999 3.4 9.32999 3.29C9.82999 2.29 10.34 1.28 10.84 0.28C10.91 0.14 10.98 0 11.16 0C11.35 0 11.43 0.14 11.5 0.29C12 1.29 12.51 2.3 13.01 3.3C13.08 3.43 13.17 3.5 13.31 3.51C14.45 3.64 15.58 3.77 16.72 3.89C16.89 3.91 17.03 3.95 17.1 4.11C17.17 4.27 17.06 4.39 16.97 4.49C16.52 4.97 16.06 5.46 15.6 5.94C15.27 6.29 14.93 6.65 14.59 6.99C14.47 7.11 14.46 7.23 14.48 7.38C14.63 8.51 14.78 9.65 14.93 10.78C14.95 10.93 14.93 11.05 14.8 11.15C14.68 11.24 14.55 11.2 14.43 11.13C13.47 10.6 12.5 10.07 11.54 9.52C11.33 9.4 11.17 9.38 10.95 9.52C9.98999 10.08 9.01999 10.61 8.04999 11.16C7.91999 11.23 7.79999 11.27 7.65999 11.19C7.54999 11.12 7.50999 11.02 7.50999 10.94L7.51999 10.95Z" fill="#B4CAD6"/>
<path d="M15.63 19.58C15.69 19.08 15.75 18.62 15.81 18.15C15.85 17.81 15.9 17.47 15.94 17.14C15.96 17.03 15.93 16.94 15.84 16.86C15.28 16.31 14.72 15.75 14.17 15.19C14.09 15.11 13.99 15.04 14.04 14.9C14.09 14.76 14.21 14.75 14.33 14.73C15.12 14.61 15.91 14.49 16.71 14.38C16.81 14.37 16.85 14.3 16.89 14.22C17.24 13.52 17.6 12.81 17.95 12.11C18 12.01 18.05 11.92 18.18 11.92C18.31 11.92 18.37 12.02 18.42 12.12C18.77 12.82 19.13 13.52 19.48 14.23C19.53 14.32 19.59 14.37 19.69 14.38C20.49 14.47 21.28 14.56 22.08 14.65C22.2 14.66 22.3 14.69 22.35 14.81C22.4 14.92 22.32 15 22.26 15.08C21.94 15.42 21.62 15.76 21.3 16.09C21.07 16.34 20.83 16.58 20.59 16.83C20.51 16.91 20.5 17 20.51 17.11C20.62 17.9 20.72 18.7 20.83 19.49C20.84 19.6 20.83 19.68 20.74 19.75C20.65 19.81 20.57 19.78 20.48 19.74C19.8 19.37 19.13 19 18.45 18.62C18.3 18.54 18.19 18.52 18.03 18.62C17.36 19.01 16.68 19.39 16 19.77C15.91 19.82 15.82 19.85 15.73 19.79C15.65 19.74 15.62 19.67 15.63 19.61V19.58Z" fill="#B4CAD6"/>
</g>
<defs>
<clipPath id="clip0_4366_4678">
<rect width="22.35" height="19.78" fill="white"/>
</clipPath>
</defs>
</svg>
