<svg width="430" height="308" viewBox="0 0 430 308" fill="none" xmlns="http://www.w3.org/2000/svg">
<path d="M103.332 98V91.7H106.527C107.307 91.7 107.91 91.844 108.336 92.132C108.768 92.42 108.984 92.825 108.984 93.347C108.984 93.857 108.786 94.262 108.39 94.562C107.994 94.856 107.46 95.003 106.788 95.003L106.968 94.517C107.682 94.517 108.243 94.658 108.651 94.94C109.059 95.222 109.263 95.633 109.263 96.173C109.263 96.731 109.041 97.175 108.597 97.505C108.153 97.835 107.52 98 106.698 98H103.332ZM105.42 96.515H106.599C106.773 96.515 106.902 96.473 106.986 96.389C107.076 96.299 107.121 96.173 107.121 96.011C107.121 95.849 107.076 95.729 106.986 95.651C106.902 95.567 106.773 95.525 106.599 95.525H105.42V96.515ZM105.42 94.121H106.32C106.5 94.121 106.632 94.082 106.716 94.004C106.8 93.926 106.842 93.812 106.842 93.662C106.842 93.506 106.8 93.389 106.716 93.311C106.632 93.227 106.5 93.185 106.32 93.185H105.42V94.121ZM115.151 98V93.077H117.176V98H115.151ZM112.892 94.562C113.552 94.562 114.044 94.706 114.368 94.994C114.692 95.282 114.854 95.69 114.854 96.218C114.854 96.77 114.662 97.205 114.278 97.523C113.9 97.841 113.354 98 112.64 98H109.85V93.077H111.875V94.562H112.892ZM112.433 96.632C112.571 96.632 112.679 96.596 112.757 96.524C112.835 96.452 112.874 96.338 112.874 96.182C112.874 96.026 112.835 95.915 112.757 95.849C112.679 95.783 112.571 95.75 112.433 95.75H111.875V96.632H112.433ZM118.039 98V93.077H123.322V98H121.297V94.238L121.738 94.661H119.623L120.064 94.238V98H118.039ZM126.727 98.09C126.169 98.09 125.674 97.982 125.242 97.766C124.816 97.544 124.48 97.241 124.234 96.857C123.988 96.473 123.865 96.032 123.865 95.534C123.865 95.036 123.988 94.595 124.234 94.211C124.48 93.827 124.816 93.527 125.242 93.311C125.674 93.095 126.169 92.987 126.727 92.987C127.285 92.987 127.78 93.095 128.212 93.311C128.644 93.527 128.98 93.827 129.22 94.211C129.466 94.595 129.589 95.036 129.589 95.534C129.589 96.032 129.466 96.473 129.22 96.857C128.98 97.241 128.644 97.544 128.212 97.766C127.78 97.982 127.285 98.09 126.727 98.09ZM126.727 96.506C126.877 96.506 127.012 96.47 127.132 96.398C127.252 96.326 127.348 96.218 127.42 96.074C127.492 95.924 127.528 95.744 127.528 95.534C127.528 95.318 127.492 95.141 127.42 95.003C127.348 94.859 127.252 94.751 127.132 94.679C127.012 94.607 126.877 94.571 126.727 94.571C126.577 94.571 126.442 94.607 126.322 94.679C126.202 94.751 126.106 94.859 126.034 95.003C125.962 95.141 125.926 95.318 125.926 95.534C125.926 95.744 125.962 95.924 126.034 96.074C126.106 96.218 126.202 96.326 126.322 96.398C126.442 96.47 126.577 96.506 126.727 96.506ZM129.645 98L129.726 96.353C129.762 96.359 129.798 96.365 129.834 96.371C129.87 96.371 129.903 96.371 129.933 96.371C130.065 96.371 130.17 96.347 130.248 96.299C130.326 96.245 130.386 96.17 130.428 96.074C130.476 95.972 130.509 95.852 130.527 95.714C130.545 95.57 130.557 95.405 130.563 95.219L130.635 93.077H135.333V98H133.299V94.238L133.74 94.661H131.976L132.39 94.211L132.345 95.3C132.327 95.744 132.288 96.143 132.228 96.497C132.168 96.845 132.072 97.142 131.94 97.388C131.814 97.628 131.64 97.814 131.418 97.946C131.202 98.072 130.926 98.135 130.59 98.135C130.458 98.135 130.311 98.123 130.149 98.099C129.993 98.075 129.825 98.042 129.645 98ZM136.199 98V93.077H138.225V94.805H139.61V93.077H141.635V98H139.61V96.398H138.225V98H136.199ZM145.577 98V96.452L145.829 96.749H144.704C143.942 96.749 143.339 96.596 142.895 96.29C142.451 95.978 142.229 95.54 142.229 94.976C142.229 94.376 142.457 93.911 142.913 93.581C143.375 93.245 143.999 93.077 144.785 93.077H147.377V98H145.577ZM142.13 98L143.417 96.137H145.469L144.281 98H142.13ZM145.577 95.849V94.166L145.829 94.652H144.83C144.662 94.652 144.533 94.685 144.443 94.751C144.353 94.811 144.308 94.91 144.308 95.048C144.308 95.336 144.482 95.48 144.83 95.48H145.829L145.577 95.849ZM148.245 98V93.077H150.27V95.3L151.971 93.077H153.843V98H151.818V95.768L150.126 98H148.245ZM150.909 92.672C150.279 92.672 149.82 92.546 149.532 92.294C149.25 92.036 149.109 91.637 149.109 91.097H150.414C150.414 91.283 150.447 91.43 150.513 91.538C150.579 91.64 150.708 91.691 150.9 91.691C151.086 91.691 151.215 91.64 151.287 91.538C151.365 91.43 151.404 91.283 151.404 91.097H152.727C152.727 91.637 152.58 92.036 152.286 92.294C151.998 92.546 151.539 92.672 150.909 92.672ZM111.323 108.063C110.963 108.063 110.609 108.018 110.261 107.928C109.919 107.832 109.613 107.697 109.343 107.523L109.604 106.866C109.832 107.01 110.093 107.124 110.387 107.208C110.681 107.286 110.978 107.325 111.278 107.325C111.554 107.325 111.791 107.292 111.989 107.226C112.193 107.16 112.349 107.07 112.457 106.956C112.565 106.836 112.619 106.698 112.619 106.542C112.619 106.32 112.52 106.149 112.322 106.029C112.124 105.909 111.848 105.849 111.494 105.849H110.63V105.228H111.44C111.65 105.228 111.833 105.204 111.989 105.156C112.145 105.108 112.265 105.036 112.349 104.94C112.439 104.838 112.484 104.721 112.484 104.589C112.484 104.445 112.433 104.322 112.331 104.22C112.229 104.118 112.085 104.04 111.899 103.986C111.719 103.932 111.506 103.905 111.26 103.905C111.02 103.911 110.774 103.944 110.522 104.004C110.276 104.064 110.024 104.157 109.766 104.283L109.532 103.608C109.82 103.47 110.102 103.365 110.378 103.293C110.66 103.215 110.939 103.173 111.215 103.167C111.629 103.155 111.998 103.203 112.322 103.311C112.646 103.413 112.901 103.563 113.087 103.761C113.279 103.959 113.375 104.193 113.375 104.463C113.375 104.691 113.303 104.895 113.159 105.075C113.015 105.249 112.823 105.387 112.583 105.489C112.343 105.591 112.067 105.642 111.755 105.642L111.791 105.435C112.325 105.435 112.745 105.54 113.051 105.75C113.357 105.96 113.51 106.245 113.51 106.605C113.51 106.893 113.414 107.148 113.222 107.37C113.03 107.586 112.769 107.757 112.439 107.883C112.115 108.003 111.743 108.063 111.323 108.063ZM117.659 108V106.992L117.614 106.803V105.084C117.614 104.718 117.506 104.436 117.29 104.238C117.08 104.034 116.762 103.932 116.336 103.932C116.054 103.932 115.778 103.98 115.508 104.076C115.238 104.166 115.01 104.289 114.824 104.445L114.464 103.797C114.71 103.599 115.004 103.449 115.346 103.347C115.694 103.239 116.057 103.185 116.435 103.185C117.089 103.185 117.593 103.344 117.947 103.662C118.301 103.98 118.478 104.466 118.478 105.12V108H117.659ZM116.093 108.054C115.739 108.054 115.427 107.994 115.157 107.874C114.893 107.754 114.689 107.589 114.545 107.379C114.401 107.163 114.329 106.92 114.329 106.65C114.329 106.392 114.389 106.158 114.509 105.948C114.635 105.738 114.836 105.57 115.112 105.444C115.394 105.318 115.772 105.255 116.246 105.255H117.758V105.876H116.282C115.85 105.876 115.559 105.948 115.409 106.092C115.259 106.236 115.184 106.41 115.184 106.614C115.184 106.848 115.277 107.037 115.463 107.181C115.649 107.319 115.907 107.388 116.237 107.388C116.561 107.388 116.843 107.316 117.083 107.172C117.329 107.028 117.506 106.818 117.614 106.542L117.785 107.136C117.671 107.418 117.47 107.643 117.182 107.811C116.894 107.973 116.531 108.054 116.093 108.054ZM123.202 107.595V103.986H121.132L121.087 104.904C121.075 105.204 121.054 105.495 121.024 105.777C121 106.053 120.958 106.308 120.898 106.542C120.844 106.776 120.763 106.968 120.655 107.118C120.547 107.268 120.403 107.361 120.223 107.397L119.368 107.244C119.554 107.25 119.704 107.19 119.818 107.064C119.932 106.932 120.019 106.752 120.079 106.524C120.145 106.296 120.193 106.038 120.223 105.75C120.253 105.456 120.277 105.153 120.295 104.841L120.367 103.23H124.066V107.595H123.202ZM119.179 109.107V107.244H124.795V109.107H123.985V108H119.998V109.107H119.179ZM128.755 108V106.992L128.71 106.803V105.084C128.71 104.718 128.602 104.436 128.386 104.238C128.176 104.034 127.858 103.932 127.432 103.932C127.15 103.932 126.874 103.98 126.604 104.076C126.334 104.166 126.106 104.289 125.92 104.445L125.56 103.797C125.806 103.599 126.1 103.449 126.442 103.347C126.79 103.239 127.153 103.185 127.531 103.185C128.185 103.185 128.689 103.344 129.043 103.662C129.397 103.98 129.574 104.466 129.574 105.12V108H128.755ZM127.189 108.054C126.835 108.054 126.523 107.994 126.253 107.874C125.989 107.754 125.785 107.589 125.641 107.379C125.497 107.163 125.425 106.92 125.425 106.65C125.425 106.392 125.485 106.158 125.605 105.948C125.731 105.738 125.932 105.57 126.208 105.444C126.49 105.318 126.868 105.255 127.342 105.255H128.854V105.876H127.378C126.946 105.876 126.655 105.948 126.505 106.092C126.355 106.236 126.28 106.41 126.28 106.614C126.28 106.848 126.373 107.037 126.559 107.181C126.745 107.319 127.003 107.388 127.333 107.388C127.657 107.388 127.939 107.316 128.179 107.172C128.425 107.028 128.602 106.818 128.71 106.542L128.881 107.136C128.767 107.418 128.566 107.643 128.278 107.811C127.99 107.973 127.627 108.054 127.189 108.054ZM131.04 108V103.23H131.904V105.255H134.622V103.23H135.486V108H134.622V106.002H131.904V108H131.04ZM137.076 108V103.23H137.94V106.704L140.865 103.23H141.648V108H140.784V104.526L137.868 108H137.076ZM146.286 108V106.326L146.421 106.488H144.9C144.264 106.488 143.766 106.353 143.406 106.083C143.052 105.813 142.875 105.42 142.875 104.904C142.875 104.352 143.064 103.935 143.442 103.653C143.826 103.371 144.336 103.23 144.972 103.23H147.06V108H146.286ZM142.83 108L144.126 106.173H145.017L143.757 108H142.83ZM146.286 106.056V103.743L146.421 103.986H144.999C144.603 103.986 144.297 104.061 144.081 104.211C143.865 104.355 143.757 104.595 143.757 104.931C143.757 105.555 144.159 105.867 144.963 105.867H146.421L146.286 106.056Z" fill="white"/>
<path d="M311.45 43.1V39.347H310.001L309.983 39.797C309.971 40.127 309.95 40.436 309.92 40.724C309.89 41.012 309.848 41.276 309.794 41.516C309.746 41.756 309.683 41.969 309.605 42.155C309.527 42.335 309.431 42.485 309.317 42.605L307.076 42.353C307.274 42.353 307.436 42.287 307.562 42.155C307.694 42.017 307.799 41.828 307.877 41.588C307.955 41.342 308.012 41.054 308.048 40.724C308.09 40.388 308.12 40.019 308.138 39.617L308.21 37.7H313.538V43.1H311.45ZM306.896 45.233V42.353H314.366V45.233H312.422V44H308.84V45.233H306.896ZM317.446 44.09C316.888 44.09 316.393 43.982 315.961 43.766C315.535 43.544 315.199 43.241 314.953 42.857C314.707 42.473 314.584 42.032 314.584 41.534C314.584 41.036 314.707 40.595 314.953 40.211C315.199 39.827 315.535 39.527 315.961 39.311C316.393 39.095 316.888 38.987 317.446 38.987C318.004 38.987 318.499 39.095 318.931 39.311C319.363 39.527 319.699 39.827 319.939 40.211C320.185 40.595 320.308 41.036 320.308 41.534C320.308 42.032 320.185 42.473 319.939 42.857C319.699 43.241 319.363 43.544 318.931 43.766C318.499 43.982 318.004 44.09 317.446 44.09ZM317.446 42.506C317.596 42.506 317.731 42.47 317.851 42.398C317.971 42.326 318.067 42.218 318.139 42.074C318.211 41.924 318.247 41.744 318.247 41.534C318.247 41.318 318.211 41.141 318.139 41.003C318.067 40.859 317.971 40.751 317.851 40.679C317.731 40.607 317.596 40.571 317.446 40.571C317.296 40.571 317.161 40.607 317.041 40.679C316.921 40.751 316.825 40.859 316.753 41.003C316.681 41.141 316.645 41.318 316.645 41.534C316.645 41.744 316.681 41.924 316.753 42.074C316.825 42.218 316.921 42.326 317.041 42.398C317.161 42.47 317.296 42.506 317.446 42.506ZM323.43 44.09C322.866 44.09 322.365 43.982 321.927 43.766C321.489 43.55 321.144 43.25 320.892 42.866C320.646 42.476 320.523 42.032 320.523 41.534C320.523 41.036 320.646 40.595 320.892 40.211C321.144 39.827 321.489 39.527 321.927 39.311C322.365 39.095 322.866 38.987 323.43 38.987C324.03 38.987 324.543 39.116 324.969 39.374C325.395 39.632 325.689 39.989 325.851 40.445L324.276 41.219C324.174 40.991 324.048 40.826 323.898 40.724C323.754 40.622 323.595 40.571 323.421 40.571C323.271 40.571 323.13 40.607 322.998 40.679C322.872 40.751 322.77 40.859 322.692 41.003C322.62 41.141 322.584 41.318 322.584 41.534C322.584 41.75 322.62 41.93 322.692 42.074C322.77 42.218 322.872 42.326 322.998 42.398C323.13 42.47 323.271 42.506 323.421 42.506C323.595 42.506 323.754 42.455 323.898 42.353C324.048 42.251 324.174 42.086 324.276 41.858L325.851 42.632C325.689 43.088 325.395 43.445 324.969 43.703C324.543 43.961 324.03 44.09 323.43 44.09ZM327.499 44V40.229L327.94 40.661H325.996V39.077H331.027V40.661H329.083L329.524 40.229V44H327.499ZM331.522 44V39.077H333.547V41.3L335.248 39.077H337.12V44H335.095V41.768L333.403 44H331.522ZM337.98 44V39.077H342.282V40.661H339.564L340.005 40.229V44H337.98ZM345.647 44V43.127L345.503 42.893V41.237C345.503 40.997 345.428 40.814 345.278 40.688C345.134 40.562 344.897 40.499 344.567 40.499C344.345 40.499 344.12 40.535 343.892 40.607C343.664 40.673 343.469 40.766 343.307 40.886L342.659 39.545C342.947 39.365 343.292 39.227 343.694 39.131C344.096 39.035 344.489 38.987 344.873 38.987C345.719 38.987 346.373 39.176 346.835 39.554C347.303 39.932 347.537 40.532 347.537 41.354V44H345.647ZM344.252 44.09C343.85 44.09 343.514 44.021 343.244 43.883C342.974 43.745 342.77 43.562 342.632 43.334C342.494 43.1 342.425 42.842 342.425 42.56C342.425 42.242 342.506 41.972 342.668 41.75C342.83 41.528 343.076 41.36 343.406 41.246C343.742 41.132 344.165 41.075 344.675 41.075H345.701V42.056H344.999C344.783 42.056 344.624 42.092 344.522 42.164C344.426 42.23 344.378 42.332 344.378 42.47C344.378 42.584 344.42 42.68 344.504 42.758C344.594 42.83 344.714 42.866 344.864 42.866C345.002 42.866 345.128 42.83 345.242 42.758C345.362 42.68 345.449 42.56 345.503 42.398L345.764 43.001C345.686 43.367 345.521 43.64 345.269 43.82C345.017 44 344.678 44.09 344.252 44.09ZM348.276 44V39.077H350.301V41.3L352.002 39.077H353.874V44H351.849V41.768L350.157 44H348.276ZM350.94 38.672C350.31 38.672 349.851 38.546 349.563 38.294C349.281 38.036 349.14 37.637 349.14 37.097H350.445C350.445 37.283 350.478 37.43 350.544 37.538C350.61 37.64 350.739 37.691 350.931 37.691C351.117 37.691 351.246 37.64 351.318 37.538C351.396 37.43 351.435 37.283 351.435 37.097H352.758C352.758 37.637 352.611 38.036 352.317 38.294C352.029 38.546 351.57 38.672 350.94 38.672ZM316.791 54V49.23H317.655V53.244H320.265V49.23H321.129V54H316.791ZM321.066 55.107V53.955L321.282 54H320.265V53.244H321.885V55.107H321.066ZM325.039 54.054C324.529 54.054 324.079 53.949 323.689 53.739C323.305 53.529 323.005 53.241 322.789 52.875C322.579 52.509 322.474 52.089 322.474 51.615C322.474 51.141 322.576 50.721 322.78 50.355C322.99 49.989 323.275 49.704 323.635 49.5C324.001 49.29 324.412 49.185 324.868 49.185C325.33 49.185 325.738 49.287 326.092 49.491C326.446 49.695 326.722 49.983 326.92 50.355C327.124 50.721 327.226 51.15 327.226 51.642C327.226 51.678 327.223 51.72 327.217 51.768C327.217 51.816 327.214 51.861 327.208 51.903H323.149V51.282H326.758L326.407 51.498C326.413 51.192 326.35 50.919 326.218 50.679C326.086 50.439 325.903 50.253 325.669 50.121C325.441 49.983 325.174 49.914 324.868 49.914C324.568 49.914 324.301 49.983 324.067 50.121C323.833 50.253 323.65 50.442 323.518 50.688C323.386 50.928 323.32 51.204 323.32 51.516V51.66C323.32 51.978 323.392 52.263 323.536 52.515C323.686 52.761 323.893 52.953 324.157 53.091C324.421 53.229 324.724 53.298 325.066 53.298C325.348 53.298 325.603 53.25 325.831 53.154C326.065 53.058 326.269 52.914 326.443 52.722L326.92 53.28C326.704 53.532 326.434 53.724 326.11 53.856C325.792 53.988 325.435 54.054 325.039 54.054ZM327.605 53.991L327.659 53.262C327.701 53.268 327.74 53.274 327.776 53.28C327.812 53.286 327.845 53.289 327.875 53.289C328.067 53.289 328.217 53.223 328.325 53.091C328.439 52.959 328.523 52.785 328.577 52.569C328.631 52.347 328.67 52.098 328.694 51.822C328.718 51.546 328.736 51.27 328.748 50.994L328.829 49.23H332.492V54H331.628V49.734L331.835 49.986H329.387L329.585 49.725L329.522 51.048C329.504 51.468 329.471 51.861 329.423 52.227C329.375 52.593 329.3 52.914 329.198 53.19C329.102 53.466 328.967 53.682 328.793 53.838C328.625 53.994 328.406 54.072 328.136 54.072C328.058 54.072 327.974 54.063 327.884 54.045C327.8 54.033 327.707 54.015 327.605 53.991ZM336.197 54.054C335.687 54.054 335.237 53.949 334.847 53.739C334.463 53.529 334.163 53.241 333.947 52.875C333.737 52.509 333.632 52.089 333.632 51.615C333.632 51.141 333.734 50.721 333.938 50.355C334.148 49.989 334.433 49.704 334.793 49.5C335.159 49.29 335.57 49.185 336.026 49.185C336.488 49.185 336.896 49.287 337.25 49.491C337.604 49.695 337.88 49.983 338.078 50.355C338.282 50.721 338.384 51.15 338.384 51.642C338.384 51.678 338.381 51.72 338.375 51.768C338.375 51.816 338.372 51.861 338.366 51.903H334.307V51.282H337.916L337.565 51.498C337.571 51.192 337.508 50.919 337.376 50.679C337.244 50.439 337.061 50.253 336.827 50.121C336.599 49.983 336.332 49.914 336.026 49.914C335.726 49.914 335.459 49.983 335.225 50.121C334.991 50.253 334.808 50.442 334.676 50.688C334.544 50.928 334.478 51.204 334.478 51.516V51.66C334.478 51.978 334.55 52.263 334.694 52.515C334.844 52.761 335.051 52.953 335.315 53.091C335.579 53.229 335.882 53.298 336.224 53.298C336.506 53.298 336.761 53.25 336.989 53.154C337.223 53.058 337.427 52.914 337.601 52.722L338.078 53.28C337.862 53.532 337.592 53.724 337.268 53.856C336.95 53.988 336.593 54.054 336.197 54.054ZM339.634 54V49.23H340.498V52.704L343.423 49.23H344.206V54H343.342V50.526L340.426 54H339.634ZM341.866 48.609C341.428 48.609 341.083 48.504 340.831 48.294C340.585 48.078 340.459 47.769 340.453 47.367H341.038C341.044 47.595 341.119 47.775 341.263 47.907C341.413 48.039 341.611 48.105 341.857 48.105C342.103 48.105 342.301 48.039 342.451 47.907C342.601 47.775 342.679 47.595 342.685 47.367H343.288C343.282 47.769 343.153 48.078 342.901 48.294C342.649 48.504 342.304 48.609 341.866 48.609Z" fill="white"/>
<path d="M380.926 7V0.7H383.635C384.319 0.7 384.856 0.838 385.246 1.114C385.636 1.39 385.831 1.792 385.831 2.32C385.831 2.836 385.645 3.232 385.273 3.508C384.901 3.778 384.412 3.913 383.806 3.913L383.968 3.643C384.67 3.643 385.207 3.784 385.579 4.066C385.957 4.342 386.146 4.747 386.146 5.281C386.146 5.821 385.948 6.244 385.552 6.55C385.162 6.85 384.58 7 383.806 7H380.926ZM381.817 6.289H383.788C384.268 6.289 384.628 6.202 384.868 6.028C385.114 5.848 385.237 5.575 385.237 5.209C385.237 4.843 385.114 4.576 384.868 4.408C384.628 4.24 384.268 4.156 383.788 4.156H381.817V6.289ZM381.817 3.472H383.572C384.01 3.472 384.343 3.385 384.571 3.211C384.805 3.037 384.922 2.782 384.922 2.446C384.922 2.104 384.805 1.846 384.571 1.672C384.343 1.498 384.01 1.411 383.572 1.411H381.817V3.472ZM392.131 7V2.23H392.995V7H392.131ZM389.566 3.85C390.172 3.856 390.631 3.994 390.943 4.264C391.261 4.534 391.42 4.915 391.42 5.407C391.42 5.923 391.246 6.322 390.898 6.604C390.556 6.88 390.064 7.015 389.422 7.009L387.415 7V2.23H388.279V3.841L389.566 3.85ZM389.359 6.352C389.743 6.358 390.037 6.28 390.241 6.118C390.445 5.956 390.547 5.716 390.547 5.398C390.547 5.086 390.445 4.858 390.241 4.714C390.043 4.57 389.749 4.495 389.359 4.489L388.279 4.471V6.343L389.359 6.352ZM393.829 7L395.881 4.336L395.872 4.777L393.919 2.23H394.882L396.376 4.192H396.007L397.501 2.23H398.446L396.466 4.795L396.475 4.336L398.545 7H397.564L395.989 4.912L396.34 4.966L394.792 7H393.829ZM401.249 7.054C400.769 7.054 400.343 6.949 399.971 6.739C399.599 6.529 399.305 6.241 399.089 5.875C398.873 5.503 398.765 5.083 398.765 4.615C398.765 4.141 398.873 3.721 399.089 3.355C399.305 2.989 399.599 2.704 399.971 2.5C400.343 2.29 400.769 2.185 401.249 2.185C401.723 2.185 402.146 2.29 402.518 2.5C402.896 2.704 403.19 2.989 403.4 3.355C403.616 3.715 403.724 4.135 403.724 4.615C403.724 5.089 403.616 5.509 403.4 5.875C403.19 6.241 402.896 6.529 402.518 6.739C402.146 6.949 401.723 7.054 401.249 7.054ZM401.249 6.298C401.555 6.298 401.828 6.229 402.068 6.091C402.314 5.953 402.506 5.758 402.644 5.506C402.782 5.248 402.851 4.951 402.851 4.615C402.851 4.273 402.782 3.979 402.644 3.733C402.506 3.481 402.314 3.286 402.068 3.148C401.828 3.01 401.555 2.941 401.249 2.941C400.943 2.941 400.67 3.01 400.43 3.148C400.19 3.286 399.998 3.481 399.854 3.733C399.71 3.979 399.638 4.273 399.638 4.615C399.638 4.951 399.71 5.248 399.854 5.506C399.998 5.758 400.19 5.953 400.43 6.091C400.67 6.229 400.943 6.298 401.249 6.298ZM408.105 6.595V2.986H406.035L405.99 3.904C405.978 4.204 405.957 4.495 405.927 4.777C405.903 5.053 405.861 5.308 405.801 5.542C405.747 5.776 405.666 5.968 405.558 6.118C405.45 6.268 405.306 6.361 405.126 6.397L404.271 6.244C404.457 6.25 404.607 6.19 404.721 6.064C404.835 5.932 404.922 5.752 404.982 5.524C405.048 5.296 405.096 5.038 405.126 4.75C405.156 4.456 405.18 4.153 405.198 3.841L405.27 2.23H408.969V6.595H408.105ZM404.082 8.107V6.244H409.698V8.107H408.888V7H404.901V8.107H404.082ZM410.733 7V2.23H411.597V5.704L414.522 2.23H415.305V7H414.441V3.526L411.525 7H410.733ZM375.045 17V12.077H377.07V13.805H378.456V12.077H380.481V17H378.456V15.398H377.07V17H375.045ZM384.216 17V16.127L384.072 15.893V14.237C384.072 13.997 383.997 13.814 383.847 13.688C383.703 13.562 383.466 13.499 383.136 13.499C382.914 13.499 382.689 13.535 382.461 13.607C382.233 13.673 382.038 13.766 381.876 13.886L381.228 12.545C381.516 12.365 381.861 12.227 382.263 12.131C382.665 12.035 383.058 11.987 383.442 11.987C384.288 11.987 384.942 12.176 385.404 12.554C385.872 12.932 386.106 13.532 386.106 14.354V17H384.216ZM382.821 17.09C382.419 17.09 382.083 17.021 381.813 16.883C381.543 16.745 381.339 16.562 381.201 16.334C381.063 16.1 380.994 15.842 380.994 15.56C380.994 15.242 381.075 14.972 381.237 14.75C381.399 14.528 381.645 14.36 381.975 14.246C382.311 14.132 382.734 14.075 383.244 14.075H384.27V15.056H383.568C383.352 15.056 383.193 15.092 383.091 15.164C382.995 15.23 382.947 15.332 382.947 15.47C382.947 15.584 382.989 15.68 383.073 15.758C383.163 15.83 383.283 15.866 383.433 15.866C383.571 15.866 383.697 15.83 383.811 15.758C383.931 15.68 384.018 15.56 384.072 15.398L384.333 16.001C384.255 16.367 384.09 16.64 383.838 16.82C383.586 17 383.247 17.09 382.821 17.09ZM389.453 17V12.077H391.478V13.805H392.864V12.077H394.889V17H392.864V15.398H391.478V17H389.453ZM398.29 17.09C397.732 17.09 397.237 16.982 396.805 16.766C396.379 16.544 396.043 16.241 395.797 15.857C395.551 15.473 395.428 15.032 395.428 14.534C395.428 14.036 395.551 13.595 395.797 13.211C396.043 12.827 396.379 12.527 396.805 12.311C397.237 12.095 397.732 11.987 398.29 11.987C398.848 11.987 399.343 12.095 399.775 12.311C400.207 12.527 400.543 12.827 400.783 13.211C401.029 13.595 401.152 14.036 401.152 14.534C401.152 15.032 401.029 15.473 400.783 15.857C400.543 16.241 400.207 16.544 399.775 16.766C399.343 16.982 398.848 17.09 398.29 17.09ZM398.29 15.506C398.44 15.506 398.575 15.47 398.695 15.398C398.815 15.326 398.911 15.218 398.983 15.074C399.055 14.924 399.091 14.744 399.091 14.534C399.091 14.318 399.055 14.141 398.983 14.003C398.911 13.859 398.815 13.751 398.695 13.679C398.575 13.607 398.44 13.571 398.29 13.571C398.14 13.571 398.005 13.607 397.885 13.679C397.765 13.751 397.669 13.859 397.597 14.003C397.525 14.141 397.489 14.318 397.489 14.534C397.489 14.744 397.525 14.924 397.597 15.074C397.669 15.218 397.765 15.326 397.885 15.398C398.005 15.47 398.14 15.506 398.29 15.506ZM401.692 17V12.077H404.455C405.115 12.077 405.628 12.191 405.994 12.419C406.36 12.641 406.543 12.956 406.543 13.364C406.543 13.76 406.375 14.078 406.039 14.318C405.703 14.552 405.25 14.669 404.68 14.669L404.833 14.255C405.439 14.255 405.898 14.366 406.21 14.588C406.528 14.81 406.687 15.134 406.687 15.56C406.687 15.998 406.513 16.349 406.165 16.613C405.823 16.871 405.301 17 404.599 17H401.692ZM403.474 15.74H404.419C404.569 15.74 404.68 15.707 404.752 15.641C404.824 15.575 404.86 15.485 404.86 15.371C404.86 15.251 404.824 15.164 404.752 15.11C404.68 15.05 404.569 15.02 404.419 15.02H403.474V15.74ZM403.474 14.021H404.275C404.431 14.021 404.542 13.991 404.608 13.931C404.68 13.871 404.716 13.784 404.716 13.67C404.716 13.55 404.68 13.466 404.608 13.418C404.542 13.364 404.431 13.337 404.275 13.337H403.474V14.021ZM412.563 17V12.077H414.588V17H412.563ZM410.304 13.562C410.964 13.562 411.456 13.706 411.78 13.994C412.104 14.282 412.266 14.69 412.266 15.218C412.266 15.77 412.074 16.205 411.69 16.523C411.312 16.841 410.766 17 410.052 17H407.262V12.077H409.287V13.562H410.304ZM409.845 15.632C409.983 15.632 410.091 15.596 410.169 15.524C410.247 15.452 410.286 15.338 410.286 15.182C410.286 15.026 410.247 14.915 410.169 14.849C410.091 14.783 409.983 14.75 409.845 14.75H409.287V15.632H409.845ZM415.451 17V12.077H417.476V14.3L419.177 12.077H421.049V17H419.024V14.768L417.332 17H415.451ZM418.115 11.672C417.485 11.672 417.026 11.546 416.738 11.294C416.456 11.036 416.315 10.637 416.315 10.097H417.62C417.62 10.283 417.653 10.43 417.719 10.538C417.785 10.64 417.914 10.691 418.106 10.691C418.292 10.691 418.421 10.64 418.493 10.538C418.571 10.43 418.61 10.283 418.61 10.097H419.933C419.933 10.637 419.786 11.036 419.492 11.294C419.204 11.546 418.745 11.672 418.115 11.672ZM378.876 28.836C378.606 28.836 378.33 28.794 378.048 28.71C377.772 28.632 377.55 28.527 377.382 28.395L378.057 27C378.159 27.078 378.273 27.141 378.399 27.189C378.531 27.237 378.657 27.261 378.777 27.261C378.957 27.261 379.095 27.222 379.191 27.144C379.287 27.072 379.365 26.961 379.425 26.811L379.632 26.289L379.776 26.091L381.351 22.077H383.277L381.252 27.099C381.072 27.549 380.862 27.9 380.622 28.152C380.388 28.404 380.124 28.581 379.83 28.683C379.542 28.785 379.224 28.836 378.876 28.836ZM379.353 27.225L377.211 22.077H379.299L380.775 25.911L379.353 27.225ZM386.921 27.09C386.495 27.09 386.141 27 385.859 26.82C385.583 26.634 385.379 26.355 385.247 25.983C385.115 25.605 385.049 25.125 385.049 24.543C385.049 23.949 385.109 23.466 385.229 23.094C385.355 22.716 385.556 22.437 385.832 22.257C386.108 22.077 386.471 21.987 386.921 21.987C387.353 21.987 387.749 22.092 388.109 22.302C388.469 22.506 388.757 22.8 388.973 23.184C389.189 23.562 389.297 24.015 389.297 24.543C389.297 25.071 389.189 25.527 388.973 25.911C388.757 26.289 388.469 26.58 388.109 26.784C387.749 26.988 387.353 27.09 386.921 27.09ZM383.636 28.746V22.077H385.571V22.743L385.58 24.543L385.67 26.343V28.746H383.636ZM386.435 25.506C386.585 25.506 386.72 25.47 386.84 25.398C386.96 25.326 387.056 25.218 387.128 25.074C387.2 24.93 387.236 24.753 387.236 24.543C387.236 24.327 387.2 24.147 387.128 24.003C387.056 23.859 386.96 23.751 386.84 23.679C386.72 23.607 386.585 23.571 386.435 23.571C386.285 23.571 386.15 23.607 386.03 23.679C385.91 23.751 385.814 23.859 385.742 24.003C385.67 24.147 385.634 24.327 385.634 24.543C385.634 24.753 385.67 24.93 385.742 25.074C385.814 25.218 385.91 25.326 386.03 25.398C386.15 25.47 386.285 25.506 386.435 25.506ZM392.404 27.09C391.846 27.09 391.351 26.982 390.919 26.766C390.493 26.544 390.157 26.241 389.911 25.857C389.665 25.473 389.542 25.032 389.542 24.534C389.542 24.036 389.665 23.595 389.911 23.211C390.157 22.827 390.493 22.527 390.919 22.311C391.351 22.095 391.846 21.987 392.404 21.987C392.962 21.987 393.457 22.095 393.889 22.311C394.321 22.527 394.657 22.827 394.897 23.211C395.143 23.595 395.266 24.036 395.266 24.534C395.266 25.032 395.143 25.473 394.897 25.857C394.657 26.241 394.321 26.544 393.889 26.766C393.457 26.982 392.962 27.09 392.404 27.09ZM392.404 25.506C392.554 25.506 392.689 25.47 392.809 25.398C392.929 25.326 393.025 25.218 393.097 25.074C393.169 24.924 393.205 24.744 393.205 24.534C393.205 24.318 393.169 24.141 393.097 24.003C393.025 23.859 392.929 23.751 392.809 23.679C392.689 23.607 392.554 23.571 392.404 23.571C392.254 23.571 392.119 23.607 391.999 23.679C391.879 23.751 391.783 23.859 391.711 24.003C391.639 24.141 391.603 24.318 391.603 24.534C391.603 24.744 391.639 24.924 391.711 25.074C391.783 25.218 391.879 25.326 391.999 25.398C392.119 25.47 392.254 25.506 392.404 25.506ZM395.805 27V22.077H398.568C399.228 22.077 399.741 22.191 400.107 22.419C400.473 22.641 400.656 22.956 400.656 23.364C400.656 23.76 400.488 24.078 400.152 24.318C399.816 24.552 399.363 24.669 398.793 24.669L398.946 24.255C399.552 24.255 400.011 24.366 400.323 24.588C400.641 24.81 400.8 25.134 400.8 25.56C400.8 25.998 400.626 26.349 400.278 26.613C399.936 26.871 399.414 27 398.712 27H395.805ZM397.587 25.74H398.532C398.682 25.74 398.793 25.707 398.865 25.641C398.937 25.575 398.973 25.485 398.973 25.371C398.973 25.251 398.937 25.164 398.865 25.11C398.793 25.05 398.682 25.02 398.532 25.02H397.587V25.74ZM397.587 24.021H398.388C398.544 24.021 398.655 23.991 398.721 23.931C398.793 23.871 398.829 23.784 398.829 23.67C398.829 23.55 398.793 23.466 398.721 23.418C398.655 23.364 398.544 23.337 398.388 23.337H397.587V24.021ZM404.03 27.09C403.43 27.09 402.905 26.979 402.455 26.757C402.011 26.535 401.666 26.232 401.42 25.848C401.174 25.458 401.051 25.02 401.051 24.534C401.051 24.036 401.171 23.595 401.411 23.211C401.657 22.827 401.99 22.527 402.41 22.311C402.836 22.095 403.313 21.987 403.841 21.987C404.327 21.987 404.774 22.083 405.182 22.275C405.596 22.467 405.926 22.752 406.172 23.13C406.424 23.508 406.55 23.976 406.55 24.534C406.55 24.606 406.547 24.687 406.541 24.777C406.535 24.861 406.529 24.939 406.523 25.011H402.734V24.03H405.443L404.678 24.291C404.678 24.099 404.642 23.937 404.57 23.805C404.504 23.667 404.411 23.562 404.291 23.49C404.171 23.412 404.027 23.373 403.859 23.373C403.691 23.373 403.544 23.412 403.418 23.49C403.298 23.562 403.205 23.667 403.139 23.805C403.073 23.937 403.04 24.099 403.04 24.291V24.597C403.04 24.807 403.082 24.987 403.166 25.137C403.25 25.287 403.37 25.401 403.526 25.479C403.682 25.551 403.871 25.587 404.093 25.587C404.321 25.587 404.507 25.557 404.651 25.497C404.801 25.437 404.957 25.347 405.119 25.227L406.181 26.298C405.941 26.556 405.644 26.754 405.29 26.892C404.942 27.024 404.522 27.09 404.03 27.09ZM407.192 27V22.077H409.217V23.805H410.603V22.077H412.628V27H410.603V25.398H409.217V27H407.192ZM416.605 23.562C417.265 23.562 417.772 23.706 418.126 23.994C418.48 24.282 418.657 24.69 418.657 25.218C418.657 25.77 418.45 26.205 418.036 26.523C417.628 26.841 417.067 27 416.353 27H413.491V22.077H415.516V23.562H416.605ZM416.146 25.632C416.284 25.632 416.392 25.596 416.47 25.524C416.548 25.452 416.587 25.338 416.587 25.182C416.587 25.026 416.548 24.915 416.47 24.849C416.392 24.783 416.284 24.75 416.146 24.75H415.516V25.632H416.146Z" fill="white"/>
<path d="M14.9389 99.144C14.4349 99.144 13.9669 99.066 13.5349 98.91C13.1089 98.748 12.7369 98.52 12.4189 98.226C12.1069 97.932 11.8639 97.584 11.6899 97.182C11.5159 96.78 11.4289 96.336 11.4289 95.85C11.4289 95.364 11.5159 94.92 11.6899 94.518C11.8639 94.116 12.1069 93.768 12.4189 93.474C12.7369 93.18 13.1089 92.955 13.5349 92.799C13.9669 92.637 14.4349 92.556 14.9389 92.556C15.5569 92.556 16.1029 92.664 16.5769 92.88C17.0569 93.096 17.4529 93.408 17.7649 93.816L16.4239 95.013C16.2379 94.779 16.0309 94.599 15.8029 94.473C15.5809 94.341 15.3289 94.275 15.0469 94.275C14.8249 94.275 14.6239 94.311 14.4439 94.383C14.2639 94.455 14.1079 94.56 13.9759 94.698C13.8499 94.836 13.7509 95.004 13.6789 95.202C13.6069 95.394 13.5709 95.61 13.5709 95.85C13.5709 96.09 13.6069 96.309 13.6789 96.507C13.7509 96.699 13.8499 96.864 13.9759 97.002C14.1079 97.14 14.2639 97.245 14.4439 97.317C14.6239 97.389 14.8249 97.425 15.0469 97.425C15.3289 97.425 15.5809 97.362 15.8029 97.236C16.0309 97.104 16.2379 96.921 16.4239 96.687L17.7649 97.884C17.4529 98.286 17.0569 98.598 16.5769 98.82C16.1029 99.036 15.5569 99.144 14.9389 99.144ZM21.839 99.144C21.821 99.144 21.773 99.144 21.695 99.144C21.617 99.144 21.539 99.144 21.461 99.144C21.389 99.144 21.344 99.144 21.326 99.144C20.186 99.126 19.31 98.898 18.698 98.46C18.086 98.016 17.78 97.368 17.78 96.516C17.78 95.676 18.08 95.046 18.68 94.626C19.286 94.2 20.177 93.981 21.353 93.969C21.365 93.969 21.407 93.969 21.479 93.969C21.557 93.969 21.632 93.969 21.704 93.969C21.782 93.969 21.827 93.969 21.839 93.969C23.033 93.969 23.951 94.182 24.593 94.608C25.235 95.028 25.556 95.664 25.556 96.516C25.556 97.386 25.235 98.043 24.593 98.487C23.951 98.925 23.033 99.144 21.839 99.144ZM21.758 97.74C22.232 97.74 22.604 97.701 22.874 97.623C23.15 97.539 23.345 97.407 23.459 97.227C23.579 97.047 23.639 96.81 23.639 96.516C23.639 96.234 23.582 96.012 23.468 95.85C23.354 95.682 23.159 95.562 22.883 95.49C22.613 95.412 22.238 95.373 21.758 95.373C21.74 95.373 21.692 95.373 21.614 95.373C21.536 95.373 21.485 95.373 21.461 95.373C21.017 95.373 20.666 95.415 20.408 95.499C20.15 95.577 19.967 95.7 19.859 95.868C19.757 96.03 19.706 96.246 19.706 96.516C19.706 96.804 19.757 97.038 19.859 97.218C19.967 97.392 20.147 97.521 20.399 97.605C20.657 97.689 21.008 97.734 21.452 97.74C21.476 97.74 21.527 97.74 21.605 97.74C21.683 97.74 21.734 97.74 21.758 97.74ZM20.786 100.746V92.322H22.55V100.746H20.786ZM28.6465 99.09C28.0885 99.09 27.5935 98.982 27.1615 98.766C26.7355 98.544 26.3995 98.241 26.1535 97.857C25.9075 97.473 25.7845 97.032 25.7845 96.534C25.7845 96.036 25.9075 95.595 26.1535 95.211C26.3995 94.827 26.7355 94.527 27.1615 94.311C27.5935 94.095 28.0885 93.987 28.6465 93.987C29.2045 93.987 29.6995 94.095 30.1315 94.311C30.5635 94.527 30.8995 94.827 31.1395 95.211C31.3855 95.595 31.5085 96.036 31.5085 96.534C31.5085 97.032 31.3855 97.473 31.1395 97.857C30.8995 98.241 30.5635 98.544 30.1315 98.766C29.6995 98.982 29.2045 99.09 28.6465 99.09ZM28.6465 97.506C28.7965 97.506 28.9315 97.47 29.0515 97.398C29.1715 97.326 29.2675 97.218 29.3395 97.074C29.4115 96.924 29.4475 96.744 29.4475 96.534C29.4475 96.318 29.4115 96.141 29.3395 96.003C29.2675 95.859 29.1715 95.751 29.0515 95.679C28.9315 95.607 28.7965 95.571 28.6465 95.571C28.4965 95.571 28.3615 95.607 28.2415 95.679C28.1215 95.751 28.0255 95.859 27.9535 96.003C27.8815 96.141 27.8455 96.318 27.8455 96.534C27.8455 96.744 27.8815 96.924 27.9535 97.074C28.0255 97.218 28.1215 97.326 28.2415 97.398C28.3615 97.47 28.4965 97.506 28.6465 97.506ZM35.4498 99L34.0998 96.741L35.7378 95.787L37.8438 99H35.4498ZM32.0478 99V94.077H34.0818V99H32.0478ZM33.4878 97.362V95.805H35.3238V97.362H33.4878ZM35.9448 96.759L34.0368 96.579L35.6028 94.077H37.7448L35.9448 96.759ZM39.0953 100.836C38.8253 100.836 38.5493 100.794 38.2673 100.71C37.9913 100.632 37.7693 100.527 37.6013 100.395L38.2763 99C38.3783 99.078 38.4923 99.141 38.6183 99.189C38.7503 99.237 38.8763 99.261 38.9963 99.261C39.1763 99.261 39.3143 99.222 39.4103 99.144C39.5063 99.072 39.5843 98.961 39.6443 98.811L39.8513 98.289L39.9953 98.091L41.5703 94.077H43.4963L41.4713 99.099C41.2913 99.549 41.0813 99.9 40.8413 100.152C40.6073 100.404 40.3433 100.581 40.0493 100.683C39.7613 100.785 39.4433 100.836 39.0953 100.836ZM39.5723 99.225L37.4303 94.077H39.5183L40.9943 97.911L39.5723 99.225ZM46.3072 99.09C45.7432 99.09 45.2422 98.982 44.8042 98.766C44.3662 98.55 44.0212 98.25 43.7692 97.866C43.5232 97.476 43.4002 97.032 43.4002 96.534C43.4002 96.036 43.5232 95.595 43.7692 95.211C44.0212 94.827 44.3662 94.527 44.8042 94.311C45.2422 94.095 45.7432 93.987 46.3072 93.987C46.9072 93.987 47.4202 94.116 47.8462 94.374C48.2722 94.632 48.5662 94.989 48.7282 95.445L47.1532 96.219C47.0512 95.991 46.9252 95.826 46.7752 95.724C46.6312 95.622 46.4722 95.571 46.2982 95.571C46.1482 95.571 46.0072 95.607 45.8752 95.679C45.7492 95.751 45.6472 95.859 45.5692 96.003C45.4972 96.141 45.4612 96.318 45.4612 96.534C45.4612 96.75 45.4972 96.93 45.5692 97.074C45.6472 97.218 45.7492 97.326 45.8752 97.398C46.0072 97.47 46.1482 97.506 46.2982 97.506C46.4722 97.506 46.6312 97.455 46.7752 97.353C46.9252 97.251 47.0512 97.086 47.1532 96.858L48.7282 97.632C48.5662 98.088 48.2722 98.445 47.8462 98.703C47.4202 98.961 46.9072 99.09 46.3072 99.09ZM49.1977 99V94.077H51.2227V96.3L52.9237 94.077H54.7957V99H52.7707V96.768L51.0787 99H49.1977ZM58.9406 99.09C58.5146 99.09 58.1606 99 57.8786 98.82C57.6026 98.634 57.3986 98.355 57.2666 97.983C57.1346 97.605 57.0686 97.125 57.0686 96.543C57.0686 95.949 57.1286 95.466 57.2486 95.094C57.3746 94.716 57.5756 94.437 57.8516 94.257C58.1276 94.077 58.4906 93.987 58.9406 93.987C59.3726 93.987 59.7686 94.092 60.1286 94.302C60.4886 94.506 60.7766 94.8 60.9926 95.184C61.2086 95.562 61.3166 96.015 61.3166 96.543C61.3166 97.071 61.2086 97.527 60.9926 97.911C60.7766 98.289 60.4886 98.58 60.1286 98.784C59.7686 98.988 59.3726 99.09 58.9406 99.09ZM55.6556 100.746V94.077H57.5906V94.743L57.5996 96.543L57.6896 98.343V100.746H55.6556ZM58.4546 97.506C58.6046 97.506 58.7396 97.47 58.8596 97.398C58.9796 97.326 59.0756 97.218 59.1476 97.074C59.2196 96.93 59.2556 96.753 59.2556 96.543C59.2556 96.327 59.2196 96.147 59.1476 96.003C59.0756 95.859 58.9796 95.751 58.8596 95.679C58.7396 95.607 58.6046 95.571 58.4546 95.571C58.3046 95.571 58.1696 95.607 58.0496 95.679C57.9296 95.751 57.8336 95.859 57.7616 96.003C57.6896 96.147 57.6536 96.327 57.6536 96.543C57.6536 96.753 57.6896 96.93 57.7616 97.074C57.8336 97.218 57.9296 97.326 58.0496 97.398C58.1696 97.47 58.3046 97.506 58.4546 97.506ZM62.9141 100.836C62.6441 100.836 62.3681 100.794 62.0861 100.71C61.8101 100.632 61.5881 100.527 61.4201 100.395L62.0951 99C62.1971 99.078 62.3111 99.141 62.4371 99.189C62.5691 99.237 62.6951 99.261 62.8151 99.261C62.9951 99.261 63.1331 99.222 63.2291 99.144C63.3251 99.072 63.4031 98.961 63.4631 98.811L63.6701 98.289L63.8141 98.091L65.3891 94.077H67.3151L65.2901 99.099C65.1101 99.549 64.9001 99.9 64.6601 100.152C64.4261 100.404 64.1621 100.581 63.8681 100.683C63.5801 100.785 63.2621 100.836 62.9141 100.836ZM63.3911 99.225L61.2491 94.077H63.3371L64.8131 97.911L63.3911 99.225ZM67.6748 99V94.077H69.6998V96.3L71.4008 94.077H73.2728V99H71.2478V96.768L69.5558 99H67.6748ZM70.3388 93.672C69.7088 93.672 69.2498 93.546 68.9618 93.294C68.6798 93.036 68.5388 92.637 68.5388 92.097H69.8438C69.8438 92.283 69.8768 92.43 69.9428 92.538C70.0088 92.64 70.1378 92.691 70.3298 92.691C70.5158 92.691 70.6448 92.64 70.7168 92.538C70.7948 92.43 70.8338 92.283 70.8338 92.097H72.1568C72.1568 92.637 72.0098 93.036 71.7158 93.294C71.4278 93.546 70.9688 93.672 70.3388 93.672ZM76.7156 99.09C76.1516 99.09 75.6506 98.982 75.2126 98.766C74.7746 98.55 74.4296 98.25 74.1776 97.866C73.9316 97.476 73.8086 97.032 73.8086 96.534C73.8086 96.036 73.9316 95.595 74.1776 95.211C74.4296 94.827 74.7746 94.527 75.2126 94.311C75.6506 94.095 76.1516 93.987 76.7156 93.987C77.3156 93.987 77.8286 94.116 78.2546 94.374C78.6806 94.632 78.9746 94.989 79.1366 95.445L77.5616 96.219C77.4596 95.991 77.3336 95.826 77.1836 95.724C77.0396 95.622 76.8806 95.571 76.7066 95.571C76.5566 95.571 76.4156 95.607 76.2836 95.679C76.1576 95.751 76.0556 95.859 75.9776 96.003C75.9056 96.141 75.8696 96.318 75.8696 96.534C75.8696 96.75 75.9056 96.93 75.9776 97.074C76.0556 97.218 76.1576 97.326 76.2836 97.398C76.4156 97.47 76.5566 97.506 76.7066 97.506C76.8806 97.506 77.0396 97.455 77.1836 97.353C77.3336 97.251 77.4596 97.086 77.5616 96.858L79.1366 97.632C78.9746 98.088 78.6806 98.445 78.2546 98.703C77.8286 98.961 77.3156 99.09 76.7156 99.09ZM82.5962 99V97.452L82.8482 97.749H81.7232C80.9612 97.749 80.3582 97.596 79.9142 97.29C79.4702 96.978 79.2482 96.54 79.2482 95.976C79.2482 95.376 79.4762 94.911 79.9322 94.581C80.3942 94.245 81.0182 94.077 81.8042 94.077H84.3962V99H82.5962ZM79.1492 99L80.4362 97.137H82.4882L81.3002 99H79.1492ZM82.5962 96.849V95.166L82.8482 95.652H81.8492C81.6812 95.652 81.5522 95.685 81.4622 95.751C81.3722 95.811 81.3272 95.91 81.3272 96.048C81.3272 96.336 81.5012 96.48 81.8492 96.48H82.8482L82.5962 96.849ZM21.9787 109V104.077H24.0037V105.805H25.3897V104.077H27.4147V109H25.3897V107.398H24.0037V109H21.9787ZM31.1493 109V108.127L31.0053 107.893V106.237C31.0053 105.997 30.9303 105.814 30.7803 105.688C30.6363 105.562 30.3993 105.499 30.0693 105.499C29.8473 105.499 29.6223 105.535 29.3943 105.607C29.1663 105.673 28.9713 105.766 28.8093 105.886L28.1613 104.545C28.4493 104.365 28.7943 104.227 29.1963 104.131C29.5983 104.035 29.9913 103.987 30.3753 103.987C31.2213 103.987 31.8753 104.176 32.3373 104.554C32.8053 104.932 33.0393 105.532 33.0393 106.354V109H31.1493ZM29.7543 109.09C29.3523 109.09 29.0163 109.021 28.7463 108.883C28.4763 108.745 28.2723 108.562 28.1343 108.334C27.9963 108.1 27.9273 107.842 27.9273 107.56C27.9273 107.242 28.0083 106.972 28.1703 106.75C28.3323 106.528 28.5783 106.36 28.9083 106.246C29.2443 106.132 29.6673 106.075 30.1773 106.075H31.2033V107.056H30.5013C30.2853 107.056 30.1263 107.092 30.0243 107.164C29.9283 107.23 29.8803 107.332 29.8803 107.47C29.8803 107.584 29.9223 107.68 30.0063 107.758C30.0963 107.83 30.2163 107.866 30.3663 107.866C30.5043 107.866 30.6303 107.83 30.7443 107.758C30.8643 107.68 30.9513 107.56 31.0053 107.398L31.2663 108.001C31.1883 108.367 31.0233 108.64 30.7713 108.82C30.5193 109 30.1803 109.09 29.7543 109.09ZM36.3864 109V104.077H39.1494C39.8094 104.077 40.3224 104.191 40.6884 104.419C41.0544 104.641 41.2374 104.956 41.2374 105.364C41.2374 105.76 41.0694 106.078 40.7334 106.318C40.3974 106.552 39.9444 106.669 39.3744 106.669L39.5274 106.255C40.1334 106.255 40.5924 106.366 40.9044 106.588C41.2224 106.81 41.3814 107.134 41.3814 107.56C41.3814 107.998 41.2074 108.349 40.8594 108.613C40.5174 108.871 39.9954 109 39.2934 109H36.3864ZM38.1684 107.74H39.1134C39.2634 107.74 39.3744 107.707 39.4464 107.641C39.5184 107.575 39.5544 107.485 39.5544 107.371C39.5544 107.251 39.5184 107.164 39.4464 107.11C39.3744 107.05 39.2634 107.02 39.1134 107.02H38.1684V107.74ZM38.1684 106.021H38.9694C39.1254 106.021 39.2364 105.991 39.3024 105.931C39.3744 105.871 39.4104 105.784 39.4104 105.67C39.4104 105.55 39.3744 105.466 39.3024 105.418C39.2364 105.364 39.1254 105.337 38.9694 105.337H38.1684V106.021ZM44.8276 109V108.127L44.6836 107.893V106.237C44.6836 105.997 44.6086 105.814 44.4586 105.688C44.3146 105.562 44.0776 105.499 43.7476 105.499C43.5256 105.499 43.3006 105.535 43.0726 105.607C42.8446 105.673 42.6496 105.766 42.4876 105.886L41.8396 104.545C42.1276 104.365 42.4726 104.227 42.8746 104.131C43.2766 104.035 43.6696 103.987 44.0536 103.987C44.8996 103.987 45.5536 104.176 46.0156 104.554C46.4836 104.932 46.7176 105.532 46.7176 106.354V109H44.8276ZM43.4326 109.09C43.0306 109.09 42.6946 109.021 42.4246 108.883C42.1546 108.745 41.9506 108.562 41.8126 108.334C41.6746 108.1 41.6056 107.842 41.6056 107.56C41.6056 107.242 41.6866 106.972 41.8486 106.75C42.0106 106.528 42.2566 106.36 42.5866 106.246C42.9226 106.132 43.3456 106.075 43.8556 106.075H44.8816V107.056H44.1796C43.9636 107.056 43.8046 107.092 43.7026 107.164C43.6066 107.23 43.5586 107.332 43.5586 107.47C43.5586 107.584 43.6006 107.68 43.6846 107.758C43.7746 107.83 43.8946 107.866 44.0446 107.866C44.1826 107.866 44.3086 107.83 44.4226 107.758C44.5426 107.68 44.6296 107.56 44.6836 107.398L44.9446 108.001C44.8666 108.367 44.7016 108.64 44.4496 108.82C44.1976 109 43.8586 109.09 43.4326 109.09ZM53.4954 109L52.4694 106.741L54.1074 105.787L55.8984 109H53.4954ZM51.8484 107.362V105.805H53.6754V107.362H51.8484ZM54.3144 106.759L52.4064 106.579L53.6574 104.077H55.7994L54.3144 106.759ZM49.3644 109H46.9704L48.7524 105.787L50.3904 106.741L49.3644 109ZM52.4424 109H50.4354V104.077H52.4424V109ZM51.0204 107.362H49.1934V105.805H51.0204V107.362ZM48.5454 106.759L47.0694 104.077H49.2114L50.4444 106.579L48.5454 106.759ZM56.2785 109V104.077H58.3035V105.805H59.6895V104.077H61.7145V109H59.6895V107.398H58.3035V109H56.2785ZM65.1162 109.09C64.5582 109.09 64.0632 108.982 63.6312 108.766C63.2052 108.544 62.8692 108.241 62.6232 107.857C62.3772 107.473 62.2542 107.032 62.2542 106.534C62.2542 106.036 62.3772 105.595 62.6232 105.211C62.8692 104.827 63.2052 104.527 63.6312 104.311C64.0632 104.095 64.5582 103.987 65.1162 103.987C65.6742 103.987 66.1692 104.095 66.6012 104.311C67.0332 104.527 67.3692 104.827 67.6092 105.211C67.8552 105.595 67.9782 106.036 67.9782 106.534C67.9782 107.032 67.8552 107.473 67.6092 107.857C67.3692 108.241 67.0332 108.544 66.6012 108.766C66.1692 108.982 65.6742 109.09 65.1162 109.09ZM65.1162 107.506C65.2662 107.506 65.4012 107.47 65.5212 107.398C65.6412 107.326 65.7372 107.218 65.8092 107.074C65.8812 106.924 65.9172 106.744 65.9172 106.534C65.9172 106.318 65.8812 106.141 65.8092 106.003C65.7372 105.859 65.6412 105.751 65.5212 105.679C65.4012 105.607 65.2662 105.571 65.1162 105.571C64.9662 105.571 64.8312 105.607 64.7112 105.679C64.5912 105.751 64.4952 105.859 64.4232 106.003C64.3512 106.141 64.3152 106.318 64.3152 106.534C64.3152 106.744 64.3512 106.924 64.4232 107.074C64.4952 107.218 64.5912 107.326 64.7112 107.398C64.8312 107.47 64.9662 107.506 65.1162 107.506ZM68.5175 109V104.077H70.5425V106.3L72.2435 104.077H74.1155V109H72.0905V106.768L70.3985 109H68.5175ZM71.1815 103.672C70.5515 103.672 70.0925 103.546 69.8045 103.294C69.5225 103.036 69.3815 102.637 69.3815 102.097H70.6865C70.6865 102.283 70.7195 102.43 70.7855 102.538C70.8515 102.64 70.9805 102.691 71.1725 102.691C71.3585 102.691 71.4875 102.64 71.5595 102.538C71.6375 102.43 71.6765 102.283 71.6765 102.097H72.9995C72.9995 102.637 72.8525 103.036 72.5585 103.294C72.2705 103.546 71.8115 103.672 71.1815 103.672ZM19.7122 119.054C19.2262 119.054 18.7912 118.949 18.4072 118.739C18.0292 118.529 17.7322 118.241 17.5162 117.875C17.3002 117.509 17.1922 117.089 17.1922 116.615C17.1922 116.141 17.3002 115.721 17.5162 115.355C17.7322 114.989 18.0292 114.704 18.4072 114.5C18.7912 114.29 19.2262 114.185 19.7122 114.185C20.1442 114.185 20.5282 114.272 20.8642 114.446C21.2062 114.614 21.4702 114.866 21.6562 115.202L20.9992 115.625C20.8432 115.391 20.6512 115.22 20.4232 115.112C20.2012 114.998 19.9612 114.941 19.7032 114.941C19.3912 114.941 19.1122 115.01 18.8662 115.148C18.6202 115.286 18.4252 115.481 18.2812 115.733C18.1372 115.979 18.0652 116.273 18.0652 116.615C18.0652 116.957 18.1372 117.254 18.2812 117.506C18.4252 117.758 18.6202 117.953 18.8662 118.091C19.1122 118.229 19.3912 118.298 19.7032 118.298C19.9612 118.298 20.2012 118.244 20.4232 118.136C20.6512 118.022 20.8432 117.848 20.9992 117.614L21.6562 118.028C21.4702 118.358 21.2062 118.613 20.8642 118.793C20.5282 118.967 20.1442 119.054 19.7122 119.054ZM25.4585 119.072C25.4525 119.072 25.4315 119.072 25.3955 119.072C25.3655 119.072 25.3355 119.072 25.3055 119.072C25.2755 119.072 25.2575 119.072 25.2515 119.072C24.2735 119.06 23.5145 118.844 22.9745 118.424C22.4345 117.998 22.1645 117.392 22.1645 116.606C22.1645 115.826 22.4345 115.229 22.9745 114.815C23.5205 114.395 24.2885 114.182 25.2785 114.176C25.2905 114.176 25.3085 114.176 25.3325 114.176C25.3625 114.176 25.3895 114.176 25.4135 114.176C25.4435 114.176 25.4615 114.176 25.4675 114.176C26.4695 114.176 27.2465 114.386 27.7985 114.806C28.3565 115.226 28.6355 115.826 28.6355 116.606C28.6355 117.398 28.3565 118.007 27.7985 118.433C27.2405 118.859 26.4605 119.072 25.4585 119.072ZM25.4405 118.316C25.9625 118.316 26.3945 118.25 26.7365 118.118C27.0845 117.986 27.3455 117.794 27.5195 117.542C27.6935 117.29 27.7805 116.978 27.7805 116.606C27.7805 116.24 27.6935 115.934 27.5195 115.688C27.3455 115.442 27.0845 115.256 26.7365 115.13C26.3945 115.004 25.9625 114.941 25.4405 114.941C25.4285 114.941 25.4045 114.941 25.3685 114.941C25.3325 114.941 25.3115 114.941 25.3055 114.941C24.7955 114.941 24.3695 115.007 24.0275 115.139C23.6915 115.265 23.4395 115.451 23.2715 115.697C23.1035 115.943 23.0195 116.246 23.0195 116.606C23.0195 116.972 23.1035 117.281 23.2715 117.533C23.4455 117.785 23.7005 117.977 24.0365 118.109C24.3785 118.241 24.8015 118.31 25.3055 118.316C25.3175 118.316 25.3385 118.316 25.3685 118.316C25.4045 118.316 25.4285 118.316 25.4405 118.316ZM24.9725 120.746V112.322H25.8185V120.746H24.9725ZM31.8907 119.054C31.3807 119.054 30.9307 118.949 30.5407 118.739C30.1567 118.529 29.8567 118.241 29.6407 117.875C29.4307 117.509 29.3257 117.089 29.3257 116.615C29.3257 116.141 29.4277 115.721 29.6317 115.355C29.8417 114.989 30.1267 114.704 30.4867 114.5C30.8527 114.29 31.2637 114.185 31.7197 114.185C32.1817 114.185 32.5897 114.287 32.9437 114.491C33.2977 114.695 33.5737 114.983 33.7717 115.355C33.9757 115.721 34.0777 116.15 34.0777 116.642C34.0777 116.678 34.0747 116.72 34.0687 116.768C34.0687 116.816 34.0657 116.861 34.0597 116.903H30.0007V116.282H33.6097L33.2587 116.498C33.2647 116.192 33.2017 115.919 33.0697 115.679C32.9377 115.439 32.7547 115.253 32.5207 115.121C32.2927 114.983 32.0257 114.914 31.7197 114.914C31.4197 114.914 31.1527 114.983 30.9187 115.121C30.6847 115.253 30.5017 115.442 30.3697 115.688C30.2377 115.928 30.1717 116.204 30.1717 116.516V116.66C30.1717 116.978 30.2437 117.263 30.3877 117.515C30.5377 117.761 30.7447 117.953 31.0087 118.091C31.2727 118.229 31.5757 118.298 31.9177 118.298C32.1997 118.298 32.4547 118.25 32.6827 118.154C32.9167 118.058 33.1207 117.914 33.2947 117.722L33.7717 118.28C33.5557 118.532 33.2857 118.724 32.9617 118.856C32.6437 118.988 32.2867 119.054 31.8907 119.054ZM37.857 119.054C37.461 119.054 37.098 118.964 36.768 118.784C36.444 118.598 36.183 118.325 35.985 117.965C35.793 117.605 35.697 117.155 35.697 116.615C35.697 116.075 35.79 115.625 35.976 115.265C36.168 114.905 36.426 114.635 36.75 114.455C37.08 114.275 37.449 114.185 37.857 114.185C38.325 114.185 38.739 114.287 39.099 114.491C39.459 114.695 39.744 114.98 39.954 115.346C40.164 115.706 40.269 116.129 40.269 116.615C40.269 117.101 40.164 117.527 39.954 117.893C39.744 118.259 39.459 118.544 39.099 118.748C38.739 118.952 38.325 119.054 37.857 119.054ZM35.328 120.746V114.23H36.156V115.517L36.102 116.624L36.192 117.731V120.746H35.328ZM37.785 118.298C38.091 118.298 38.364 118.229 38.604 118.091C38.85 117.953 39.042 117.758 39.18 117.506C39.324 117.248 39.396 116.951 39.396 116.615C39.396 116.273 39.324 115.979 39.18 115.733C39.042 115.481 38.85 115.286 38.604 115.148C38.364 115.01 38.091 114.941 37.785 114.941C37.485 114.941 37.212 115.01 36.966 115.148C36.726 115.286 36.534 115.481 36.39 115.733C36.252 115.979 36.183 116.273 36.183 116.615C36.183 116.951 36.252 117.248 36.39 117.506C36.534 117.758 36.726 117.953 36.966 118.091C37.212 118.229 37.485 118.298 37.785 118.298ZM43.5583 119.054C43.0483 119.054 42.5983 118.949 42.2083 118.739C41.8243 118.529 41.5243 118.241 41.3083 117.875C41.0983 117.509 40.9933 117.089 40.9933 116.615C40.9933 116.141 41.0953 115.721 41.2993 115.355C41.5093 114.989 41.7943 114.704 42.1543 114.5C42.5203 114.29 42.9313 114.185 43.3873 114.185C43.8493 114.185 44.2573 114.287 44.6113 114.491C44.9653 114.695 45.2413 114.983 45.4393 115.355C45.6433 115.721 45.7453 116.15 45.7453 116.642C45.7453 116.678 45.7423 116.72 45.7363 116.768C45.7363 116.816 45.7333 116.861 45.7273 116.903H41.6683V116.282H45.2773L44.9263 116.498C44.9323 116.192 44.8693 115.919 44.7373 115.679C44.6053 115.439 44.4223 115.253 44.1883 115.121C43.9603 114.983 43.6933 114.914 43.3873 114.914C43.0873 114.914 42.8203 114.983 42.5863 115.121C42.3523 115.253 42.1693 115.442 42.0373 115.688C41.9053 115.928 41.8393 116.204 41.8393 116.516V116.66C41.8393 116.978 41.9113 117.263 42.0553 117.515C42.2053 117.761 42.4123 117.953 42.6763 118.091C42.9403 118.229 43.2433 118.298 43.5853 118.298C43.8673 118.298 44.1223 118.25 44.3503 118.154C44.5843 118.058 44.7883 117.914 44.9623 117.722L45.4393 118.28C45.2233 118.532 44.9533 118.724 44.6293 118.856C44.3113 118.988 43.9543 119.054 43.5583 119.054ZM54.9837 119L53.4627 116.678L54.1737 116.246L56.0097 119H54.9837ZM52.4727 116.984V116.246H54.0207V116.984H52.4727ZM54.2547 116.714L53.4357 116.606L54.9567 114.23H55.8837L54.2547 116.714ZM49.6287 119H48.6027L50.4297 116.246L51.1407 116.678L49.6287 119ZM52.7337 119H51.8697V114.23H52.7337V119ZM52.1307 116.984H50.5917V116.246H52.1307V116.984ZM50.3577 116.714L48.7287 114.23H49.6467L51.1677 116.606L50.3577 116.714ZM56.8704 119V114.23H57.7344V117.704L60.6594 114.23H61.4424V119H60.5784V115.526L57.6624 119H56.8704ZM64.3453 119.063C63.9853 119.063 63.6313 119.018 63.2833 118.928C62.9413 118.832 62.6353 118.697 62.3653 118.523L62.6263 117.866C62.8543 118.01 63.1153 118.124 63.4093 118.208C63.7033 118.286 64.0003 118.325 64.3003 118.325C64.5763 118.325 64.8133 118.292 65.0113 118.226C65.2153 118.16 65.3713 118.07 65.4793 117.956C65.5873 117.836 65.6413 117.698 65.6413 117.542C65.6413 117.32 65.5423 117.149 65.3443 117.029C65.1463 116.909 64.8703 116.849 64.5163 116.849H63.6523V116.228H64.4623C64.6723 116.228 64.8553 116.204 65.0113 116.156C65.1673 116.108 65.2873 116.036 65.3713 115.94C65.4613 115.838 65.5063 115.721 65.5063 115.589C65.5063 115.445 65.4553 115.322 65.3533 115.22C65.2513 115.118 65.1073 115.04 64.9213 114.986C64.7413 114.932 64.5283 114.905 64.2823 114.905C64.0423 114.911 63.7963 114.944 63.5443 115.004C63.2983 115.064 63.0463 115.157 62.7883 115.283L62.5543 114.608C62.8423 114.47 63.1243 114.365 63.4003 114.293C63.6823 114.215 63.9613 114.173 64.2373 114.167C64.6513 114.155 65.0203 114.203 65.3443 114.311C65.6683 114.413 65.9233 114.563 66.1093 114.761C66.3013 114.959 66.3973 115.193 66.3973 115.463C66.3973 115.691 66.3253 115.895 66.1813 116.075C66.0373 116.249 65.8453 116.387 65.6053 116.489C65.3653 116.591 65.0893 116.642 64.7773 116.642L64.8133 116.435C65.3473 116.435 65.7673 116.54 66.0733 116.75C66.3793 116.96 66.5323 117.245 66.5323 117.605C66.5323 117.893 66.4363 118.148 66.2443 118.37C66.0523 118.586 65.7913 118.757 65.4613 118.883C65.1373 119.003 64.7653 119.063 64.3453 119.063ZM67.7558 119V114.23H68.6198V116.255H71.3378V114.23H72.2018V119H71.3378V117.002H68.6198V119H67.7558ZM73.7918 119V114.23H74.6558V117.704L77.5808 114.23H78.3638V119H77.4998V115.526L74.5838 119H73.7918Z" fill="white"/>
<path d="M-0.420044 191.8C10.03 196.24 22.31 190.76 30.37 182.75C38.43 174.74 43.8 164.43 51.34 155.94C58.88 147.44 70.02 140.56 81.12 142.97C94.23 145.81 104.13 160.8 117.34 158.48C131.7 155.96 134.46 136.44 144.71 126.08C156.3 114.35 175.55 116.18 191.53 120.26C207.51 124.34 224.96 129.72 239.88 122.69C252.02 116.97 259.15 104.48 267.4 93.89C275.66 83.31 288.1 73.36 301.19 76.29C319.73 80.44 328.81 108.03 347.72 106.19C360.9 104.91 367.45 90.05 377.04 80.92C391.2 67.43 415.91 67.15 430.37 80.32V307.5H-0.420044V191.8Z" fill="url(#paint0_linear_0_1)"/>
<path d="M-0.579963 192.4C7.66004 195.74 16.72 193.35 23.95 188.71C31.96 183.56 37.47 175.67 42.88 168.03C48.92 159.49 55.29 150.83 64.9 146.06C69.63 143.71 75.01 142.48 80.27 143.44C84.29 144.17 87.96 146.09 91.4 148.24C97.94 152.32 104.31 158.11 112.22 159.19C118.89 160.1 124.76 156.92 128.87 151.84C133.48 146.14 136.24 139.22 140.12 133.05C144.78 125.65 151.26 120.63 159.89 118.75C179.15 114.55 197.64 124.17 216.47 126.31C226.07 127.4 235.91 126.35 244.18 121.01C251.6 116.21 257 109 262.16 101.97C268 94.01 273.91 85.97 282.5 80.75C290.42 75.94 299.59 74.89 307.79 79.61C319.53 86.37 326.04 100.42 338.83 105.52C345.12 108.03 352 106.94 357.5 103.09C363.95 98.57 368.3 91.72 373.34 85.81C378.92 79.27 385.69 74.54 394.11 72.46C402.53 70.38 411.14 70.96 419 74.04C423.02 75.62 426.71 77.9 429.93 80.78C430.53 81.32 431.41 80.43 430.81 79.9C418.91 69.25 400.79 67.17 386.43 73.84C378.95 77.31 373.76 83.18 368.71 89.51C363.87 95.57 358.63 102.75 350.8 104.99C335.96 109.23 325.72 93.25 316.43 84.64C311.57 80.14 305.93 76.17 299.19 75.33C290.12 74.21 281.62 78.93 275.04 84.76C261.09 97.13 254.14 118.23 234.87 123.93C215.6 129.63 194.83 118.34 175.06 116.75C166.9 116.09 158.27 116.75 150.93 120.67C144.13 124.31 139.93 130.53 136.3 137.11C132.67 143.69 129.67 150.88 123.63 155.18C116.44 160.29 108.3 157.69 101.47 153.41C94.84 149.26 88.51 143.7 80.59 142.24C71.54 140.58 62.68 144.84 55.92 150.58C40.86 163.36 34.44 186.71 13.5 192C8.88004 193.17 4.16004 193.01 -0.269963 191.21C-1.01996 190.91 -1.33996 192.12 -0.599963 192.42H-0.579963V192.4Z" fill="url(#paint1_linear_0_1)"/>
<g clip-path="url(#clip0_0_1)">
<path style="mix-blend-mode:screen" d="M127.69 187.38C146.849 187.38 162.38 171.849 162.38 152.69C162.38 133.531 146.849 118 127.69 118C108.531 118 93 133.531 93 152.69C93 171.849 108.531 187.38 127.69 187.38Z" fill="url(#paint2_radial_0_1)"/>
</g>
<g clip-path="url(#clip1_0_1)">
<path d="M127.05 154.74C128.182 154.74 129.1 153.822 129.1 152.69C129.1 151.558 128.182 150.64 127.05 150.64C125.918 150.64 125 151.558 125 152.69C125 153.822 125.918 154.74 127.05 154.74Z" fill="white"/>
<path d="M127.05 120V153.74" stroke="white" stroke-width="0.5" stroke-miterlimit="10"/>
</g>
<g clip-path="url(#clip2_0_1)">
<path style="mix-blend-mode:screen" d="M45.69 198.38C64.8488 198.38 80.38 182.849 80.38 163.69C80.38 144.531 64.8488 129 45.69 129C26.5312 129 11 144.531 11 163.69C11 182.849 26.5312 198.38 45.69 198.38Z" fill="url(#paint3_radial_0_1)"/>
</g>
<g clip-path="url(#clip3_0_1)">
<path d="M45.05 165.74C46.1822 165.74 47.1 164.822 47.1 163.69C47.1 162.558 46.1822 161.64 45.05 161.64C43.9178 161.64 43 162.558 43 163.69C43 164.822 43.9178 165.74 45.05 165.74Z" fill="white"/>
<path d="M45.05 131V164.74" stroke="white" stroke-width="0.5" stroke-miterlimit="10"/>
</g>
<g clip-path="url(#clip4_0_1)">
<path style="mix-blend-mode:screen" d="M398.69 105.38C417.849 105.38 433.38 89.8488 433.38 70.69C433.38 51.5312 417.849 36 398.69 36C379.531 36 364 51.5312 364 70.69C364 89.8488 379.531 105.38 398.69 105.38Z" fill="url(#paint4_radial_0_1)"/>
</g>
<g clip-path="url(#clip5_0_1)">
<path d="M398.05 72.74C399.182 72.74 400.1 71.8222 400.1 70.69C400.1 69.5578 399.182 68.64 398.05 68.64C396.918 68.64 396 69.5578 396 70.69C396 71.8222 396.918 72.74 398.05 72.74Z" fill="white"/>
<path d="M398.05 38V71.74" stroke="white" stroke-width="0.5" stroke-miterlimit="10"/>
</g>
<g clip-path="url(#clip6_0_1)">
<path style="mix-blend-mode:screen" d="M331.69 133.38C350.849 133.38 366.38 117.849 366.38 98.69C366.38 79.5312 350.849 64 331.69 64C312.531 64 297 79.5312 297 98.69C297 117.849 312.531 133.38 331.69 133.38Z" fill="url(#paint5_radial_0_1)"/>
</g>
<g clip-path="url(#clip7_0_1)">
<path d="M331.05 100.74C332.182 100.74 333.1 99.8222 333.1 98.69C333.1 97.5578 332.182 96.64 331.05 96.64C329.918 96.64 329 97.5578 329 98.69C329 99.8222 329.918 100.74 331.05 100.74Z" fill="white"/>
<path d="M331.05 66V99.74" stroke="white" stroke-width="0.5" stroke-miterlimit="10"/>
</g>
<defs>
<linearGradient id="paint0_linear_0_1" x1="214.98" y1="313.57" x2="214.98" y2="90.18" gradientUnits="userSpaceOnUse">
<stop stop-color="#131A24" stop-opacity="0"/>
<stop offset="0.3" stop-color="#232744" stop-opacity="0.28"/>
<stop offset="0.98" stop-color="#4D4996" stop-opacity="0.98"/>
<stop offset="1" stop-color="#4F4A99"/>
</linearGradient>
<linearGradient id="paint1_linear_0_1" x1="-0.469963" y1="131.98" x2="430.46" y2="131.98" gradientUnits="userSpaceOnUse">
<stop stop-color="#81CACF"/>
<stop offset="0.99" stop-color="#0AB0D7"/>
</linearGradient>
<radialGradient id="paint2_radial_0_1" cx="0" cy="0" r="1" gradientUnits="userSpaceOnUse" gradientTransform="translate(127.69 152.69) scale(34.69)">
<stop stop-color="#0AB0D7"/>
<stop offset="0.14" stop-color="#0787A5" stop-opacity="0.77"/>
<stop offset="0.3" stop-color="#055E73" stop-opacity="0.54"/>
<stop offset="0.45" stop-color="#033C4A" stop-opacity="0.34"/>
<stop offset="0.6" stop-color="#012229" stop-opacity="0.19"/>
<stop offset="0.74" stop-color="#000F12" stop-opacity="0.09"/>
<stop offset="0.88" stop-color="#000304" stop-opacity="0.02"/>
<stop offset="0.99" stop-opacity="0"/>
</radialGradient>
<radialGradient id="paint3_radial_0_1" cx="0" cy="0" r="1" gradientUnits="userSpaceOnUse" gradientTransform="translate(45.69 163.69) scale(34.69)">
<stop stop-color="#0AB0D7"/>
<stop offset="0.14" stop-color="#0787A5" stop-opacity="0.77"/>
<stop offset="0.3" stop-color="#055E73" stop-opacity="0.54"/>
<stop offset="0.45" stop-color="#033C4A" stop-opacity="0.34"/>
<stop offset="0.6" stop-color="#012229" stop-opacity="0.19"/>
<stop offset="0.74" stop-color="#000F12" stop-opacity="0.09"/>
<stop offset="0.88" stop-color="#000304" stop-opacity="0.02"/>
<stop offset="0.99" stop-opacity="0"/>
</radialGradient>
<radialGradient id="paint4_radial_0_1" cx="0" cy="0" r="1" gradientUnits="userSpaceOnUse" gradientTransform="translate(398.69 70.69) scale(34.69)">
<stop stop-color="#0AB0D7"/>
<stop offset="0.14" stop-color="#0787A5" stop-opacity="0.77"/>
<stop offset="0.3" stop-color="#055E73" stop-opacity="0.54"/>
<stop offset="0.45" stop-color="#033C4A" stop-opacity="0.34"/>
<stop offset="0.6" stop-color="#012229" stop-opacity="0.19"/>
<stop offset="0.74" stop-color="#000F12" stop-opacity="0.09"/>
<stop offset="0.88" stop-color="#000304" stop-opacity="0.02"/>
<stop offset="0.99" stop-opacity="0"/>
</radialGradient>
<radialGradient id="paint5_radial_0_1" cx="0" cy="0" r="1" gradientUnits="userSpaceOnUse" gradientTransform="translate(331.69 98.69) scale(34.69)">
<stop stop-color="#0AB0D7"/>
<stop offset="0.14" stop-color="#0787A5" stop-opacity="0.77"/>
<stop offset="0.3" stop-color="#055E73" stop-opacity="0.54"/>
<stop offset="0.45" stop-color="#033C4A" stop-opacity="0.34"/>
<stop offset="0.6" stop-color="#012229" stop-opacity="0.19"/>
<stop offset="0.74" stop-color="#000F12" stop-opacity="0.09"/>
<stop offset="0.88" stop-color="#000304" stop-opacity="0.02"/>
<stop offset="0.99" stop-opacity="0"/>
</radialGradient>
<clipPath id="clip0_0_1">
<rect width="69.38" height="69.38" fill="white" transform="translate(93 118)"/>
</clipPath>
<clipPath id="clip1_0_1">
<rect width="4.1" height="34.74" fill="white" transform="translate(125 120)"/>
</clipPath>
<clipPath id="clip2_0_1">
<rect width="69.38" height="69.38" fill="white" transform="translate(11 129)"/>
</clipPath>
<clipPath id="clip3_0_1">
<rect width="4.1" height="34.74" fill="white" transform="translate(43 131)"/>
</clipPath>
<clipPath id="clip4_0_1">
<rect width="69.38" height="69.38" fill="white" transform="translate(364 36)"/>
</clipPath>
<clipPath id="clip5_0_1">
<rect width="4.1" height="34.74" fill="white" transform="translate(396 38)"/>
</clipPath>
<clipPath id="clip6_0_1">
<rect width="69.38" height="69.38" fill="white" transform="translate(297 64)"/>
</clipPath>
<clipPath id="clip7_0_1">
<rect width="4.1" height="34.74" fill="white" transform="translate(329 66)"/>
</clipPath>
</defs>
</svg>
