<svg width="430" height="238" viewBox="0 0 430 238" fill="none" xmlns="http://www.w3.org/2000/svg">
<g opacity="0.71">
<path d="M-0.420044 121.8C10.03 126.24 22.31 120.76 30.37 112.75C38.43 104.74 43.8 94.43 51.34 85.94C58.88 77.44 70.02 70.56 81.12 72.97C94.23 75.81 104.13 90.8 117.34 88.48C131.7 85.96 134.46 66.44 144.71 56.08C156.3 44.35 175.55 46.18 191.53 50.26C207.51 54.34 224.96 59.72 239.88 52.69C252.02 46.97 259.15 34.48 267.4 23.89C275.66 13.31 288.1 3.36 301.19 6.29C319.73 10.44 328.81 38.03 347.72 36.19C360.9 34.91 367.45 20.05 377.04 10.92C391.2 -2.57 415.91 -2.85 430.37 10.32V237.5H-0.420044V121.8Z" fill="url(#paint0_linear_2305_1627)"/>
<path d="M-0.579963 122.4C7.66004 125.74 16.72 123.35 23.95 118.71C31.96 113.56 37.47 105.67 42.88 98.03C48.92 89.49 55.29 80.83 64.9 76.06C69.63 73.71 75.01 72.48 80.27 73.44C84.29 74.17 87.96 76.09 91.4 78.24C97.94 82.32 104.31 88.11 112.22 89.19C118.89 90.1 124.76 86.92 128.87 81.84C133.48 76.14 136.24 69.22 140.12 63.05C144.78 55.65 151.26 50.63 159.89 48.75C179.15 44.55 197.64 54.17 216.47 56.31C226.07 57.4 235.91 56.35 244.18 51.01C251.6 46.21 257 39 262.16 31.97C268 24.01 273.91 15.97 282.5 10.75C290.42 5.94 299.59 4.89 307.79 9.61C319.53 16.37 326.04 30.42 338.83 35.52C345.12 38.03 352 36.94 357.5 33.09C363.95 28.57 368.3 21.72 373.34 15.81C378.92 9.27 385.69 4.54 394.11 2.46C402.53 0.380001 411.14 0.960001 419 4.04C423.02 5.62 426.71 7.9 429.93 10.78C430.53 11.32 431.41 10.43 430.81 9.9C418.91 -0.75 400.79 -2.83 386.43 3.84C378.95 7.31 373.76 13.18 368.71 19.51C363.87 25.57 358.63 32.75 350.8 34.99C335.96 39.23 325.72 23.25 316.43 14.64C311.57 10.14 305.93 6.17 299.19 5.33C290.12 4.21 281.62 8.93 275.04 14.76C261.09 27.13 254.14 48.23 234.87 53.93C215.6 59.63 194.83 48.34 175.06 46.75C166.9 46.09 158.27 46.75 150.93 50.67C144.13 54.31 139.93 60.53 136.3 67.11C132.67 73.69 129.67 80.88 123.63 85.18C116.44 90.29 108.3 87.69 101.47 83.41C94.84 79.26 88.51 73.7 80.59 72.24C71.54 70.58 62.68 74.84 55.92 80.58C40.86 93.36 34.44 116.71 13.5 122C8.88004 123.17 4.16004 123.01 -0.269963 121.21C-1.01996 120.91 -1.33996 122.12 -0.599963 122.42H-0.579963V122.4Z" fill="url(#paint1_linear_2305_1627)"/>
</g>
<defs>
<linearGradient id="paint0_linear_2305_1627" x1="214.98" y1="243.57" x2="214.98" y2="20.18" gradientUnits="userSpaceOnUse">
<stop stop-color="#131A24" stop-opacity="0"/>
<stop offset="0.3" stop-color="#232744" stop-opacity="0.28"/>
<stop offset="0.98" stop-color="#4D4996" stop-opacity="0.98"/>
<stop offset="1" stop-color="#4F4A99"/>
</linearGradient>
<linearGradient id="paint1_linear_2305_1627" x1="-0.469963" y1="61.98" x2="430.46" y2="61.98" gradientUnits="userSpaceOnUse">
<stop stop-color="#81CACF"/>
<stop offset="0.99" stop-color="#0AB0D7"/>
</linearGradient>
</defs>
</svg>
