<svg width="36" height="36" viewBox="0 0 36 36" fill="none" xmlns="http://www.w3.org/2000/svg">
<g clip-path="url(#clip0_4622_952)">
<path d="M13.15 21.01L14.81 17.22C14.85 17.14 14.96 17.12 15.02 17.19L16.52 18.69C16.58 18.75 16.68 18.74 16.72 18.67L19.38 14.61C19.44 14.52 19.56 14.53 19.61 14.63L22.34 21.02C22.38 21.11 22.32 21.21 22.22 21.21H13.27C13.17 21.21 13.11 21.11 13.15 21.02V21.01Z" stroke="white" stroke-width="1.5" stroke-miterlimit="10"/>
<path d="M17.75 35.49C7.96 35.49 0 27.53 0 17.75C0 7.97 7.96 0 17.75 0C27.54 0 35.5 7.96 35.5 17.75C35.5 27.54 27.54 35.5 17.75 35.5V35.49ZM17.75 1.6C8.85 1.6 1.6 8.85 1.6 17.75C1.6 26.65 8.84 33.89 17.74 33.89C26.64 33.89 33.88 26.65 33.88 17.75C33.88 8.85 26.65 1.6 17.75 1.6Z" fill="white"/>
<path d="M22.5601 24.64C22.5601 25.05 22.2201 25.39 21.8101 25.39H10.5501C8.91008 25.39 7.58008 24.07 7.58008 22.45V12.87C7.58008 11.25 8.91008 9.93 10.5501 9.93H24.9401C26.5801 9.93 27.9101 11.25 27.9101 12.87V19.47C27.9101 19.88 27.5701 20.22 27.1601 20.22C26.7501 20.22 26.4101 19.88 26.4101 19.47V12.87C26.4101 12.07 25.7501 11.43 24.9401 11.43H10.5501C9.74008 11.43 9.08008 12.08 9.08008 12.87V22.45C9.08008 23.25 9.74008 23.89 10.5501 23.89H21.8101C22.2201 23.89 22.5601 24.23 22.5601 24.64Z" fill="white"/>
<path d="M27.9102 22.45C27.9102 22.0358 27.5744 21.7 27.1602 21.7C26.7459 21.7 26.4102 22.0358 26.4102 22.45V26.83C26.4102 27.2442 26.7459 27.58 27.1602 27.58C27.5744 27.58 27.9102 27.2442 27.9102 26.83V22.45Z" fill="white"/>
<path d="M29.35 23.89H24.97C24.5558 23.89 24.22 24.2258 24.22 24.64C24.22 25.0542 24.5558 25.39 24.97 25.39H29.35C29.7642 25.39 30.1 25.0542 30.1 24.64C30.1 24.2258 29.7642 23.89 29.35 23.89Z" fill="white"/>
</g>
<defs>
<clipPath id="clip0_4622_952">
<rect width="35.49" height="35.49" fill="white"/>
</clipPath>
</defs>
</svg>
