<svg width="15" height="15" viewBox="0 0 15 15" fill="none" xmlns="http://www.w3.org/2000/svg">
<g clip-path="url(#clip0_4372_11538)">
<path d="M8.00002 0.0193971C3.45808 -0.277377 -0.290303 3.47746 0.0193745 8.02585C0.258084 11.5871 3.06454 14.542 6.60647 14.9549C8.70325 15.2 10.6452 14.5742 12.1355 13.4C12.4 13.0194 12.742 12.6968 13.1355 12.4517C14.4387 10.9678 15.1678 8.96778 14.9613 6.79359C14.6323 3.16133 11.6323 0.251655 8.00002 0.0193971Z" fill="url(#paint0_linear_4372_11538)"/>
<path d="M6.56785 10.2967L4.22591 7.95479C3.91623 7.64512 3.91623 7.14834 4.22591 6.84512C4.53559 6.53544 5.03236 6.53544 5.33559 6.84512L7.12268 8.63221L10.6259 5.12899C10.9356 4.81931 11.4324 4.81931 11.7356 5.12899C12.0453 5.43866 12.0453 5.93544 11.7356 6.23866L7.67752 10.2967C7.36785 10.6064 6.87107 10.6064 6.56785 10.2967Z" fill="white"/>
</g>
<defs>
<linearGradient id="paint0_linear_4372_11538" x1="1.96414e-05" y1="7.50327" x2="15" y2="7.50327" gradientUnits="userSpaceOnUse">
<stop stop-color="#85C5E9"/>
<stop offset="0.99" stop-color="#11B8FF"/>
</linearGradient>
<clipPath id="clip0_4372_11538">
<rect width="15" height="15" fill="white"/>
</clipPath>
</defs>
</svg>
