<svg width="146" height="140" viewBox="0 0 146 140" fill="none" xmlns="http://www.w3.org/2000/svg">
<rect opacity="0.2" width="146" height="140" rx="20" fill="white"/>
<g opacity="0.2" clip-path="url(#clip0_0_1)">
<path d="M72.0898 58.9521C66.3124 58.9521 61.6138 54.2535 61.6138 48.476C61.6138 42.6986 66.3124 38 72.0898 38C77.8672 38 82.5659 42.6986 82.5659 48.476C82.5659 54.2535 77.8672 58.9521 72.0898 58.9521ZM72.0898 41.1422C68.0469 41.1422 64.756 44.4331 64.756 48.476C64.756 52.519 68.0469 55.8099 72.0898 55.8099C76.1328 55.8099 79.4237 52.519 79.4237 48.476C79.4237 44.4331 76.1328 41.1422 72.0898 41.1422Z" fill="white"/>
<path d="M83.2991 78.0001C77.8694 78.0001 73.4536 73.5843 73.4536 68.1546C73.4536 62.7249 77.8715 58.3091 83.2991 58.3091C88.7267 58.3091 93.1446 62.727 93.1446 68.1546C93.1446 73.5822 88.7267 78.0001 83.2991 78.0001ZM83.2991 61.4513C79.6018 61.4513 76.5957 64.4594 76.5957 68.1546C76.5957 71.8498 79.6039 74.8579 83.2991 74.8579C86.9943 74.8579 90.0024 71.8498 90.0024 68.1546C90.0024 64.4594 86.9943 61.4513 83.2991 61.4513Z" fill="white"/>
<path d="M60.7046 74.7573C56.4564 74.7573 53 71.3009 53 67.0527C53 62.8044 56.4564 59.3459 60.7046 59.3459C64.9529 59.3459 68.4093 62.8023 68.4093 67.0527C68.4093 71.303 64.9529 74.7573 60.7046 74.7573ZM60.7046 62.4881C58.1888 62.4881 56.1422 64.5347 56.1422 67.0527C56.1422 69.5706 58.1888 71.6151 60.7046 71.6151C63.2205 71.6151 65.2671 69.5685 65.2671 67.0527C65.2671 64.5368 63.2205 62.4881 60.7046 62.4881Z" fill="white"/>
<path d="M65.3544 54.9547L62.4338 61.1555L65.2765 62.4944L68.197 56.2936L65.3544 54.9547Z" fill="white"/>
<path d="M78.3199 55.5403L75.6226 57.1521L78.8966 62.6313L81.5939 61.0195L78.3199 55.5403Z" fill="white"/>
<path d="M76.174 65.0388L66.7662 65.4824L66.9143 68.6211L76.322 68.1775L76.174 65.0388Z" fill="white"/>
</g>
<path d="M55.6027 107.168C54.8467 107.168 54.142 107.047 53.4887 106.804C52.8447 106.552 52.2847 106.197 51.8087 105.74C51.3327 105.283 50.9594 104.746 50.6887 104.13C50.4274 103.514 50.2967 102.837 50.2967 102.1C50.2967 101.363 50.4274 100.686 50.6887 100.07C50.9594 99.454 51.3327 98.9173 51.8087 98.46C52.294 98.0027 52.8587 97.6527 53.5027 97.41C54.1467 97.158 54.8514 97.032 55.6167 97.032C56.466 97.032 57.2314 97.1813 57.9127 97.48C58.6034 97.7693 59.182 98.1987 59.6487 98.768L58.1927 100.112C57.8567 99.7293 57.4834 99.4447 57.0727 99.258C56.662 99.062 56.214 98.964 55.7287 98.964C55.2714 98.964 54.8514 99.0387 54.4687 99.188C54.086 99.3373 53.7547 99.552 53.4747 99.832C53.1947 100.112 52.9754 100.443 52.8167 100.826C52.6674 101.209 52.5927 101.633 52.5927 102.1C52.5927 102.567 52.6674 102.991 52.8167 103.374C52.9754 103.757 53.1947 104.088 53.4747 104.368C53.7547 104.648 54.086 104.863 54.4687 105.012C54.8514 105.161 55.2714 105.236 55.7287 105.236C56.214 105.236 56.662 105.143 57.0727 104.956C57.4834 104.76 57.8567 104.466 58.1927 104.074L59.6487 105.418C59.182 105.987 58.6034 106.421 57.9127 106.72C57.2314 107.019 56.4614 107.168 55.6027 107.168ZM64.2411 107.112C63.3825 107.112 62.6265 106.944 61.9731 106.608C61.3291 106.272 60.8298 105.815 60.4751 105.236C60.1205 104.648 59.9431 103.981 59.9431 103.234C59.9431 102.478 60.1158 101.811 60.4611 101.232C60.8158 100.644 61.2965 100.187 61.9031 99.86C62.5098 99.524 63.1958 99.356 63.9611 99.356C64.6985 99.356 65.3611 99.5147 65.9491 99.832C66.5465 100.14 67.0178 100.588 67.3631 101.176C67.7085 101.755 67.8811 102.45 67.8811 103.262C67.8811 103.346 67.8765 103.444 67.8671 103.556C67.8578 103.659 67.8485 103.757 67.8391 103.85H61.7211V102.576H66.6911L65.8511 102.954C65.8511 102.562 65.7718 102.221 65.6131 101.932C65.4545 101.643 65.2351 101.419 64.9551 101.26C64.6751 101.092 64.3485 101.008 63.9751 101.008C63.6018 101.008 63.2705 101.092 62.9811 101.26C62.7011 101.419 62.4818 101.647 62.3231 101.946C62.1645 102.235 62.0851 102.581 62.0851 102.982V103.318C62.0851 103.729 62.1738 104.093 62.3511 104.41C62.5378 104.718 62.7945 104.956 63.1211 105.124C63.4571 105.283 63.8491 105.362 64.2971 105.362C64.6985 105.362 65.0485 105.301 65.3471 105.18C65.6551 105.059 65.9351 104.877 66.1871 104.634L67.3491 105.894C67.0038 106.286 66.5698 106.589 66.0471 106.804C65.5245 107.009 64.9225 107.112 64.2411 107.112ZM69.4152 107V99.468H71.6972L74.5392 104.62H73.6292L76.6672 99.468H78.7112L78.7392 107H76.7652V101.708L77.1012 101.932L74.5112 106.272H73.5872L70.9832 101.778L71.3892 101.68V107H69.4152ZM84.7653 101.876C85.7546 101.885 86.5059 102.109 87.0193 102.548C87.5419 102.977 87.8033 103.589 87.8033 104.382C87.8033 105.213 87.5093 105.861 86.9213 106.328C86.3333 106.785 85.5166 107.014 84.4713 107.014L80.6913 107V99.468H82.8613V101.876H84.7653ZM84.2753 105.46C84.6953 105.469 85.0173 105.381 85.2413 105.194C85.4653 105.007 85.5773 104.727 85.5773 104.354C85.5773 103.981 85.4653 103.715 85.2413 103.556C85.0173 103.388 84.6953 103.299 84.2753 103.29L82.8613 103.276V105.46H84.2753ZM93.2543 107V104.494L93.5623 104.844H91.4763C90.3936 104.844 89.5443 104.62 88.9283 104.172C88.3123 103.724 88.0043 103.08 88.0043 102.24C88.0043 101.344 88.3263 100.658 88.9703 100.182C89.6236 99.706 90.5009 99.468 91.6023 99.468H95.2003V107H93.2543ZM87.8923 107L89.8943 104.13H92.1203L90.2163 107H87.8923ZM93.2543 103.822V100.686L93.5623 101.246H91.6443C91.1963 101.246 90.8463 101.33 90.5943 101.498C90.3516 101.666 90.2303 101.937 90.2303 102.31C90.2303 103.029 90.6923 103.388 91.6163 103.388H93.5623L93.2543 103.822Z" fill="white"/>
<defs>
<clipPath id="clip0_0_1">
<rect width="40.1445" height="40" fill="white" transform="translate(53 38)"/>
</clipPath>
</defs>
</svg>
