<svg width="12" height="16" viewBox="0 0 12 16" fill="none" xmlns="http://www.w3.org/2000/svg">
<g clip-path="url(#clip0_4625_1088)">
<path d="M9.11269 0H2.31589C1.03752 0 0 1.14578 0 2.55754V15.471C0 15.9269 0.486998 16.1666 0.794018 15.8626L5.71429 10.9755L10.6346 15.8626C10.9416 16.1666 11.4286 15.9269 11.4286 15.471V2.55754C11.4286 1.14578 10.3911 0 9.11269 0ZM10.3487 13.9715L6.03189 9.68652C5.85192 9.50822 5.57666 9.50822 5.39668 9.68652L1.08251 13.9715V2.55754C1.08251 1.80343 1.63568 1.19255 2.31853 1.19255H9.11533C9.79819 1.19255 10.3514 1.80343 10.3514 2.55754V13.9715H10.3487Z" fill="#C8CED6"/>
</g>
<defs>
<clipPath id="clip0_4625_1088">
<rect width="11.4286" height="16" fill="white"/>
</clipPath>
</defs>
</svg>
