<svg width="20" height="14" viewBox="0 0 20 14" fill="none" xmlns="http://www.w3.org/2000/svg">
<g clip-path="url(#clip0_4620_1966)">
<path d="M5.58992 3.49687C4.01471 3.49687 2.43951 3.49687 0.864302 3.49687C0.733508 3.49687 0.597028 3.50961 0.477608 3.47139C0.181902 3.38222 0.00561523 3.15292 0.00561523 2.80261C0.00561523 2.47776 0.159155 2.2421 0.443488 2.15929C0.602715 2.11471 0.779002 2.10834 0.943915 2.10834C4.08295 2.10834 7.21631 2.10834 10.3553 2.10834C10.6226 2.10834 10.7591 2.03827 10.8615 1.73254C11.2254 0.675216 12.1694 -0.0317902 13.1759 5.69014e-05C14.2507 0.031904 15.0355 0.617891 15.462 1.72617C15.5814 2.04464 15.7179 2.12108 16.0022 2.11471C17.0144 2.0956 18.0323 2.10834 19.0446 2.10834C19.1356 2.10834 19.2265 2.10834 19.3175 2.10834C19.744 2.13382 20.0113 2.42681 19.9999 2.82808C19.9829 3.22299 19.7213 3.48413 19.3062 3.48413C18.2143 3.4905 17.1225 3.49687 16.025 3.48413C15.7349 3.48413 15.5757 3.53509 15.4563 3.88541C15.0923 4.9491 14.154 5.61152 13.1304 5.59878C12.1296 5.58604 11.2197 4.91725 10.8615 3.85993C10.7534 3.54783 10.6169 3.48413 10.3553 3.48413C8.76877 3.49687 7.18219 3.48413 5.58992 3.48413V3.49687ZM13.1816 4.23573C13.8754 4.22299 14.4441 3.57968 14.4441 2.80897C14.4441 2.0128 13.8583 1.37585 13.1418 1.38859C12.4424 1.39496 11.8794 2.0319 11.8794 2.80897C11.8794 3.59878 12.4708 4.24847 13.1816 4.23573Z" fill="white"/>
<path d="M14.4156 11.8916C12.8177 11.8916 11.214 11.8916 9.61609 11.8916C9.37725 11.8916 9.25214 11.949 9.16116 12.2228C8.78015 13.3248 7.87028 14.0127 6.83531 14.0063C5.80602 14.0063 4.90184 13.3184 4.51515 12.2037C4.42985 11.949 4.31612 11.8853 4.08865 11.8853C2.96838 11.898 1.8481 11.8916 0.733517 11.8853C0.324077 11.8853 0.0681773 11.6687 0.0113106 11.3056C-0.0569293 10.8598 0.244464 10.5095 0.72783 10.5031C1.83673 10.4967 2.93994 10.4904 4.04884 10.5031C4.30474 10.5031 4.42985 10.433 4.53221 10.1464C4.90184 9.06998 5.8174 8.38845 6.83531 8.38208C7.85322 8.38208 8.78584 9.05724 9.14978 10.1209C9.25214 10.4267 9.38862 10.5031 9.6559 10.4967C12.7551 10.484 15.8487 10.4967 18.9479 10.4967C19.0503 10.4967 19.1583 10.4967 19.2607 10.4967C19.727 10.5095 20.0056 10.7642 20.0056 11.1846C20.0056 11.605 19.7327 11.8789 19.2607 11.8789C17.6457 11.8789 16.0306 11.8789 14.4213 11.8789L14.4156 11.8916ZM6.83531 12.6177C7.53477 12.6177 8.10344 11.9935 8.11481 11.2165C8.12618 10.4267 7.54614 9.77062 6.83531 9.77062C6.12448 9.77062 5.53875 10.4267 5.55012 11.2165C5.5615 11.9935 6.13585 12.6177 6.82962 12.6177H6.83531Z" fill="white"/>
</g>
<defs>
<clipPath id="clip0_4620_1966">
<rect width="20" height="14" fill="white"/>
</clipPath>
</defs>
</svg>
