<svg width="14" height="16" viewBox="0 0 14 16" fill="none" xmlns="http://www.w3.org/2000/svg">
<path d="M1.41849 7.33859L8.07648 0.680595C8.23183 0.525241 8.23183 0.273717 8.07648 0.118364C7.9951 0.0369887 7.89893 -2.48992e-07 7.79536 -2.5352e-07C7.69179 -2.58047e-07 7.58823 0.0369887 7.51425 0.118364L0.116479 7.51613C-0.038875 7.67149 -0.038875 7.92301 0.116479 8.07836L7.40328 15.3652C7.55863 15.5205 7.81016 15.5205 7.96551 15.3652C8.12086 15.2098 8.12086 14.9583 7.96551 14.8029L1.30752 8.14494L13.1957 8.14494C13.4177 8.14494 13.5952 7.9674 13.5952 7.74547C13.5952 7.52353 13.4177 7.34599 13.1957 7.34599L1.41849 7.34598L1.41849 7.33859Z" fill="white"/>
</svg>
