<svg width="147" height="140" viewBox="0 0 147 140" fill="none" xmlns="http://www.w3.org/2000/svg">
<rect opacity="0.2" x="1" width="146" height="140" rx="20" fill="white"/>
<path d="M53.1255 111.992V105.048H49.7655L49.7235 106.476C49.6955 107.083 49.6535 107.657 49.5975 108.198C49.5509 108.739 49.4762 109.234 49.3735 109.682C49.2709 110.121 49.1355 110.494 48.9675 110.802C48.8089 111.11 48.6082 111.329 48.3655 111.46L45.9435 111.152C46.2795 111.161 46.5549 111.045 46.7695 110.802C46.9935 110.559 47.1709 110.219 47.3015 109.78C47.4322 109.332 47.5255 108.809 47.5815 108.212C47.6469 107.615 47.6935 106.966 47.7215 106.266L47.8335 103.2H55.3655V111.992H53.1255ZM45.6215 115.03L45.6355 111.152H56.7375V115.03H54.6375V113H47.7215V115.03H45.6215ZM61.5563 113.112C60.6976 113.112 59.9416 112.944 59.2883 112.608C58.6443 112.272 58.1449 111.815 57.7903 111.236C57.4356 110.648 57.2583 109.981 57.2583 109.234C57.2583 108.478 57.4309 107.811 57.7763 107.232C58.1309 106.644 58.6116 106.187 59.2183 105.86C59.8249 105.524 60.5109 105.356 61.2763 105.356C62.0136 105.356 62.6763 105.515 63.2643 105.832C63.8616 106.14 64.3329 106.588 64.6783 107.176C65.0236 107.755 65.1963 108.45 65.1963 109.262C65.1963 109.346 65.1916 109.444 65.1823 109.556C65.1729 109.659 65.1636 109.757 65.1543 109.85H59.0363V108.576H64.0063L63.1663 108.954C63.1663 108.562 63.0869 108.221 62.9283 107.932C62.7696 107.643 62.5503 107.419 62.2703 107.26C61.9903 107.092 61.6636 107.008 61.2903 107.008C60.9169 107.008 60.5856 107.092 60.2963 107.26C60.0163 107.419 59.7969 107.647 59.6383 107.946C59.4796 108.235 59.4003 108.581 59.4003 108.982V109.318C59.4003 109.729 59.4889 110.093 59.6663 110.41C59.8529 110.718 60.1096 110.956 60.4363 111.124C60.7723 111.283 61.1643 111.362 61.6123 111.362C62.0136 111.362 62.3636 111.301 62.6623 111.18C62.9703 111.059 63.2503 110.877 63.5023 110.634L64.6643 111.894C64.3189 112.286 63.8849 112.589 63.3623 112.804C62.8396 113.009 62.2376 113.112 61.5563 113.112ZM66.7304 113V105.468H68.9004V108.408H72.1764V105.468H74.3604V113H72.1764V110.186H68.9004V113H66.7304ZM80.3851 107.876C81.3744 107.885 82.1257 108.109 82.6391 108.548C83.1617 108.977 83.4231 109.589 83.4231 110.382C83.4231 111.213 83.1291 111.861 82.5411 112.328C81.9531 112.785 81.1364 113.014 80.0911 113.014L76.3111 113V105.468H78.4811V107.876H80.3851ZM79.8951 111.46C80.3151 111.469 80.6371 111.381 80.8611 111.194C81.0851 111.007 81.1971 110.727 81.1971 110.354C81.1971 109.981 81.0851 109.715 80.8611 109.556C80.6371 109.388 80.3151 109.299 79.8951 109.29L78.4811 109.276V111.46H79.8951ZM84.6476 113V105.468H90.6816V107.26H86.3276L86.8176 106.784V113H84.6476ZM91.699 113V105.468H93.869V109.948L97.537 105.468H99.539V113H97.369V108.52L93.715 113H91.699Z" fill="white"/>
<g opacity="0.2" clip-path="url(#clip0_0_1)">
<path d="M54.3973 64.0296C54.3973 58.9701 54.3894 53.9106 54.3973 48.8511C54.4052 45.9476 55.9318 44.4093 58.812 44.4014C63.7619 44.3857 68.7156 44.3936 73.6655 44.4014C76.7739 44.4014 78.9852 45.8256 80.1105 48.7213C80.4213 49.5239 80.8384 49.6458 81.5506 49.634C83.3448 49.6065 85.1429 49.5947 86.9371 49.634C89.3294 49.6852 90.9112 51.255 90.9702 53.6352C91.0135 55.3742 91.0174 57.1171 90.9663 58.856C90.9427 59.7058 91.0922 60.1543 92.0916 60.0993C93.1894 60.0402 93.5986 60.7524 93.5946 61.7831C93.5828 64.9935 93.5828 68.2039 93.5946 71.4143C93.5986 72.5474 93.1107 73.2044 91.946 73.1297C91.1079 73.0785 90.9505 73.4523 90.9663 74.1801C91.0056 75.9191 91.0017 77.662 90.9702 79.4009C90.9269 81.9779 89.3609 83.5792 86.7837 83.587C77.3719 83.6067 67.9562 83.6106 58.5445 83.587C55.9791 83.5792 54.4052 81.9661 54.3934 79.3734C54.3698 74.2588 54.3855 69.1442 54.3855 64.0296H54.3973ZM72.3395 52.2464C67.7713 52.2464 63.2031 52.2858 58.635 52.2189C57.4152 52.1992 56.9745 52.4431 56.9863 53.7926C57.0532 62.1097 57.0178 70.4307 57.0217 78.7518C57.0217 80.7386 57.2696 80.9746 59.3117 80.9746C67.6847 80.9786 76.0617 80.9668 84.4347 80.9825C88.5661 80.9904 88.4284 81.2304 88.3497 77.1269C88.3261 75.8443 88.9438 74.1486 88.0625 73.3972C87.3267 72.7677 85.6859 73.1926 84.4465 73.1533C84.3363 73.1533 84.2301 73.1533 84.1199 73.1454C80.6259 72.9447 77.911 70.0806 77.9189 66.6066C77.9267 63.1287 80.6495 60.2724 84.1475 60.0993C85.1233 60.0521 86.1109 60.0284 87.0827 60.0993C88.0467 60.1701 88.4559 59.9104 88.389 58.856C88.2986 57.3925 88.3733 55.921 88.3654 54.4535C88.3536 52.5336 88.0979 52.2661 86.2092 52.2621C81.586 52.2543 76.9627 52.2621 72.3434 52.2621L72.3395 52.2464ZM90.9781 66.6499C90.9781 65.7292 90.9269 64.8008 90.9938 63.8841C91.0607 62.9831 90.7774 62.6369 89.8252 62.6762C88.0389 62.747 86.2446 62.6566 84.4583 62.7077C82.1959 62.7746 80.5236 64.4978 80.5472 66.6499C80.5708 68.739 82.1998 70.3993 84.3796 70.5094C85.3003 70.5566 86.225 70.5212 87.1457 70.5212C89.7032 70.5212 90.982 69.2308 90.982 66.6499H90.9781ZM77.667 49.6222C76.7503 47.7495 75.4439 47.0217 73.6694 47.0217C68.7786 47.0217 63.8917 47.0217 59.0009 47.0217C58.6743 47.0217 58.332 46.9941 58.029 47.0846C57.128 47.3561 57.0139 48.08 57.0139 48.8983C57.0178 49.9448 57.7929 49.6065 58.2927 49.6065C64.6472 49.6262 71.0017 49.6183 77.6631 49.6183L77.667 49.6222Z" fill="white"/>
<path d="M72.6822 84C67.8779 84 63.1563 83.9961 58.5567 83.9843C55.767 83.9764 54.0239 82.2138 54.0121 79.3772C53.9964 75.7694 54.0003 72.1027 54.0003 68.5539C54.0003 67.0471 54.0003 65.5363 54.0003 64.0295V59.6152C54.0003 56.0271 54.0003 52.4391 54.0082 48.851C54.0161 45.739 55.7237 44.0197 58.8164 44.0079C62.9006 44 66.9808 44 71.0611 44H73.6698C76.9671 44.0039 79.32 45.5855 80.4807 48.5717C80.709 49.1579 80.9254 49.2405 81.551 49.2365C83.0304 49.2129 84.982 49.1933 86.9533 49.2365C89.5738 49.2956 91.3051 51.0149 91.3719 53.6233C91.4192 55.4331 91.4152 57.1996 91.368 58.8677C91.3601 59.1274 91.368 59.4854 91.49 59.6034C91.5765 59.686 91.7812 59.7215 92.0802 59.7057C92.6468 59.6703 93.1032 59.8198 93.4337 60.1346C93.8115 60.4926 94.0003 61.0473 93.9964 61.787C93.9846 65.4734 93.9846 68.5343 93.9964 71.4142C93.9964 72.1578 93.8075 72.7164 93.4219 73.0784C93.0639 73.4167 92.5602 73.5662 91.9267 73.5269C91.6946 73.5112 91.5254 73.5387 91.4624 73.5977C91.3916 73.6646 91.3601 73.8613 91.368 74.1761C91.4034 75.7773 91.4034 77.4887 91.3719 79.4126C91.3247 82.2256 89.5738 83.9764 86.792 83.9843C82.031 83.9961 77.3133 84 72.6743 84H72.6822ZM65.2614 44.7869C63.113 44.7869 60.9647 44.7869 58.8164 44.7947C56.1526 44.8026 54.7991 46.1678 54.7951 48.851C54.7873 52.4391 54.7873 56.0271 54.7912 59.6113V64.0256C54.7912 65.5324 54.7912 67.0432 54.7912 68.55C54.7912 72.0948 54.7833 75.7616 54.803 79.3654C54.8148 81.7535 56.2195 83.1817 58.5645 83.1895C67.6065 83.2131 77.1048 83.2131 86.7998 83.1895C89.137 83.1856 90.5535 81.7653 90.5929 79.3929C90.6244 77.4769 90.6204 75.7734 90.5889 74.1839C90.5811 73.7787 90.6126 73.3223 90.9273 73.0194C91.2382 72.7204 91.6789 72.7086 91.9858 72.7282C92.391 72.7518 92.6979 72.6732 92.8907 72.4922C93.1111 72.2876 93.2173 71.9217 93.2173 71.4063C93.2055 68.5264 93.2055 65.4655 93.2173 61.7752C93.2173 61.4211 93.1622 60.949 92.8986 60.6972C92.7294 60.5359 92.4776 60.465 92.1274 60.4847C91.5805 60.5162 91.2028 60.41 90.9431 60.1582C90.6047 59.8277 90.5732 59.328 90.585 58.8362C90.6322 57.1838 90.6362 55.4331 90.5889 53.6351C90.5339 51.4516 89.1331 50.0667 86.9376 50.0155C84.982 49.9723 83.0383 49.9919 81.5667 50.0155C80.7247 50.0313 80.1345 49.8385 79.7528 48.851C78.7062 46.1521 76.6602 44.7869 73.6737 44.7829H71.065C69.1331 44.7829 67.1972 44.779 65.2653 44.779L65.2614 44.7869ZM85.6942 81.3758C85.5053 81.3758 85.3007 81.3758 85.0883 81.3758H84.439C79.2689 81.364 74.0987 81.364 68.9285 81.368C65.7257 81.368 62.5189 81.368 59.3161 81.368C57.0615 81.368 56.6326 80.9509 56.6326 78.7516C56.6326 76.3517 56.6326 73.9557 56.6326 71.5558C56.6366 65.7331 56.6405 59.7175 56.5933 53.7964C56.5854 53.0371 56.7231 52.561 57.034 52.2502C57.4038 51.8843 57.9429 51.8174 58.6432 51.8253C61.9641 51.8725 65.3479 51.8647 68.6137 51.8568C69.8571 51.8568 71.0965 51.8529 72.3399 51.8529H76.3729C79.6505 51.8529 82.9281 51.8489 86.2057 51.8529C88.3147 51.8568 88.7436 52.2935 88.7554 54.4377C88.7554 54.9334 88.7554 55.4291 88.7436 55.9249C88.7318 56.877 88.716 57.8605 88.779 58.8205C88.8026 59.2139 88.7947 59.7805 88.4249 60.1464C88.0589 60.5083 87.5002 60.5162 87.0517 60.4847C86.0404 60.41 85.0253 60.4414 84.1636 60.4847C80.886 60.646 78.3167 63.3292 78.3088 66.5986C78.3009 69.8562 80.8624 72.5551 84.14 72.744C84.199 72.744 84.262 72.7479 84.3249 72.7479H84.4587C84.8207 72.7636 85.2338 72.7322 85.6352 72.7007C86.6425 72.6259 87.6851 72.5473 88.3186 73.0902C89.0938 73.7551 88.96 74.8646 88.8341 75.9386C88.7829 76.3596 88.7357 76.757 88.7436 77.115L88.7514 77.5123C88.7908 79.3693 88.8065 80.3018 88.2714 80.8486C87.8071 81.3207 87.0635 81.3758 85.6942 81.3758ZM74.5905 80.5772C77.876 80.5772 81.1575 80.5772 84.439 80.585H85.0922C86.5402 80.5929 87.4137 80.6008 87.7127 80.2978C88.0196 79.987 87.9999 79.0625 87.9684 77.5281L87.9606 77.1268C87.9527 76.7137 88.0039 76.273 88.055 75.8442C88.1652 74.9354 88.2675 74.0777 87.8111 73.6882C87.4255 73.3577 86.548 73.4207 85.6942 73.4876C85.2732 73.519 84.8364 73.5505 84.4351 73.5387H84.3171C84.2462 73.5387 84.1715 73.5348 84.1006 73.5308C80.406 73.3184 77.5179 70.2732 77.5258 66.5986C77.5337 62.9082 80.4335 59.8788 84.1282 59.6978C85.0135 59.6546 86.0601 59.6231 87.1107 59.6978C87.512 59.7293 87.7678 59.69 87.8701 59.5838C87.9724 59.4815 88.0157 59.2336 87.9921 58.8677C87.9291 57.8802 87.9448 56.8809 87.9566 55.9131C87.9645 55.4213 87.9684 54.9334 87.9684 54.4416C87.9566 52.7263 87.874 52.6437 86.2057 52.6397C82.9281 52.6318 79.6505 52.6358 76.3729 52.6397H72.3399C71.1005 52.6397 69.8571 52.6437 68.6177 52.6476C65.344 52.6555 61.9602 52.6633 58.6314 52.6161C58.0491 52.6082 57.7343 52.6673 57.5887 52.8128C57.4432 52.9584 57.3763 53.2771 57.3802 53.7925C57.4274 59.7136 57.4235 65.737 57.4196 71.5598C57.4196 73.9597 57.4196 76.3557 57.4196 78.7556C57.4196 80.5142 57.4904 80.585 59.3161 80.585C62.5189 80.585 65.7257 80.585 68.9285 80.585C70.8172 80.585 72.7019 80.585 74.5905 80.585V80.5772ZM85.5053 70.9303C85.1237 70.9303 84.7381 70.9263 84.3564 70.9067C81.9838 70.7847 80.1738 68.9592 80.1502 66.6576C80.1227 64.2577 81.972 62.3928 84.4469 62.3181C85.2968 62.2945 86.1585 62.2984 86.9926 62.3063C87.9173 62.3142 88.8734 62.322 89.8099 62.2866C90.1837 62.2709 90.7227 62.2945 91.065 62.6486C91.4034 62.9987 91.4152 63.5102 91.3838 63.9154C91.3365 64.537 91.3483 65.1783 91.3601 65.7999C91.3641 66.0832 91.368 66.3665 91.368 66.6497C91.368 68.6917 91.368 69.7185 90.7739 70.3165C90.1797 70.9185 89.1528 70.9224 87.1382 70.9185C86.8667 70.9185 86.5952 70.9185 86.3237 70.9224C86.0523 70.9224 85.7768 70.9303 85.5014 70.9303H85.5053ZM85.8083 63.0853C85.3637 63.0853 84.9151 63.0853 84.4705 63.101C82.4363 63.16 80.9175 64.6826 80.9411 66.6458C80.9608 68.5264 82.4481 70.0175 84.3997 70.1159C85.0371 70.1473 85.6903 70.1395 86.3198 70.1355C86.6464 70.1355 86.9808 70.1277 87.3035 70.1277C88.9521 70.1277 89.8689 70.1159 90.223 69.7618C90.5889 69.392 90.5889 68.4162 90.5889 66.6497C90.5889 66.3704 90.585 66.0911 90.5811 65.8117C90.5693 65.1705 90.5575 64.5095 90.6047 63.8564C90.6283 63.5102 90.5968 63.2899 90.5063 63.1954C90.4158 63.101 90.1876 63.0577 89.8453 63.0695C88.8931 63.1089 87.9252 63.0971 86.9926 63.0931C86.6031 63.0931 86.2096 63.0853 85.8122 63.0853H85.8083ZM57.6438 50.0549C57.4078 50.0549 57.1599 50.0077 56.9553 49.8267C56.731 49.63 56.6208 49.327 56.6208 48.9021C56.6208 48.3159 56.6129 47.1002 57.9153 46.7107C58.2183 46.6202 58.537 46.6242 58.8203 46.6281H58.9974C61.7359 46.6281 64.4744 46.6281 67.213 46.6281H73.6659C75.6922 46.6281 77.0772 47.5251 78.0176 49.449L78.2931 50.0155H73.5793C68.3816 50.0155 63.3373 50.0155 58.2931 50.0037C58.2104 50.0037 58.1199 50.0155 58.0294 50.0273C57.9153 50.0431 57.7815 50.0549 57.6438 50.0549ZM58.6354 47.415C58.4544 47.415 58.2852 47.4228 58.1435 47.4661C57.5848 47.6353 57.4078 47.9815 57.4117 48.9021C57.4117 49.1225 57.455 49.2208 57.4825 49.2405C57.5415 49.2916 57.7894 49.2641 57.9389 49.2444C58.0648 49.2287 58.1986 49.2129 58.3009 49.2169C63.3452 49.2326 68.3895 49.2326 73.5872 49.2326H77.0025C76.2234 47.9815 75.1728 47.415 73.6698 47.415H67.2169C64.4784 47.415 61.7398 47.415 59.0052 47.415H58.8164C58.7573 47.415 58.6983 47.415 58.6393 47.415H58.6354Z" fill="white"/>
</g>
<defs>
<clipPath id="clip0_0_1">
<rect width="40" height="40" fill="white" transform="translate(54 44)"/>
</clipPath>
</defs>
</svg>
