<svg width="146" height="140" viewBox="0 0 146 140" fill="none" xmlns="http://www.w3.org/2000/svg">
<rect opacity="0.2" width="146" height="140" rx="20" fill="white"/>
<path d="M35.4114 109.168C34.6367 109.168 33.918 109.042 33.2554 108.79C32.602 108.538 32.0327 108.183 31.5474 107.726C31.0714 107.269 30.698 106.732 30.4274 106.116C30.166 105.5 30.0354 104.828 30.0354 104.1C30.0354 103.372 30.166 102.7 30.4274 102.084C30.698 101.468 31.076 100.931 31.5614 100.474C32.0467 100.017 32.616 99.662 33.2694 99.41C33.9227 99.158 34.632 99.032 35.3974 99.032C36.172 99.032 36.8814 99.158 37.5254 99.41C38.1787 99.662 38.7434 100.017 39.2194 100.474C39.7047 100.931 40.0827 101.468 40.3534 102.084C40.624 102.691 40.7594 103.363 40.7594 104.1C40.7594 104.828 40.624 105.505 40.3534 106.13C40.0827 106.746 39.7047 107.283 39.2194 107.74C38.7434 108.188 38.1787 108.538 37.5254 108.79C36.8814 109.042 36.1767 109.168 35.4114 109.168ZM35.3974 107.236C35.836 107.236 36.2374 107.161 36.6014 107.012C36.9747 106.863 37.3014 106.648 37.5814 106.368C37.8614 106.088 38.076 105.757 38.2254 105.374C38.384 104.991 38.4634 104.567 38.4634 104.1C38.4634 103.633 38.384 103.209 38.2254 102.826C38.076 102.443 37.8614 102.112 37.5814 101.832C37.3107 101.552 36.9887 101.337 36.6154 101.188C36.242 101.039 35.836 100.964 35.3974 100.964C34.9587 100.964 34.5527 101.039 34.1794 101.188C33.8154 101.337 33.4934 101.552 33.2134 101.832C32.9334 102.112 32.714 102.443 32.5554 102.826C32.406 103.209 32.3314 103.633 32.3314 104.1C32.3314 104.557 32.406 104.982 32.5554 105.374C32.714 105.757 32.9287 106.088 33.1994 106.368C33.4794 106.648 33.806 106.863 34.1794 107.012C34.5527 107.161 34.9587 107.236 35.3974 107.236ZM43.7265 109V102.756L44.2165 103.26H41.1785V101.468H48.4445V103.26H45.4065L45.8965 102.756V109H43.7265ZM49.4687 109V101.468H51.6387V104.408H54.9147V101.468H57.0987V109H54.9147V106.186H51.6387V109H49.4687ZM62.5774 109.112C61.7747 109.112 61.0607 108.944 60.4354 108.608C59.8194 108.272 59.3294 107.815 58.9654 107.236C58.6107 106.648 58.4334 105.981 58.4334 105.234C58.4334 104.478 58.6107 103.811 58.9654 103.232C59.3294 102.644 59.8194 102.187 60.4354 101.86C61.0607 101.524 61.7747 101.356 62.5774 101.356C63.3707 101.356 64.08 101.524 64.7054 101.86C65.3307 102.187 65.8207 102.639 66.1754 103.218C66.53 103.797 66.7074 104.469 66.7074 105.234C66.7074 105.981 66.53 106.648 66.1754 107.236C65.8207 107.815 65.3307 108.272 64.7054 108.608C64.08 108.944 63.3707 109.112 62.5774 109.112ZM62.5774 107.32C62.9414 107.32 63.268 107.236 63.5574 107.068C63.8467 106.9 64.0754 106.662 64.2434 106.354C64.4114 106.037 64.4954 105.663 64.4954 105.234C64.4954 104.795 64.4114 104.422 64.2434 104.114C64.0754 103.806 63.8467 103.568 63.5574 103.4C63.268 103.232 62.9414 103.148 62.5774 103.148C62.2134 103.148 61.8867 103.232 61.5974 103.4C61.308 103.568 61.0747 103.806 60.8974 104.114C60.7294 104.422 60.6454 104.795 60.6454 105.234C60.6454 105.663 60.7294 106.037 60.8974 106.354C61.0747 106.662 61.308 106.9 61.5974 107.068C61.8867 107.236 62.2134 107.32 62.5774 107.32ZM73.2075 107.208L72.7315 107.712V101.468H74.9155V107.712L74.4115 107.208H77.8835L77.3935 107.712V101.468H79.5635V109H68.0695V101.468H70.2395V107.712L69.7495 107.208H73.2075ZM85.2014 109.112C84.3427 109.112 83.5867 108.944 82.9334 108.608C82.2894 108.272 81.79 107.815 81.4354 107.236C81.0807 106.648 80.9034 105.981 80.9034 105.234C80.9034 104.478 81.076 103.811 81.4214 103.232C81.776 102.644 82.2567 102.187 82.8634 101.86C83.47 101.524 84.156 101.356 84.9214 101.356C85.6587 101.356 86.3214 101.515 86.9094 101.832C87.5067 102.14 87.978 102.588 88.3234 103.176C88.6687 103.755 88.8414 104.45 88.8414 105.262C88.8414 105.346 88.8367 105.444 88.8274 105.556C88.818 105.659 88.8087 105.757 88.7994 105.85H82.6814V104.576H87.6514L86.8114 104.954C86.8114 104.562 86.732 104.221 86.5734 103.932C86.4147 103.643 86.1954 103.419 85.9154 103.26C85.6354 103.092 85.3087 103.008 84.9354 103.008C84.562 103.008 84.2307 103.092 83.9414 103.26C83.6614 103.419 83.442 103.647 83.2834 103.946C83.1247 104.235 83.0454 104.581 83.0454 104.982V105.318C83.0454 105.729 83.134 106.093 83.3114 106.41C83.498 106.718 83.7547 106.956 84.0814 107.124C84.4174 107.283 84.8094 107.362 85.2574 107.362C85.6587 107.362 86.0087 107.301 86.3074 107.18C86.6154 107.059 86.8954 106.877 87.1474 106.634L88.3094 107.894C87.964 108.286 87.53 108.589 87.0074 108.804C86.4847 109.009 85.8827 109.112 85.2014 109.112ZM90.3755 109V101.468H92.5455V104.408H95.8215V101.468H98.0055V109H95.8215V106.186H92.5455V109H90.3755ZM99.9562 109V101.468H102.126V105.948L105.794 101.468H107.796V109H105.626V104.52L101.972 109H99.9562ZM114.502 109V106.494L114.81 106.844H112.724C111.641 106.844 110.792 106.62 110.176 106.172C109.56 105.724 109.252 105.08 109.252 104.24C109.252 103.344 109.574 102.658 110.218 102.182C110.871 101.706 111.748 101.468 112.85 101.468H116.448V109H114.502ZM109.14 109L111.142 106.13H113.368L111.464 109H109.14ZM114.502 105.822V102.686L114.81 103.246H112.892C112.444 103.246 112.094 103.33 111.842 103.498C111.599 103.666 111.478 103.937 111.478 104.31C111.478 105.029 111.94 105.388 112.864 105.388H114.81L114.502 105.822Z" fill="white"/>
<g opacity="0.2" clip-path="url(#clip0_0_1)">
<path d="M87.1349 67.1175C86.12 67.1175 85.1085 66.7451 84.2827 66.0076L70.4346 53.6398L79.1804 45.7657C83.5224 41.854 90.0938 42.1216 94.1399 46.3695C96.0803 48.4085 97.2226 51.1199 97.3533 54.0013C97.5254 57.7756 95.8395 61.4307 92.8462 63.777L89.7738 66.1883C88.9859 66.8065 88.057 67.1138 87.1349 67.1138V67.1175ZM75.733 53.6289L86.5088 63.2527C86.8563 63.56 87.3517 63.5781 87.7129 63.2925L90.7853 60.8811C92.86 59.2543 94.0298 56.7453 93.9128 54.1748C93.8233 52.1937 93.0389 50.3318 91.7005 48.9291C88.9206 46.008 84.3997 45.8236 81.4133 48.5133L75.7296 53.6289H75.733Z" fill="white"/>
<path d="M73.8269 81H72.547L72.0619 80.5734L61.7231 71.4232L63.9388 68.6575L73.1457 76.8063L82.325 68.2815L84.6027 70.9929L73.8269 81Z" fill="white"/>
<path d="M59.2116 67.2188C58.3652 67.2188 57.5154 66.9404 56.7894 66.3801L52.85 63.3288C52.1412 62.6925 51.5701 62.0634 51.1125 61.4055C47.9231 56.843 48.3911 50.3789 52.2066 46.3732C56.2492 42.1217 62.8207 41.8577 67.1661 45.7695L75.9119 53.6435L61.8573 66.1957C61.0935 66.879 60.1543 67.2224 59.215 67.2224L59.2116 67.2188ZM55.0382 60.5378L58.8297 63.4698C59.0705 63.6578 59.3973 63.6433 59.6279 63.4408L70.6101 53.6326L64.9263 48.5171C61.9399 45.8273 57.419 46.0117 54.6391 48.9328C52.0139 51.6913 51.6905 56.1344 53.8822 59.2688C54.1746 59.6882 54.5531 60.104 55.0382 60.545V60.5378Z" fill="white"/>
</g>
<defs>
<clipPath id="clip0_0_1">
<rect width="48.3636" height="38" fill="white" transform="translate(49 43)"/>
</clipPath>
</defs>
</svg>
