<svg width="164" height="86" viewBox="0 0 164 86" fill="none" xmlns="http://www.w3.org/2000/svg">
<g opacity="0.05" clip-path="url(#clip0_5648_139)">
<path d="M163.972 77.9327L138.956 78.0244L138.983 85.3231L163.999 85.2314L163.972 77.9327Z" fill="white"/>
<path d="M161.336 61.0163L136.885 66.3046L138.427 73.4385L162.878 68.1502L161.336 61.0163Z" fill="white"/>
<path d="M155.258 44.9474L132.44 55.2054L135.431 61.8628L158.249 51.6048L155.258 44.9474Z" fill="white"/>
<path d="M145.951 30.5016L125.767 45.2845L130.077 51.1736L150.262 36.3906L145.951 30.5016Z" fill="white"/>
<path d="M133.87 18.3601L117.2 37.0179L122.64 41.8818L139.31 23.224L133.87 18.3601Z" fill="white"/>
<path d="M119.52 8.9545L107.087 30.6697L113.419 34.297L125.851 12.5818L119.52 8.9545Z" fill="white"/>
<path d="M103.507 2.75681L95.8599 26.5831L102.807 28.8143L110.454 4.988L103.507 2.75681Z" fill="white"/>
<path d="M86.5721 0.0219203L84.0527 24.9189L91.3119 25.654L93.8313 0.756969L86.5721 0.0219203Z" fill="white"/>
<path d="M76.6734 0.0604501L69.4199 0.849976L72.126 25.7274L79.3794 24.9379L76.6734 0.0604501Z" fill="white"/>
<path d="M59.7733 2.9335L52.8428 5.21558L60.6644 28.9852L67.5949 26.7031L59.7733 2.9335Z" fill="white"/>
<path d="M43.8158 9.2866L37.5098 12.958L50.0933 34.5858L56.3993 30.9144L43.8158 9.2866Z" fill="white"/>
<path d="M29.5838 18.8245L24.1787 23.7272L40.9824 42.2652L46.3875 37.3625L29.5838 18.8245Z" fill="white"/>
<path d="M17.5916 31.1183L13.3267 37.0403L33.6238 51.6678L37.8887 45.7458L17.5916 31.1183Z" fill="white"/>
<path d="M8.40622 45.6228L5.46533 52.3024L28.3591 62.3888L31.3 55.7092L8.40622 45.6228Z" fill="white"/>
<path d="M2.45246 61.7144L0.962891 68.8594L25.4519 73.9682L26.9415 66.8232L2.45246 61.7144Z" fill="white"/>
<path d="M25.005 78.6046L-0.0107422 78.7007L0.0172735 85.9994L25.033 85.9033L25.005 78.6046Z" fill="white"/>
<path d="M82.4483 77.6168C82.344 77.6168 82.2398 77.6377 82.1356 77.6585L53.1797 43.3336L78.821 80.2235C78.6751 80.6197 78.5917 81.0368 78.5917 81.4747C78.5917 83.6018 80.3219 85.3326 82.4483 85.3326C84.5746 85.3326 86.3049 83.6018 86.3049 81.4747C86.3049 79.3477 84.5746 77.6168 82.4483 77.6168Z" fill="white"/>
</g>
<defs>
<clipPath id="clip0_5648_139">
<rect width="164" height="86" fill="white"/>
</clipPath>
</defs>
</svg>
