<svg width="47" height="47" viewBox="0 0 47 47" fill="none" xmlns="http://www.w3.org/2000/svg">
<g opacity="0.3" filter="url(#filter0_b_5637_10)">
<circle cx="23.5" cy="23.5" r="23.5" fill="#DEDEDE"/>
</g>
<g opacity="0.7" filter="url(#filter1_b_5637_10)">
<circle cx="23.5" cy="23.5" r="17.5" fill="#F0F1F2"/>
</g>
<path d="M24.0108 18.7664C22.1699 18.7664 20.3289 18.7732 18.4887 18.7589C18.2151 18.7566 18.1423 18.8147 18.2028 19.1455C18.7707 22.2538 19.3289 25.3643 19.878 28.4771C19.9228 28.7308 20.0047 28.8026 20.2165 28.8011C21.4076 28.7912 22.5987 28.7958 23.7898 28.7973C23.9087 28.7973 24.0303 28.7943 24.1453 28.8222C24.3883 28.8819 24.5157 29.0775 24.5274 29.3576C24.5397 29.6536 24.4253 29.8757 24.1719 29.9542C24.0387 29.995 23.8931 29.9942 23.7534 29.995C22.4324 29.998 21.1113 29.9972 19.7902 29.9965C19.1749 29.9965 19.0852 29.9187 18.9598 29.2217C18.3132 25.6188 17.6693 22.0159 17.0286 18.4122C16.9252 17.83 17.1215 17.5657 17.6413 17.5634C18.1716 17.5604 18.7031 17.5476 19.2327 17.5695C19.464 17.5793 19.5901 17.4819 19.6863 17.2523C19.7902 17.0038 19.9163 16.7682 20.0352 16.5288C20.4641 15.6649 21.097 15.1091 21.9587 15.0616C23.3532 14.9853 24.7515 14.9702 26.1454 15.0721C26.9044 15.1273 27.4833 15.6083 27.9012 16.3401C28.0805 16.6542 28.2521 16.9751 28.4087 17.3052C28.5055 17.5083 28.6277 17.574 28.8245 17.568C29.3658 17.5521 29.9071 17.5589 30.4484 17.5642C30.9202 17.5687 31.1216 17.8572 31.0287 18.3843C30.7993 19.6885 30.5712 20.9934 30.338 22.2968C30.31 22.4546 30.2912 22.6215 30.1911 22.7499C30.0163 22.9749 29.7999 23.0225 29.5725 22.9025C29.3379 22.7786 29.2456 22.54 29.2957 22.2477C29.4744 21.2003 29.6472 20.1514 29.8506 19.1108C29.9123 18.7966 29.8363 18.7604 29.5978 18.7619C27.7355 18.7709 25.8731 18.7672 24.0108 18.7672V18.7664ZM20.7838 17.5317H27.2936C26.9908 16.741 26.5444 16.2321 25.7847 16.229C24.6047 16.2245 23.4246 16.22 22.2446 16.2306C21.5226 16.2374 21.0249 16.6905 20.7838 17.5317Z" fill="#D24040"/>
<path d="M32.0022 28.0293C31.9919 28.4046 31.795 28.5692 31.5188 28.6478C30.8904 28.8275 30.2647 29.0223 29.6311 29.1779C29.4121 29.2315 29.3289 29.3554 29.2737 29.5827C29.0937 30.331 28.8988 31.0749 28.7129 31.8217C28.6356 32.1329 28.5121 32.3836 28.197 32.3987C27.8844 32.4138 27.7382 32.1857 27.6381 31.8791C26.9896 29.8855 26.3385 27.8926 25.6855 25.9005C25.5945 25.6233 25.5665 25.3628 25.7641 25.1332C25.9616 24.9044 26.1865 24.9316 26.4243 25.0411C28.1482 25.8393 29.8728 26.6368 31.5987 27.4304C31.843 27.543 32.0003 27.7182 32.0022 28.0285V28.0293ZM27.0299 26.6141C27.3996 27.7446 27.7401 28.7852 28.1099 29.9149C28.2249 29.4702 28.3263 29.1198 28.4049 28.7618C28.4829 28.4084 28.6486 28.1947 28.9696 28.1305C29.2198 28.0806 29.4628 27.9847 29.7818 27.8873C28.8422 27.4523 27.9728 27.0498 27.0299 26.6134V26.6141Z" fill="#D24040"/>
<path d="M21.9126 23.5957C21.9126 24.4241 21.9152 25.2525 21.9119 26.081C21.91 26.5273 21.7124 26.7893 21.3934 26.7833C21.0906 26.778 20.8813 26.5175 20.88 26.1006C20.8748 24.4309 20.8742 22.7613 20.8807 21.0916C20.882 20.6725 21.0932 20.4278 21.4077 20.4316C21.7222 20.4353 21.9093 20.6793 21.9119 21.1089C21.9158 21.9374 21.9132 22.7658 21.9132 23.5942L21.9126 23.5957Z" fill="#D24040"/>
<path d="M24.5263 23.5965C24.5263 24.4143 24.5289 25.2322 24.5256 26.05C24.5237 26.5152 24.3443 26.7735 24.0305 26.7841C23.703 26.7954 23.497 26.525 23.4963 26.0493C23.4924 24.4136 23.4918 22.7779 23.4963 21.143C23.4976 20.6808 23.6887 20.4339 24.0142 20.4331C24.3391 20.4331 24.5224 20.6785 24.525 21.1437C24.5295 21.9616 24.5263 22.7794 24.5263 23.5973V23.5965Z" fill="#D24040"/>
<path d="M27.1106 22.4509C27.1106 22.9033 27.1158 23.3564 27.1093 23.8087C27.1034 24.2059 26.9091 24.4461 26.6063 24.4506C26.3048 24.4544 26.0852 24.2172 26.0806 23.8268C26.0696 22.8972 26.0689 21.9668 26.0819 21.0365C26.0871 20.6513 26.3185 20.4195 26.6232 20.4339C26.9137 20.4475 27.1028 20.6793 27.1093 21.0561C27.1171 21.5213 27.1112 21.9865 27.1112 22.4509H27.1106Z" fill="#D24040"/>
<defs>
<filter id="filter0_b_5637_10" x="-400" y="-400" width="847" height="847" filterUnits="userSpaceOnUse" color-interpolation-filters="sRGB">
<feFlood flood-opacity="0" result="BackgroundImageFix"/>
<feGaussianBlur in="BackgroundImageFix" stdDeviation="200"/>
<feComposite in2="SourceAlpha" operator="in" result="effect1_backgroundBlur_5637_10"/>
<feBlend mode="normal" in="SourceGraphic" in2="effect1_backgroundBlur_5637_10" result="shape"/>
</filter>
<filter id="filter1_b_5637_10" x="-394" y="-394" width="835" height="835" filterUnits="userSpaceOnUse" color-interpolation-filters="sRGB">
<feFlood flood-opacity="0" result="BackgroundImageFix"/>
<feGaussianBlur in="BackgroundImageFix" stdDeviation="200"/>
<feComposite in2="SourceAlpha" operator="in" result="effect1_backgroundBlur_5637_10"/>
<feBlend mode="normal" in="SourceGraphic" in2="effect1_backgroundBlur_5637_10" result="shape"/>
</filter>
</defs>
</svg>
