<svg width="24" height="24" viewBox="0 0 24 24" fill="none" xmlns="http://www.w3.org/2000/svg">
<g clip-path="url(#clip0_4545_4928)">
<path d="M10.0099 9.15C10.0099 9.55 10.2299 9.84 10.6699 10.01V8.33L10.5899 8.36C10.1999 8.55 9.99988 8.81 10.0099 9.15Z" fill="url(#paint0_linear_4545_4928)"/>
<path d="M12.77 14.55C12.85 14.52 12.92 14.48 12.99 14.44C13.38 14.2 13.58 13.87 13.58 13.44C13.58 12.98 13.31 12.66 12.77 12.49V14.56V14.55Z" fill="url(#paint1_linear_4545_4928)"/>
<path d="M2.76001 11.53C2.76001 16.37 6.69001 20.3 11.53 20.3C13.58 20.3 15.46 19.6 16.95 18.42C17.26 17.98 17.66 17.6 18.12 17.31C19.47 15.77 20.3 13.74 20.3 11.53C20.3 6.68999 16.38 2.75999 11.53 2.75999C6.68001 2.75999 2.76001 6.68999 2.76001 11.53ZM12.77 4.95999V6.01999C13.88 6.20999 14.78 6.70999 15.48 7.50999C15.58 7.59999 15.63 7.70999 15.63 7.82999C15.63 7.97999 15.55 8.09999 15.4 8.19999L14.27 8.90999C14.27 8.90999 14.07 9.00999 13.93 9.00999C13.75 9.00999 13.6 8.94999 13.46 8.83999C13.24 8.64999 13.01 8.49999 12.78 8.38999V10.28C14.13 10.47 15.12 10.94 15.75 11.7C16.14 12.17 16.33 12.75 16.32 13.43C16.3 14.52 15.82 15.37 14.88 15.99C14.29 16.38 13.59 16.63 12.78 16.75V17.68C12.78 17.98 12.54 18.23 12.23 18.23H11.23C10.93 18.23 10.68 17.99 10.68 17.68V16.75C9.77001 16.61 8.95001 16.26 8.23001 15.7C7.78001 15.36 7.42001 15 7.16001 14.63C7.08001 14.54 7.04001 14.45 7.04001 14.34C7.04001 14.17 7.12001 14.04 7.30001 13.94L8.32001 13.34C8.32001 13.34 8.52001 13.25 8.62001 13.25C8.80001 13.25 8.95001 13.32 9.06001 13.47C9.57001 14.02 10.1 14.39 10.67 14.59V12.23C9.35001 12.03 8.40001 11.53 7.81001 10.75C7.46001 10.29 7.28001 9.75999 7.27001 9.15999C7.25001 7.93999 7.91001 7.01999 9.26001 6.39999C9.68001 6.20999 10.15 6.07999 10.67 6.00999V4.96999C10.67 4.66999 10.91 4.41999 11.22 4.41999H12.22C12.52 4.41999 12.77 4.66999 12.77 4.96999V4.95999Z" fill="url(#paint2_linear_4545_4928)"/>
<path d="M11.5299 22.93C17.8259 22.93 22.9299 17.826 22.9299 11.53C22.9299 5.23396 17.8259 0.130005 11.5299 0.130005C5.23384 0.130005 0.129883 5.23396 0.129883 11.53C0.129883 17.826 5.23384 22.93 11.5299 22.93Z" stroke="white" stroke-width="0.25" stroke-miterlimit="10"/>
</g>
<defs>
<linearGradient id="paint0_linear_4545_4928" x1="10.0099" y1="9.17" x2="10.6699" y2="9.17" gradientUnits="userSpaceOnUse">
<stop stop-color="#81CACF"/>
<stop offset="0.99" stop-color="#0AB0D7"/>
</linearGradient>
<linearGradient id="paint1_linear_4545_4928" x1="12.77" y1="13.51" x2="13.58" y2="13.51" gradientUnits="userSpaceOnUse">
<stop stop-color="#81CACF"/>
<stop offset="0.99" stop-color="#0AB0D7"/>
</linearGradient>
<linearGradient id="paint2_linear_4545_4928" x1="2.76001" y1="11.53" x2="20.3" y2="11.53" gradientUnits="userSpaceOnUse">
<stop stop-color="#81CACF"/>
<stop offset="0.99" stop-color="#0AB0D7"/>
</linearGradient>
<clipPath id="clip0_4545_4928">
<rect width="23.06" height="23.06" fill="white"/>
</clipPath>
</defs>
</svg>
