<svg width="23" height="22" viewBox="0 0 23 22" fill="none" xmlns="http://www.w3.org/2000/svg">
<g clip-path="url(#clip0_4620_2070)">
<path d="M10.4994 11.5236C7.32179 11.5236 4.73755 8.93941 4.73755 5.76182C4.73755 2.58424 7.32179 0 10.4994 0C13.677 0 16.2612 2.58424 16.2612 5.76182C16.2612 8.93941 13.677 11.5236 10.4994 11.5236ZM10.4994 1.7282C8.27575 1.7282 6.46575 3.5382 6.46575 5.76182C6.46575 7.98544 8.27575 9.79544 10.4994 9.79544C12.723 9.79544 14.533 7.98544 14.533 5.76182C14.533 3.5382 12.723 1.7282 10.4994 1.7282Z" fill="white"/>
<path d="M16.6645 22C13.6782 22 11.2495 19.5713 11.2495 16.585C11.2495 13.5986 13.6794 11.1699 16.6645 11.1699C19.6497 11.1699 22.0796 13.5998 22.0796 16.585C22.0796 19.5701 19.6497 22 16.6645 22ZM16.6645 12.8981C14.631 12.8981 12.9777 14.5526 12.9777 16.585C12.9777 18.6173 14.6322 20.2718 16.6645 20.2718C18.6969 20.2718 20.3514 18.6173 20.3514 16.585C20.3514 14.5526 18.6969 12.8981 16.6645 12.8981Z" fill="white"/>
<path d="M4.23755 20.2165C1.90102 20.2165 0 18.3155 0 15.9789C0 13.6424 1.90102 11.7402 4.23755 11.7402C6.57408 11.7402 8.4751 13.6413 8.4751 15.9789C8.4751 18.3166 6.57408 20.2165 4.23755 20.2165ZM4.23755 13.4684C2.85384 13.4684 1.7282 14.5941 1.7282 15.9789C1.7282 17.3638 2.85384 18.4883 4.23755 18.4883C5.62126 18.4883 6.7469 17.3626 6.7469 15.9789C6.7469 14.5952 5.62126 13.4684 4.23755 13.4684Z" fill="white"/>
<path d="M6.79501 9.32491L5.18872 12.7354L6.75219 13.4717L8.35847 10.0613L6.79501 9.32491Z" fill="white"/>
<path d="M13.9259 9.64722L12.4424 10.5337L14.2431 13.5472L15.7266 12.6608L13.9259 9.64722Z" fill="white"/>
<path d="M12.7458 14.8715L7.57153 15.1155L7.65294 16.8418L12.8272 16.5977L12.7458 14.8715Z" fill="white"/>
</g>
<defs>
<clipPath id="clip0_4620_2070">
<rect width="22.0795" height="22" fill="white"/>
</clipPath>
</defs>
</svg>
