<svg width="95" height="40" viewBox="0 0 95 40" fill="none" xmlns="http://www.w3.org/2000/svg">
<rect x="-48.5" y="0.5" width="143" height="39" rx="19.5" fill="white" fill-opacity="0.3" stroke="#A3FCFF"/>
<path d="M34.5299 28C33.5943 28 32.6521 27.8787 31.7035 27.6361C30.7549 27.3935 29.9362 27.0498 29.2474 26.605L30.6314 23.5925C31.1902 23.9699 31.7945 24.2597 32.4442 24.4619C33.107 24.664 33.7632 24.7651 34.413 24.7651C35.0627 24.7651 35.589 24.6371 35.9919 24.381C36.3947 24.1114 36.5961 23.7408 36.5961 23.269C36.5961 22.986 36.5182 22.7366 36.3622 22.5209C36.2063 22.2918 35.9399 22.1233 35.563 22.0155C35.1862 21.8942 34.6469 21.8335 33.9451 21.8335H30.2416L30.9238 13.5644L39.6175 13.5644V16.6577H32.2883L34.257 14.8988L33.8087 20.4789L31.8399 18.72H34.8613C36.2128 18.72 37.2979 18.9221 38.1165 19.3265C38.9352 19.7174 39.533 20.2498 39.9099 20.9237C40.2867 21.5842 40.4751 22.3322 40.4751 23.1679C40.4751 24.0036 40.2607 24.7921 39.8319 25.5334C39.416 26.2613 38.7728 26.8543 37.9021 27.3126C37.0315 27.7709 35.9074 28 34.5299 28Z" fill="url(#paint0_linear_5474_83)"/>
<path d="M15.2928 28C14.3458 28 13.3988 27.8787 12.4518 27.6361C11.5178 27.3935 10.7005 27.0498 10 26.605L11.401 23.5925C11.9459 23.9699 12.5491 24.2597 13.2107 24.4619C13.8853 24.664 14.5404 24.7651 15.176 24.7651C15.8376 24.7651 16.363 24.6371 16.7522 24.381C17.1414 24.1249 17.336 23.761 17.336 23.2892C17.336 22.8714 17.1738 22.5412 16.8495 22.2985C16.5252 22.0425 15.9933 21.9144 15.2539 21.9144H13.6388L13.6388 19.3872L17.297 15.2829L17.6668 16.6577H10.7005V13.5644L20.5466 13.5644V16.0714L16.8884 20.1757L15.0009 19.0637H16.0517C17.7511 19.0637 19.0353 19.4613 19.9045 20.2565C20.7866 21.0383 21.2277 22.0492 21.2277 23.2892C21.2277 24.0979 21.0137 24.8595 20.5856 25.5739C20.1704 26.2882 19.5283 26.8745 18.6591 27.3328C17.79 27.7776 16.6679 28 15.2928 28Z" fill="url(#paint1_linear_5474_83)"/>
<path d="M26.1307 24.7921C24.8186 24.7921 23.6738 24.5343 22.6965 24.0188C21.7325 23.5032 20.976 22.7365 20.4271 21.7186C19.8916 20.7007 19.6238 19.4448 19.6238 17.951C19.6238 16.3383 19.9384 14.9701 20.5677 13.8464C21.2103 12.7095 22.0873 11.8437 23.1985 11.2488C24.3232 10.6539 25.6219 10.3565 27.0946 10.3565C27.8846 10.3565 28.641 10.449 29.364 10.6341C30.1004 10.8059 30.7229 11.0505 31.2317 11.3678L29.7857 14.1835C29.3841 13.9059 28.9623 13.7208 28.5205 13.6283C28.0921 13.5225 27.6503 13.4697 27.195 13.4697C26.1106 13.4697 25.2403 13.7935 24.5843 14.4413C23.9416 15.089 23.6203 16.0342 23.6203 17.2768C23.6203 17.5016 23.6203 17.7395 23.6203 17.9907C23.6337 18.2286 23.6604 18.4732 23.7006 18.7244L22.6965 17.9114C22.9642 17.4223 23.2856 17.0125 23.6604 16.682C24.0487 16.3515 24.5039 16.1003 25.0261 15.9285C25.5616 15.7566 26.1574 15.6707 26.8135 15.6707C27.6971 15.6707 28.5004 15.8558 29.2234 16.2259C29.9598 16.5828 30.5489 17.0918 30.9907 17.7527C31.4325 18.4005 31.6535 19.1672 31.6535 20.0529C31.6535 21.0179 31.4058 21.8574 30.9104 22.5712C30.415 23.2719 29.7523 23.8205 28.9222 24.217C28.0921 24.6004 27.1616 24.7921 26.1307 24.7921ZM25.8897 21.9962C26.2645 21.9962 26.5926 21.9235 26.8737 21.7781C27.1683 21.6326 27.3959 21.4277 27.5565 21.1634C27.7172 20.899 27.7975 20.5883 27.7975 20.2314C27.7975 19.7026 27.6168 19.2796 27.2553 18.9623C26.9072 18.6451 26.4453 18.4864 25.8696 18.4864C25.4813 18.4864 25.1399 18.5591 24.8453 18.7045C24.5642 18.85 24.3366 19.0549 24.1625 19.3192C24.0019 19.5836 23.9215 19.8943 23.9215 20.2512C23.9215 20.5949 24.0019 20.899 24.1625 21.1634C24.3232 21.4145 24.5508 21.6194 24.8453 21.7781C25.1399 21.9235 25.488 21.9962 25.8897 21.9962Z" fill="url(#paint2_linear_5474_83)"/>
<path d="M53.4207 28L59.069 15.46L60.1655 17.14H52.8207L54.4966 15.32V19.3H51V14L63 14V16.48L57.8897 28H53.4207Z" fill="url(#paint3_linear_5474_83)"/>
<path d="M74.7744 28V15.42L76.5884 17.06H72V14L79 14V28H74.7744Z" fill="url(#paint4_linear_5474_83)"/>
<path d="M41.7206 30.1L48.6506 10.318L50.4776 10.318L43.5476 30.1H41.7206Z" fill="url(#paint5_linear_5474_83)"/>
<path d="M62.7206 30.1L69.6506 10.318L71.4776 10.318L64.5476 30.1H62.7206Z" fill="url(#paint6_linear_5474_83)"/>
<defs>
<linearGradient id="paint0_linear_5474_83" x1="34.8613" y1="13.5644" x2="34.8613" y2="28" gradientUnits="userSpaceOnUse">
<stop stop-color="#A3FCFF"/>
<stop offset="1" stop-color="#34D6FF"/>
</linearGradient>
<linearGradient id="paint1_linear_5474_83" x1="15.6139" y1="13.5644" x2="15.6139" y2="28" gradientUnits="userSpaceOnUse">
<stop stop-color="#A3FCFF"/>
<stop offset="1" stop-color="#34D6FF"/>
</linearGradient>
<linearGradient id="paint2_linear_5474_83" x1="25.6386" y1="10.3565" x2="25.6386" y2="24.7921" gradientUnits="userSpaceOnUse">
<stop stop-color="#A3FCFF"/>
<stop offset="1" stop-color="#34D6FF"/>
</linearGradient>
<linearGradient id="paint3_linear_5474_83" x1="61" y1="9" x2="57.0604" y2="26.4" gradientUnits="userSpaceOnUse">
<stop stop-color="#A3FCFF"/>
<stop offset="1" stop-color="#34D6FF"/>
</linearGradient>
<linearGradient id="paint4_linear_5474_83" x1="79" y1="11" x2="76.1965" y2="26.4" gradientUnits="userSpaceOnUse">
<stop stop-color="#A3FCFF"/>
<stop offset="1" stop-color="#34D6FF"/>
</linearGradient>
<linearGradient id="paint5_linear_5474_83" x1="46" y1="14" x2="46" y2="27" gradientUnits="userSpaceOnUse">
<stop stop-color="#A3FCFF"/>
<stop offset="1" stop-color="#34D6FF"/>
</linearGradient>
<linearGradient id="paint6_linear_5474_83" x1="67" y1="14" x2="67" y2="27" gradientUnits="userSpaceOnUse">
<stop stop-color="#A3FCFF"/>
<stop offset="1" stop-color="#34D6FF"/>
</linearGradient>
</defs>
</svg>
