<svg width="25" height="25" viewBox="0 0 25 25" fill="none" xmlns="http://www.w3.org/2000/svg">
  <g clip-path="url(#clip0_5452_299)">
    <!-- Круг -->
    <path d="M12.5085 24.1925C18.9615 24.1925 24.1927 18.9612 24.1927 12.5082C24.1927 6.05519 18.9615 0.823975 12.5085 0.823975C6.05543 0.823975 0.824219 6.05519 0.824219 12.5082C0.824219 18.9612 6.05543 24.1925 12.5085 24.1925Z" stroke="white" stroke-miterlimit="10"/>

    <path d="M12.5 24.1925C18.9615 24.1925 24.1927 18.9612 24.1927 12.5082C24.1927 6.05519 18.9615 0.823975 12.5 0.823975C6.05543 0.823975 0.824219 6.05519 0.824219 12.5082C0.824219 18.9612 6.05543 24.1925 12.5 24.1925Z" fill="#a2add0"/>

    <!-- Галочка -->
    <path d="M8.78033 14.88L4.78467 10.8844L5.49276 10.1763L8.78033 13.4537L15.841 6.38293L16.5592 7.10114L8.78033 14.88Z"
          fill="#596B7A"
          transform="translate(2, 2)"/>
  </g>
  <defs>
    <clipPath id="clip0_5452_299">
      <rect width="25" height="25" fill="white"/>
    </clipPath>
  </defs>
</svg>
