<svg width="32" height="32" viewBox="0 0 32 32" fill="none" xmlns="http://www.w3.org/2000/svg">
<g clip-path="url(#clip0_4531_6522)">
<path d="M16.0049 28.7083C23.0208 28.7083 28.7083 23.0208 28.7083 16.0049C28.7083 8.98903 23.0208 3.30151 16.0049 3.30151C8.98903 3.30151 3.30151 8.98903 3.30151 16.0049C3.30151 23.0208 8.98903 28.7083 16.0049 28.7083Z" fill="url(#paint0_linear_4531_6522)"/>
<path d="M16.005 31.8817C24.7735 31.8817 31.8818 24.7734 31.8818 16.0049C31.8818 7.2364 24.7735 0.128113 16.005 0.128113C7.23646 0.128113 0.128174 7.2364 0.128174 16.0049C0.128174 24.7734 7.23646 31.8817 16.005 31.8817Z" stroke="white" stroke-width="0.25" stroke-miterlimit="10"/>
<path d="M16.0049 14.98C17.8446 14.98 19.336 13.4886 19.336 11.6489C19.336 9.80921 17.8446 8.31784 16.0049 8.31784C14.1652 8.31784 12.6738 9.80921 12.6738 11.6489C12.6738 13.4886 14.1652 14.98 16.0049 14.98Z" fill="white"/>
<path d="M21.8983 21.179C20.4102 22.7262 18.3209 23.692 16.0049 23.692C13.6889 23.692 11.5897 22.7262 10.1115 21.179C10.9491 18.725 13.275 16.9708 16.0049 16.9708C18.7348 16.9708 21.0606 18.7349 21.8983 21.179Z" fill="white"/>
</g>
<defs>
<linearGradient id="paint0_linear_4531_6522" x1="3.30151" y1="16.0049" x2="28.6985" y2="16.0049" gradientUnits="userSpaceOnUse">
<stop stop-color="#81CACF"/>
<stop offset="0.99" stop-color="#0AB0D7"/>
</linearGradient>
<clipPath id="clip0_4531_6522">
<rect width="32" height="32" fill="white"/>
</clipPath>
</defs>
</svg>
