<svg width="32" height="32" viewBox="0 0 32 32" fill="none" xmlns="http://www.w3.org/2000/svg">
<g clip-path="url(#clip0_4531_6528)">
<path d="M16.0049 28.7083C23.0208 28.7083 28.7083 23.0208 28.7083 16.0049C28.7083 8.98903 23.0208 3.30151 16.0049 3.30151C8.98903 3.30151 3.30151 8.98903 3.30151 16.0049C3.30151 23.0208 8.98903 28.7083 16.0049 28.7083Z" fill="url(#paint0_linear_4531_6528)"/>
<path d="M16.005 31.8817C24.7735 31.8817 31.8818 24.7734 31.8818 16.0049C31.8818 7.2364 24.7735 0.128113 16.005 0.128113C7.23646 0.128113 0.128174 7.2364 0.128174 16.0049C0.128174 24.7734 7.23646 31.8817 16.005 31.8817Z" stroke="white" stroke-width="0.25" stroke-miterlimit="10"/>
<path d="M24.1281 14.4518C24.1454 14.8228 23.9297 15.0816 23.6709 15.3145C22.9031 16.0305 22.1612 16.7724 21.3676 17.4539C20.9794 17.7903 20.9104 18.1268 21.0053 18.5926C21.2123 19.5502 21.3676 20.5163 21.5401 21.4825C21.6264 21.9656 21.6695 22.4487 21.1606 22.7679C20.6947 23.0698 20.272 22.8887 19.8407 22.6644C18.9435 22.1985 18.0291 21.7758 17.1492 21.2841C16.7179 21.0426 16.3642 21.0167 15.9156 21.2668C14.9753 21.7931 13.9918 22.2503 13.0257 22.742C12.6288 22.949 12.2234 23.0181 11.8352 22.742C11.4211 22.4487 11.3694 22.0432 11.4556 21.586C11.654 20.5508 11.8093 19.5156 12.025 18.4891C12.1112 18.0664 12.025 17.7817 11.6885 17.4884C10.8863 16.781 10.1271 16.0219 9.33348 15.2886C8.98841 14.9694 8.75549 14.6244 8.92803 14.1499C9.10056 13.6841 9.49738 13.5288 9.97185 13.4684C11.0761 13.3304 12.1803 13.1578 13.2931 13.0284C13.6554 12.9853 13.8624 12.83 14.0177 12.5195C14.5094 11.5274 15.027 10.5526 15.5274 9.56916C15.7258 9.18096 15.9846 8.88766 16.4763 8.87041C17.0025 8.85315 17.2872 9.16371 17.4943 9.56916C17.986 10.5353 18.5036 11.4843 18.9694 12.4591C19.1506 12.8386 19.3921 12.9853 19.8062 13.0284C20.919 13.1578 22.0232 13.3217 23.1274 13.477C23.7054 13.5547 24.0936 13.8307 24.1281 14.4432V14.4518ZM12.8014 21.4566C13.7503 20.9822 14.5957 20.6371 15.3549 20.1626C16.1658 19.6537 16.8645 19.6623 17.6754 20.1626C18.4432 20.6371 19.2972 20.9908 20.2289 21.4566C20.0477 20.4646 19.9873 19.6192 19.7372 18.8341C19.418 17.8162 19.7544 17.1261 20.5567 16.4791C21.2209 15.9442 21.7817 15.2886 22.4287 14.6416C21.29 14.4777 20.2375 14.3052 19.1764 14.193C18.5812 14.1326 18.2361 13.8825 17.9946 13.3735C17.546 12.4246 17.0457 11.5015 16.5022 10.4491C15.9673 11.4843 15.4497 12.3987 15.0184 13.3476C14.7682 13.8997 14.3887 14.1326 13.7848 14.193C12.7237 14.3052 11.6713 14.4863 10.6361 14.633C11.4556 15.4611 12.2148 16.2462 13.0084 17.0053C13.3362 17.3159 13.4743 17.6264 13.3794 18.0836C13.1637 19.1447 12.9998 20.223 12.8014 21.4394V21.4566Z" fill="white"/>
</g>
<defs>
<linearGradient id="paint0_linear_4531_6528" x1="3.30151" y1="16.0049" x2="28.6985" y2="16.0049" gradientUnits="userSpaceOnUse">
<stop stop-color="#81CACF"/>
<stop offset="0.99" stop-color="#0AB0D7"/>
</linearGradient>
<clipPath id="clip0_4531_6528">
<rect width="32" height="32" fill="white"/>
</clipPath>
</defs>
</svg>
