<svg width="42" height="42" viewBox="0 0 42 42" fill="none" xmlns="http://www.w3.org/2000/svg">
<g clip-path="url(#clip0_4619_565)">
<path d="M20.0674 0C20.7397 0 21.4121 0 22.0844 0C22.139 0.0898908 22.2298 0.0655279 22.3096 0.0697284C23.3736 0.118454 24.4309 0.241949 25.4637 0.49734C33.8705 2.58079 39.2122 7.80622 41.5032 16.1543C41.7359 17.0011 41.7906 17.8807 42.0007 18.7317V23.3514C41.8149 23.921 41.7965 24.5217 41.6822 25.1056C40.0702 33.336 33.6654 39.8435 25.4326 41.5858C24.6586 41.7496 23.8737 41.8631 23.0937 42H18.9765C18.9244 41.9093 18.832 41.9311 18.753 41.9219C13.5693 41.3212 9.16799 39.1294 5.63234 35.3044C-0.4439 28.7314 -1.75243 19.2484 2.4337 11.3296C5.75588 5.04565 11.0472 1.37188 18.0806 0.242789C18.7395 0.136936 19.4051 0.0798096 20.0674 0ZM17.194 29.2918C17.194 29.2918 17.1974 29.2918 17.1982 29.2918C17.1906 29.375 17.1721 29.4598 17.178 29.5421C17.1898 29.7228 17.1814 29.9261 17.3612 30.0302C17.5478 30.1386 17.7167 30.0185 17.8638 29.9177C18.047 29.7917 18.2235 29.6497 18.3832 29.4951C19.2085 28.6978 20.0447 27.9123 20.9112 27.1588C21.102 26.9924 21.2305 26.9773 21.4432 27.1285C22.845 28.1274 24.2703 29.0919 25.6058 30.1806C26.5126 30.9191 27.3589 30.6292 27.6354 29.4884C28.3867 26.3926 29.154 23.3002 29.8743 20.1977C30.3962 17.9521 30.971 15.7158 31.2752 13.4257C31.4433 12.1579 31.0685 11.8689 29.8709 12.3016C27.5051 13.1568 25.1368 14.0062 22.7769 14.8773C18.5034 16.4542 14.2105 17.9815 10.0025 19.7306C9.70586 19.8541 9.40414 19.9734 9.15874 20.1901C8.85535 20.4581 8.86459 20.8311 9.17135 21.0933C9.32598 21.2251 9.51928 21.2688 9.70417 21.3293C11.1783 21.8107 12.6574 22.2795 14.1273 22.7735C14.4534 22.8827 14.7038 22.8398 14.9896 22.66C17.8655 20.8479 20.7456 19.0434 23.6299 17.2464C24.6149 16.6323 25.615 16.0426 26.6117 15.4478C26.7218 15.3822 26.8689 15.2293 26.9765 15.3671C27.0748 15.4923 26.9084 15.6183 26.8219 15.7149C26.4773 16.1014 26.1369 16.492 25.7688 16.8558C23.2812 19.3164 20.6784 21.6536 18.0748 23.9899C17.884 24.1613 17.6512 24.294 17.6243 24.6108C17.4907 26.1717 17.3386 27.73 17.1923 29.2901L17.194 29.2918Z" fill="white"/>
</g>
<defs>
<clipPath id="clip0_4619_565">
<rect width="42" height="42" fill="white"/>
</clipPath>
</defs>
</svg>
