<svg width="42" height="42" viewBox="0 0 42 42" fill="none" xmlns="http://www.w3.org/2000/svg">
<g clip-path="url(#clip0_4619_568)">
<path d="M42 19.4038V22.6802C41.916 22.7365 41.9328 22.8281 41.9269 22.9079C41.8656 23.6749 41.7471 24.4335 41.5976 25.1887C39.977 33.3789 33.5704 39.8552 25.3584 41.5875C24.583 41.7513 23.7975 41.8639 23.0171 42H18.9854C18.1764 41.8597 17.364 41.737 16.5592 41.5766C8.45729 39.9586 1.71885 33.0118 0.33688 24.8569C0.214226 24.1327 0.111733 23.406 0 22.6802C0 21.5881 0 20.4959 0 19.4038C0.091571 19.3517 0.0672081 19.2585 0.0739289 19.1795C0.138617 18.399 0.261271 17.6278 0.408289 16.8591C2.04733 8.28507 9.35284 1.38449 18.0101 0.241109C18.6696 0.153738 19.3316 0.0798096 19.9919 0C20.664 0 21.336 0 22.0081 0C22.0829 0.0882106 22.1862 0.066368 22.2812 0.0705685C23.3598 0.119294 24.4234 0.283114 25.4786 0.50322C33.6469 2.20274 40.2677 9.05545 41.669 17.2658C41.79 17.9765 41.8899 18.6906 42 19.4038ZM22.8516 18.4822C22.8516 17.6715 22.8709 16.86 22.8457 16.0493C22.8213 15.2655 22.5399 14.9051 21.7796 14.7715C20.1977 14.4934 18.6074 14.5144 17.023 14.7849C16.6575 14.8471 16.3366 15.0218 16.0779 15.294C15.8031 15.583 15.8199 15.662 16.2055 15.7519C16.9499 15.9258 17.3397 16.3996 17.4733 17.1389C17.5682 17.6665 17.5715 18.1983 17.5867 18.7275C17.6152 19.7188 17.6446 20.7186 17.3498 21.6838C17.1381 22.3761 16.6676 22.4996 16.1106 22.0283C15.7116 21.6914 15.4032 21.2747 15.1101 20.8463C14.1045 19.3752 13.2593 17.8169 12.5956 16.1644C12.3999 15.6771 12.079 15.3159 11.564 15.3058C10.2081 15.2781 8.84878 15.2756 7.49454 15.3377C6.71325 15.3738 6.55531 15.7099 6.88295 16.4399C8.27247 19.5315 9.83674 22.5256 11.8421 25.2719C13.077 26.9639 14.5127 28.4214 16.4366 29.3506C18.1042 30.1563 19.8633 30.31 21.6712 30.2419C22.471 30.2117 22.8171 29.8891 22.8323 29.0809C22.8398 28.6735 22.8692 28.2686 22.9751 27.8762C23.1112 27.373 23.2489 26.8303 23.8194 26.6623C24.3906 26.4934 24.7645 26.9101 25.1131 27.2705C25.7449 27.9241 26.3355 28.6172 26.974 29.2641C27.5797 29.8773 28.3055 30.3033 29.196 30.3033C30.4125 30.3033 31.629 30.2596 32.8454 30.2419C33.1873 30.2369 33.5125 30.1756 33.8141 30.0134C34.2433 29.7824 34.3702 29.4581 34.2081 28.9978C34.0669 28.5979 33.8267 28.2526 33.578 27.914C32.727 26.7564 31.6668 25.797 30.6259 24.8225C29.5573 23.8227 29.4926 23.3825 30.3478 22.2139C31.1157 21.1638 31.9213 20.1414 32.6866 19.0896C33.2798 18.2756 33.8477 17.4388 34.1778 16.4761C34.4357 15.7233 34.2148 15.399 33.4301 15.305C33.3335 15.2932 33.2344 15.289 33.1369 15.2898C31.6819 15.3024 30.2268 15.3167 28.7726 15.331C28.1148 15.3369 27.9493 15.4461 27.7006 16.0568C27.31 17.0154 26.8925 17.9614 26.3758 18.8594C25.7617 19.9264 25.1392 20.9916 24.2562 21.8678C24.0311 22.0913 23.7765 22.3551 23.4186 22.2417C23.0406 22.1224 22.9457 21.7578 22.8566 21.415C22.839 21.3478 22.8373 21.2764 22.8281 21.2075C22.7012 20.3002 22.8516 19.3912 22.8549 18.4831L22.8516 18.4822Z" fill="white"/>
</g>
<defs>
<clipPath id="clip0_4619_568">
<rect width="42" height="42" fill="white"/>
</clipPath>
</defs>
</svg>
