<svg width="28" height="28" viewBox="0 0 28 28" fill="none" xmlns="http://www.w3.org/2000/svg">
<g clip-path="url(#clip0_4545_4403)">
<path d="M14.0016 28C6.28061 28 0 21.7194 0 14.0016C0 6.28378 6.28061 0 14.0016 0C21.7226 0 28.0032 6.28061 28.0032 14.0016C28.0032 21.7226 21.7226 28.0032 14.0016 28.0032V28ZM14.0016 1.26625C6.98021 1.26625 1.26625 6.98021 1.26625 14.0016C1.26625 21.023 6.98021 26.7369 14.0016 26.7369C21.023 26.7369 26.7369 21.023 26.7369 14.0016C26.7369 6.98021 21.023 1.26625 14.0016 1.26625Z" fill="white"/>
<path d="M14.6347 7.20508H13.3684V20.7951H14.6347V7.20508Z" fill="white"/>
<path d="M20.795 13.3687H7.20496V14.6349H20.795V13.3687Z" fill="white"/>
</g>
<defs>
<clipPath id="clip0_4545_4403">
<rect width="28" height="28" fill="white"/>
</clipPath>
</defs>
</svg>
